LibertinusSerif-Bold.ufo
<glyph name="dollar" format="2">
	<unicode hex="0024"/>
	<advance width="514"/>
	<outline>
		<contour>
			<point x="76" y="9" type="curve"/>
			<point x="131" y="9"/>
			<point x="189" y="-10"/>
			<point x="244" y="-10" type="curve" smooth="yes"/>
			<point x="373" y="-10"/>
			<point x="467" y="66"/>
			<point x="467" y="171" type="curve" smooth="yes"/>
			<point x="467" y="241"/>
			<point x="408" y="305"/>
			<point x="290" y="364" type="curve" smooth="yes"/>
			<point x="270" y="374" type="line" smooth="yes"/>
			<point x="205" y="407"/>
			<point x="182" y="437"/>
			<point x="182" y="489" type="curve" smooth="yes"/>
			<point x="182" y="540"/>
			<point x="218" y="573"/>
			<point x="268" y="573" type="curve" smooth="yes"/>
			<point x="343" y="573"/>
			<point x="369" y="500"/>
			<point x="387" y="439" type="curve"/>
			<point x="400" y="435"/>
			<point x="423" y="436"/>
			<point x="433" y="444" type="curve"/>
			<point x="433" y="493"/>
			<point x="429" y="531"/>
			<point x="423" y="585" type="curve"/>
			<point x="371" y="592"/>
			<point x="325" y="610"/>
			<point x="272" y="610" type="curve" smooth="yes"/>
			<point x="152" y="610"/>
			<point x="66" y="544"/>
			<point x="66" y="450" type="curve" smooth="yes"/>
			<point x="66" y="366"/>
			<point x="103" y="320"/>
			<point x="225" y="250" type="curve" smooth="yes"/>
			<point x="246" y="238" type="line" smooth="yes"/>
			<point x="295" y="210"/>
			<point x="350" y="164"/>
			<point x="350" y="107" type="curve" smooth="yes"/>
			<point x="350" y="55"/>
			<point x="297" y="30"/>
			<point x="252" y="30" type="curve" smooth="yes"/>
			<point x="175" y="30"/>
			<point x="120" y="94"/>
			<point x="104" y="165" type="curve"/>
			<point x="83" y="166"/>
			<point x="67" y="165"/>
			<point x="58" y="162" type="curve"/>
			<point x="58" y="92"/>
			<point x="66" y="43"/>
		</contour>
		<contour>
			<point x="226" y="17" type="line"/>
			<point x="266" y="16" type="line"/>
			<point x="279" y="231" type="line"/>
			<point x="239" y="257" type="line"/>
		</contour>
		<contour>
			<point x="246" y="377" type="line"/>
			<point x="285" y="351" type="line"/>
			<point x="298" y="583" type="line"/>
			<point x="257" y="587" type="line"/>
		</contour>
		<contour>
			<point x="220" y="-98" type="line"/>
			<point x="230" y="-98"/>
			<point x="253" y="-97"/>
			<point x="261" y="-93" type="curve"/>
			<point x="266" y="6" type="line"/>
			<point x="226" y="7" type="line"/>
		</contour>
		<contour>
			<point x="257" y="595" type="line"/>
			<point x="298" y="594" type="line"/>
			<point x="304" y="695" type="line"/>
			<point x="291" y="695"/>
			<point x="272" y="693"/>
			<point x="263" y="690" type="curve"/>
		</contour>
	</outline>
</glyph>
<glyph name="percent" format="2">
	<unicode hex="0025"/>
	<advance width="637"/>
	<outline>
		<contour>
			<point x="51" y="407" type="curve" smooth="yes"/>
			<point x="51" y="339"/>
			<point x="80" y="297"/>
			<point x="152" y="297" type="curve" smooth="yes"/>
			<point x="231" y="297"/>
			<point x="285" y="376"/>
			<point x="285" y="475" type="curve" smooth="yes"/>
			<point x="285" y="481"/>
			<point x="285" y="487"/>
			<point x="284" y="493" type="curve"/>
			<point x="303" y="483"/>
			<point x="333" y="474"/>
			<point x="354" y="474" type="curve" smooth="yes"/>
			<point x="384" y="474"/>
			<point x="423" y="481"/>
			<point x="462" y="497" type="curve"/>
			<point x="96" y="-4" type="line"/>
			<point x="150" y="-16" type="line"/>
			<point x="561" y="548" type="line"/>
			<point x="514" y="569" type="line"/>
			<point x="473" y="525"/>
			<point x="406" y="519"/>
			<point x="364" y="519" type="curve" smooth="yes"/>
			<point x="328" y="519"/>
			<point x="295" y="527"/>
			<point x="261" y="544" type="curve"/>
			<point x="244" y="560"/>
			<point x="219" y="566"/>
			<point x="193" y="566" type="curve" smooth="yes"/>
			<point x="104" y="566"/>
			<point x="51" y="487"/>
		</contour>
		<contour>
			<point x="370" y="91" type="curve" smooth="yes"/>
			<point x="370" y="23"/>
			<point x="399" y="-19"/>
			<point x="471" y="-19" type="curve" smooth="yes"/>
			<point x="550" y="-19"/>
			<point x="604" y="60"/>
			<point x="604" y="159" type="curve" smooth="yes"/>
			<point x="604" y="231"/>
			<point x="560" y="250"/>
			<point x="512" y="250" type="curve" smooth="yes"/>
			<point x="423" y="250"/>
			<point x="370" y="171"/>
		</contour>
		<contour>
			<point x="144" y="369" type="curve" smooth="yes"/>
			<point x="144" y="406"/>
			<point x="147" y="530"/>
			<point x="204" y="530" type="curve" smooth="yes"/>
			<point x="218" y="530"/>
			<point x="243" y="525"/>
			<point x="243" y="473" type="curve" smooth="yes"/>
			<point x="243" y="431"/>
			<point x="219" y="336"/>
			<point x="169" y="336" type="curve" smooth="yes"/>
			<point x="151" y="336"/>
			<point x="144" y="348"/>
		</contour>
		<contour>
			<point x="463" y="53" type="curve" smooth="yes"/>
			<point x="463" y="90"/>
			<point x="466" y="214"/>
			<point x="523" y="214" type="curve" smooth="yes"/>
			<point x="537" y="214"/>
			<point x="562" y="209"/>
			<point x="562" y="157" type="curve" smooth="yes"/>
			<point x="562" y="115"/>
			<point x="538" y="20"/>
			<point x="488" y="20" type="curve" smooth="yes"/>
			<point x="470" y="20"/>
			<point x="463" y="32"/>
		</contour>
	</outline>
</glyph>
<glyph name="ampersand" format="2">
	<unicode hex="0026"/>
	<advance width="729"/>
	<outline>
		<contour>
			<point x="39" y="144" type="curve" smooth="yes"/>
			<point x="39" y="50"/>
			<point x="113" y="-10"/>
			<point x="232" y="-10" type="curve" smooth="yes"/>
			<point x="311" y="-10"/>
			<point x="373" y="24"/>
			<point x="416" y="66" type="curve"/>
			<point x="424" y="54" type="line" smooth="yes"/>
			<point x="457" y="4"/>
			<point x="501" y="-10"/>
			<point x="566" y="-10" type="curve" smooth="yes"/>
			<point x="611" y="-10"/>
			<point x="661" y="10"/>
			<point x="699" y="61" type="curve"/>
			<point x="699" y="76"/>
			<point x="691" y="97"/>
			<point x="681" y="97" type="curve"/>
			<point x="660" y="72"/>
			<point x="633" y="51"/>
			<point x="601" y="51" type="curve" smooth="yes"/>
			<point x="556" y="51"/>
			<point x="520" y="100"/>
			<point x="493" y="143" type="curve" smooth="yes"/>
			<point x="485" y="156" type="line"/>
			<point x="530" y="212"/>
			<point x="579" y="287"/>
			<point x="601" y="324" type="curve" smooth="yes"/>
			<point x="627" y="368"/>
			<point x="653" y="396"/>
			<point x="704" y="402" type="curve"/>
			<point x="710" y="408"/>
			<point x="710" y="430"/>
			<point x="704" y="436" type="curve"/>
			<point x="682" y="435"/>
			<point x="633" y="434"/>
			<point x="611" y="434" type="curve" smooth="yes"/>
			<point x="574" y="434"/>
			<point x="537" y="435"/>
			<point x="510" y="436" type="curve"/>
			<point x="504" y="430"/>
			<point x="504" y="408"/>
			<point x="510" y="402" type="curve"/>
			<point x="568" y="398"/>
			<point x="558" y="355"/>
			<point x="544" y="326" type="curve"/>
			<point x="522" y="277"/>
			<point x="494" y="239"/>
			<point x="461" y="197" type="curve"/>
			<point x="422" y="247"/>
			<point x="371" y="318"/>
			<point x="335" y="376" type="curve"/>
			<point x="421" y="410"/>
			<point x="485" y="466"/>
			<point x="485" y="547" type="curve" smooth="yes"/>
			<point x="485" y="597"/>
			<point x="434" y="658"/>
			<point x="342" y="658" type="curve" smooth="yes"/>
			<point x="241" y="658"/>
			<point name=".hr01" x="151" y="599"/>
			<point x="151" y="491" type="curve" smooth="yes"/>
			<point x="151" y="445"/>
			<point x="171" y="411"/>
			<point x="215" y="350" type="curve"/>
			<point x="81" y="285"/>
			<point name=".hr02" x="39" y="213"/>
		</contour>
		<contour>
			<point x="167" y="170" type="curve" smooth="yes"/>
			<point x="167" y="218"/>
			<point x="175" y="266"/>
			<point x="236" y="317" type="curve"/>
			<point x="262" y="273"/>
			<point x="338" y="164"/>
			<point x="385" y="101" type="curve"/>
			<point x="354" y="59"/>
			<point x="320" y="41"/>
			<point x="277" y="41" type="curve" smooth="yes"/>
			<point x="210" y="41"/>
			<point x="167" y="92"/>
		</contour>
		<contour>
			<point x="312" y="413" type="curve"/>
			<point x="290" y="439"/>
			<point x="258" y="501"/>
			<point x="258" y="536" type="curve" smooth="yes"/>
			<point name=".hr03" x="258" y="582"/>
			<point x="283" y="616"/>
			<point x="324" y="616" type="curve" smooth="yes"/>
			<point x="358" y="616"/>
			<point x="383" y="580"/>
			<point x="383" y="537" type="curve" smooth="yes"/>
			<point x="383" y="500"/>
			<point x="354" y="446"/>
		</contour>
	</outline>
</glyph>
<glyph name="quotesingle" format="2">
	<unicode hex="0027"/>
	<advance width="215"/>
	<outline>
		<contour>
			<point x="83" y="415" type="line"/>
			<point x="98" y="411" type="line"/>
			<point x="124" y="417" type="line"/>
			<point x="161" y="608" type="line"/>
			<point x="161" y="626"/>
			<point x="158" y="645"/>
			<point x="121" y="645" type="curve" smooth="yes"/>
			<point x="73" y="645"/>
			<point x="51" y="614"/>
			<point x="51" y="591" type="curve"/>
		</contour>
	</outline>
</glyph>
<glyph name="parenleft" format="2">
	<unicode hex="0028"/>
	<advance width="315"/>
	<outline>
		<contour>
			<point x="36" y="253" type="curve" smooth="yes"/>
			<point x="36" y="208"/>
			<point x="41" y="-17"/>
			<point x="268" y="-213" type="curve"/>
			<point x="273.425" y="-207.213"/>
			<point x="293.455" y="-185.848"/>
			<point x="298" y="-181" type="curve"/>
			<point x="266" y="-145"/>
			<point x="151" y="-11"/>
			<point x="151" y="253" type="curve" smooth="yes"/>
			<point x="151" y="517"/>
			<point x="268" y="651"/>
			<point x="298" y="686" type="curve"/>
			<point x="293.049" y="692.012"/>
			<point x="275.238" y="713.64"/>
			<point x="270" y="720" type="curve"/>
			<point x="139" y="607"/>
			<point x="36" y="435"/>
		</contour>
	</outline>
</glyph>
<glyph name="parenright" format="2">
	<unicode hex="0029"/>
	<advance width="315"/>
	<outline>
		<contour>
			<point x="279" y="251" type="curve" smooth="yes"/>
			<point x="279" y="296"/>
			<point x="274" y="521"/>
			<point x="47" y="717" type="curve"/>
			<point x="41.5746" y="711.213"/>
			<point x="21.5454" y="689.848"/>
			<point x="17" y="685" type="curve"/>
			<point x="49" y="649"/>
			<point x="164" y="515"/>
			<point x="164" y="251" type="curve" smooth="yes"/>
			<point x="164" y="-13"/>
			<point x="47" y="-147"/>
			<point x="17" y="-182" type="curve"/>
			<point x="21.951" y="-188.012"/>
			<point x="39.762" y="-209.64"/>
			<point x="45" y="-216" type="curve"/>
			<point x="176" y="-103"/>
			<point x="279" y="69"/>
		</contour>
	</outline>
</glyph>
<glyph name="asterisk" format="2">
	<unicode hex="002A"/>
	<advance width="433"/>
	<outline>
		<contour>
			<point x="197" y="566" type="curve"/>
			<point x="164" y="528"/>
			<point x="114" y="533"/>
			<point x="114" y="479" type="curve" smooth="yes"/>
			<point x="114" y="464"/>
			<point x="126" y="451"/>
			<point x="143" y="451" type="curve" smooth="yes"/>
			<point x="202" y="451"/>
			<point x="188" y="507"/>
			<point x="213" y="552" type="curve"/>
			<point x="238" y="513"/>
			<point x="235" y="451"/>
			<point x="284" y="451" type="curve" smooth="yes"/>
			<point x="298" y="451"/>
			<point x="316" y="462"/>
			<point x="316" y="480" type="curve" smooth="yes"/>
			<point x="316" y="531"/>
			<point x="265" y="529"/>
			<point x="231" y="565" type="curve"/>
			<point x="249" y="568"/>
			<point x="266" y="568"/>
			<point x="285" y="568" type="curve" smooth="yes"/>
			<point x="320" y="568"/>
			<point x="354" y="578"/>
			<point x="354" y="608" type="curve" smooth="yes"/>
			<point x="354" y="617"/>
			<point x="348" y="635"/>
			<point x="327" y="641" type="curve"/>
			<point x="323" y="642"/>
			<point x="319" y="642"/>
			<point x="315" y="642" type="curve" smooth="yes"/>
			<point x="282" y="642"/>
			<point x="271" y="607"/>
			<point x="226" y="588" type="curve"/>
			<point x="228" y="618"/>
			<point x="251" y="656"/>
			<point x="251" y="683" type="curve" smooth="yes"/>
			<point x="251" y="707"/>
			<point x="229" y="718"/>
			<point x="211" y="718" type="curve" smooth="yes"/>
			<point x="193" y="718"/>
			<point x="173" y="700"/>
			<point x="173" y="679" type="curve" smooth="yes"/>
			<point x="173" y="653"/>
			<point x="199" y="628"/>
			<point x="203" y="588" type="curve"/>
			<point x="159" y="607"/>
			<point x="142" y="640"/>
			<point x="108" y="640" type="curve" smooth="yes"/>
			<point x="84" y="640"/>
			<point x="75" y="622"/>
			<point x="75" y="608" type="curve" smooth="yes"/>
			<point x="75" y="563"/>
			<point x="111" y="563"/>
			<point x="156" y="571" type="curve"/>
			<point x="167" y="572"/>
			<point x="176" y="570"/>
			<point x="186" y="568" type="curve"/>
			<point x="190" y="567"/>
			<point x="193" y="567"/>
		</contour>
	</outline>
</glyph>
<glyph name="plus" format="2">
	<unicode hex="002B"/>
	<advance width="537"/>
	<outline>
		<contour>
			<point x="41" y="229" type="curve" smooth="yes"/>
			<point x="41" y="214"/>
			<point x="49" y="205"/>
			<point x="61" y="205" type="curve" smooth="yes"/>
			<point x="232" y="205" type="line"/>
			<point x="232" y="42" type="line" smooth="yes"/>
			<point x="232" y="30"/>
			<point x="241" y="22"/>
			<point x="256" y="22" type="curve" smooth="yes"/>
			<point x="278" y="22"/>
			<point x="306" y="44"/>
			<point x="306" y="62" type="curve" smooth="yes"/>
			<point x="306" y="205" type="line"/>
			<point x="457" y="205" type="line" smooth="yes"/>
			<point x="475" y="205"/>
			<point x="497" y="233"/>
			<point x="497" y="256" type="curve" smooth="yes"/>
			<point x="497" y="270"/>
			<point x="489" y="279"/>
			<point x="477" y="279" type="curve" smooth="yes"/>
			<point x="306" y="279" type="line"/>
			<point x="306" y="443" type="line" smooth="yes"/>
			<point x="306" y="456"/>
			<point x="297" y="463"/>
			<point x="281" y="463" type="curve" smooth="yes"/>
			<point x="260" y="463"/>
			<point x="232" y="441"/>
			<point x="232" y="423" type="curve" smooth="yes"/>
			<point x="232" y="279" type="line"/>
			<point x="81" y="279" type="line" smooth="yes"/>
			<point x="63" y="279"/>
			<point x="41" y="252"/>
		</contour>
	</outline>
</glyph>
<glyph name="comma" format="2">
	<unicode hex="002C"/>
	<advance width="244"/>
	<outline>
		<contour>
			<point x="112" y="127" type="curve" smooth="yes"/>
			<point x="86" y="127"/>
			<point x="49" y="87"/>
			<point x="49" y="64" type="curve" smooth="yes"/>
			<point x="49" y="39"/>
			<point x="70" y="11"/>
			<point x="89" y="6" type="curve"/>
			<point x="92" y="5"/>
			<point x="95" y="5"/>
			<point x="98" y="4" type="curve"/>
			<point x="110" y="-1"/>
			<point x="125" y="-9"/>
			<point x="125" y="-27" type="curve"/>
			<point x="125" y="-27"/>
			<point x="125" y="-27"/>
			<point x="125" y="-27" type="curve"/>
			<point x="125" y="-53"/>
			<point x="74" y="-124"/>
			<point x="29" y="-136" type="curve"/>
			<point x="24" y="-149"/>
			<point x="25" y="-159"/>
			<point x="36" y="-167" type="curve"/>
			<point x="73" y="-161"/>
			<point x="117" y="-136"/>
			<point x="145" y="-108" type="curve" smooth="yes"/>
			<point x="173" y="-80"/>
			<point x="199" y="-31"/>
			<point x="199" y="4" type="curve" smooth="yes"/>
			<point x="199" y="86"/>
			<point x="166" y="127"/>
		</contour>
	</outline>
</glyph>
<glyph name="period" format="2">
	<unicode hex="002E"/>
	<advance width="244"/>
	<outline>
		<contour>
			<point x="49" y="58" type="curve" smooth="yes"/>
			<point x="49" y="20"/>
			<point x="81" y="-10"/>
			<point x="121" y="-10" type="curve" smooth="yes"/>
			<point x="161" y="-10"/>
			<point x="195" y="22"/>
			<point x="195" y="60" type="curve" smooth="yes"/>
			<point x="195" y="99"/>
			<point x="163" y="129"/>
			<point x="123" y="129" type="curve" smooth="yes"/>
			<point x="83" y="129"/>
			<point x="49" y="97"/>
		</contour>
	</outline>
</glyph>
<glyph name="slash" format="2">
	<unicode hex="002F"/>
	<advance width="316"/>
	<outline>
		<contour>
			<point x="302" y="682" type="line"/>
			<point x="239" y="682" type="line"/>
			<point x="2" y="-21" type="line"/>
			<point x="65" y="-21" type="line"/>
		</contour>
	</outline>
</glyph>
<glyph name="zero" format="2">
	<unicode hex="0030"/>
	<advance width="514"/>
	<outline>
		<contour>
			<point x="255" y="-10" type="curve" smooth="yes"/>
			<point x="390" y="-10"/>
			<point x="484" y="119"/>
			<point x="484" y="307" type="curve" smooth="yes"/>
			<point x="484" y="493"/>
			<point x="398" y="610"/>
			<point x="260" y="610" type="curve" smooth="yes"/>
			<point x="122" y="610"/>
			<point x="30" y="485"/>
			<point x="30" y="298" type="curve" smooth="yes"/>
			<point x="30" y="116"/>
			<point x="122" y="-10"/>
		</contour>
		<contour>
			<point x="260" y="568" type="curve" smooth="yes"/>
			<point x="310" y="568"/>
			<point x="342" y="473"/>
			<point x="342" y="327" type="curve" smooth="yes"/>
			<point x="342" y="138"/>
			<point x="311" y="32"/>
			<point x="256" y="32" type="curve" smooth="yes"/>
			<point x="201" y="32"/>
			<point x="173" y="119"/>
			<point x="173" y="287" type="curve" smooth="yes"/>
			<point x="173" y="473"/>
			<point x="202" y="568"/>
		</contour>
	</outline>
</glyph>
<glyph name="four" format="2">
	<unicode hex="0034"/>
	<advance width="514"/>
	<outline>
		<contour>
			<point x="483" y="209" type="curve" smooth="yes"/>
			<point x="385" y="209" type="line"/>
			<point x="385" y="523" type="line" smooth="yes"/>
			<point x="385" y="552"/>
			<point x="385" y="581"/>
			<point x="385" y="610" type="curve"/>
			<point x="385" y="610" type="line"/>
			<point x="349" y="610" type="line" smooth="yes"/>
			<point x="337" y="610"/>
			<point x="325" y="610"/>
			<point x="313" y="610" type="curve" smooth="yes"/>
			<point x="295" y="610" type="line"/>
			<point x="219" y="519"/>
			<point x="111" y="347"/>
			<point x="29" y="223" type="curve"/>
			<point x="27" y="219"/>
			<point x="22" y="213"/>
			<point x="22" y="210" type="curve" smooth="yes"/>
			<point x="22" y="202"/>
			<point x="44" y="177"/>
			<point x="51" y="169" type="curve"/>
			<point x="54" y="167"/>
			<point x="56" y="165"/>
			<point x="60" y="164" type="curve"/>
			<point x="65" y="163"/>
			<point x="72" y="162"/>
			<point x="84" y="162" type="curve" smooth="yes"/>
			<point x="261" y="162" type="line"/>
			<point x="261" y="122" type="line" smooth="yes"/>
			<point x="261" y="113"/>
			<point x="261" y="105"/>
			<point x="260" y="97" type="curve" smooth="yes"/>
			<point x="252" y="38"/>
			<point x="217" y="35"/>
			<point x="168" y="32" type="curve"/>
			<point x="158" y="26"/>
			<point x="158" y="4"/>
			<point x="168" y="-2" type="curve"/>
			<point x="250" y="-1"/>
			<point x="284" y="0"/>
			<point x="324" y="0" type="curve" smooth="yes"/>
			<point x="337" y="0" type="line" smooth="yes"/>
			<point x="372" y="0"/>
			<point x="405" y="-1"/>
			<point x="478" y="-2" type="curve"/>
			<point x="488" y="4"/>
			<point x="488" y="26"/>
			<point x="478" y="32" type="curve"/>
			<point x="435" y="34"/>
			<point x="403" y="37"/>
			<point x="390" y="78" type="curve"/>
			<point x="387" y="89"/>
			<point x="385" y="104"/>
			<point x="385" y="122" type="curve" smooth="yes"/>
			<point x="385" y="162" type="line"/>
			<point x="469" y="162" type="line" smooth="yes"/>
			<point x="483" y="162"/>
			<point x="498" y="181"/>
			<point x="498" y="193" type="curve" smooth="yes"/>
			<point x="498" y="203"/>
			<point x="494" y="209"/>
		</contour>
		<contour>
			<point x="261" y="501" type="curve"/>
			<point x="261" y="209" type="line"/>
			<point x="77" y="209" type="line"/>
			<point x="127" y="293"/>
			<point x="208" y="429"/>
		</contour>
	</outline>
</glyph>
<glyph name="five" format="2">
	<unicode hex="0035"/>
	<advance width="514"/>
	<outline>
		<contour>
			<point x="323" y="188" type="curve" smooth="yes"/>
			<point x="323" y="90"/>
			<point x="288" y="34"/>
			<point x="233" y="34" type="curve" smooth="yes"/>
			<point x="213" y="34"/>
			<point x="194" y="54"/>
			<point x="178" y="79" type="curve"/>
			<point x="175" y="83"/>
			<point x="172" y="87"/>
			<point x="169" y="91" type="curve"/>
			<point x="155" y="106"/>
			<point x="133" y="118"/>
			<point x="103" y="118" type="curve" smooth="yes"/>
			<point x="67" y="118"/>
			<point x="52" y="93"/>
			<point x="52" y="71" type="curve" smooth="yes"/>
			<point x="52" y="54"/>
			<point x="67" y="31"/>
			<point x="92" y="18" type="curve" smooth="yes"/>
			<point x="126" y="1"/>
			<point x="176" y="-8"/>
			<point x="221" y="-10" type="curve"/>
			<point x="227" y="-10"/>
			<point x="233" y="-10"/>
			<point x="239" y="-10" type="curve" smooth="yes"/>
			<point x="365" y="-10"/>
			<point x="450" y="88"/>
			<point x="458" y="200" type="curve"/>
			<point x="459" y="206"/>
			<point x="459" y="213"/>
			<point x="459" y="219" type="curve" smooth="yes"/>
			<point x="459" y="319"/>
			<point x="387" y="394"/>
			<point x="269" y="394" type="curve" smooth="yes"/>
			<point x="265" y="394"/>
			<point x="259" y="394"/>
			<point x="254" y="394" type="curve"/>
			<point x="221" y="392"/>
			<point x="172" y="386"/>
			<point x="151" y="381" type="curve"/>
			<point x="170" y="513" type="line"/>
			<point x="198" y="510"/>
			<point x="256" y="509"/>
			<point x="298" y="508" type="curve"/>
			<point x="304" y="508"/>
			<point x="310" y="508"/>
			<point x="315" y="508" type="curve" smooth="yes"/>
			<point x="351" y="508"/>
			<point x="369" y="510"/>
			<point x="430" y="514" type="curve"/>
			<point x="449" y="600" type="line"/>
			<point x="426" y="613" type="line"/>
			<point x="353" y="606"/>
			<point x="316" y="600"/>
			<point x="256" y="600" type="curve" smooth="yes"/>
			<point x="250" y="600"/>
			<point x="244" y="600"/>
			<point x="239" y="600" type="curve"/>
			<point x="205" y="602"/>
			<point x="175" y="607"/>
			<point x="126" y="610" type="curve"/>
			<point x="86" y="312" type="line"/>
			<point x="90" y="309"/>
			<point x="95" y="307"/>
			<point x="99" y="304" type="curve"/>
			<point x="163" y="328"/>
			<point x="185" y="336"/>
			<point x="223" y="338" type="curve"/>
			<point x="228" y="338"/>
			<point x="234" y="338"/>
			<point x="240" y="338" type="curve" smooth="yes"/>
			<point x="287" y="338"/>
			<point x="323" y="288"/>
		</contour>
	</outline>
</glyph>
<glyph name="six" format="2">
	<unicode hex="0036"/>
	<advance width="514"/>
	<outline>
		<contour>
			<point x="450" y="569" type="curve"/>
			<point x="453" y="581"/>
			<point x="452" y="600"/>
			<point x="444" y="610" type="curve"/>
			<point x="303" y="606"/>
			<point x="228" y="579"/>
			<point x="152" y="513" type="curve" smooth="yes"/>
			<point x="76" y="447"/>
			<point x="44" y="342"/>
			<point x="44" y="246" type="curve"/>
			<point x="44" y="246"/>
			<point x="44" y="246"/>
			<point x="44" y="246" type="curve"/>
			<point x="44" y="32"/>
			<point x="162" y="-10"/>
			<point x="263" y="-10" type="curve" smooth="yes"/>
			<point x="419" y="-10"/>
			<point x="477" y="116"/>
			<point x="477" y="204" type="curve" smooth="yes"/>
			<point x="477" y="253"/>
			<point x="434" y="365"/>
			<point x="286" y="365" type="curve" smooth="yes"/>
			<point x="278" y="365"/>
			<point x="271" y="364"/>
			<point x="264" y="363" type="curve" smooth="yes"/>
			<point x="234" y="359"/>
			<point x="206" y="348"/>
			<point x="176" y="330" type="curve"/>
			<point x="184" y="402"/>
			<point x="218" y="471"/>
			<point x="265" y="509" type="curve" smooth="yes"/>
			<point x="324" y="557"/>
			<point x="393" y="566"/>
		</contour>
		<contour>
			<point x="171" y="289" type="curve"/>
			<point x="209" y="313"/>
			<point x="230" y="315"/>
			<point x="248" y="315" type="curve" smooth="yes"/>
			<point x="315" y="315"/>
			<point x="343" y="246"/>
			<point x="343" y="186" type="curve"/>
			<point x="343" y="186"/>
			<point x="343" y="186"/>
			<point x="343" y="186" type="curve"/>
			<point x="343" y="78"/>
			<point x="311" y="29"/>
			<point x="275" y="29" type="curve" smooth="yes"/>
			<point x="228" y="29"/>
			<point x="177" y="63"/>
			<point x="171" y="211" type="curve"/>
			<point x="170" y="221"/>
			<point x="170" y="231"/>
			<point x="170" y="242" type="curve" smooth="yes"/>
			<point x="170" y="253"/>
			<point x="170" y="278"/>
		</contour>
	</outline>
</glyph>
<glyph name="seven" format="2">
	<unicode hex="0037"/>
	<advance width="514"/>
	<outline>
		<contour>
			<point x="184" y="498" type="curve" smooth="yes"/>
			<point x="379" y="498" type="line"/>
			<point x="313" y="362"/>
			<point x="199" y="144"/>
			<point x="121" y="0" type="curve"/>
			<point x="127" y="-12" type="line"/>
			<point x="229" y="-2" type="line"/>
			<point x="296" y="169"/>
			<point x="350" y="319"/>
			<point x="479" y="591" type="curve"/>
			<point x="473" y="600" type="line"/>
			<point x="445" y="600"/>
			<point x="417" y="600"/>
			<point x="389" y="600" type="curve" smooth="yes"/>
			<point x="138" y="600" type="line" smooth="yes"/>
			<point x="104" y="600"/>
			<point x="102" y="610"/>
			<point x="84" y="614" type="curve"/>
			<point x="81" y="614"/>
			<point x="80" y="614"/>
			<point x="80" y="611" type="curve"/>
			<point x="79" y="563"/>
			<point x="68" y="466"/>
			<point x="60" y="414" type="curve"/>
			<point x="73" y="410"/>
			<point x="83" y="409"/>
			<point x="95" y="411" type="curve"/>
			<point x="117" y="491"/>
			<point x="151" y="498"/>
		</contour>
	</outline>
</glyph>
<glyph name="eight" format="2">
	<unicode hex="0038"/>
	<advance width="514"/>
	<outline>
		<contour>
			<point x="451" y="482" type="curve" smooth="yes"/>
			<point x="451" y="562"/>
			<point x="383" y="610"/>
			<point x="272" y="610" type="curve" smooth="yes"/>
			<point x="145" y="610"/>
			<point x="65" y="550"/>
			<point x="65" y="456" type="curve" smooth="yes"/>
			<point x="65" y="401"/>
			<point x="91" y="366"/>
			<point x="161" y="330" type="curve" smooth="yes"/>
			<point x="182" y="319" type="line"/>
			<point x="80" y="269"/>
			<point name=".hr01" x="34" y="215"/>
			<point x="34" y="144" type="curve" smooth="yes"/>
			<point x="34" y="48"/>
			<point x="116" y="-10"/>
			<point x="250" y="-10" type="curve" smooth="yes"/>
			<point x="381" y="-10"/>
			<point x="480" y="67"/>
			<point x="480" y="169" type="curve" smooth="yes"/>
			<point x="480" y="228"/>
			<point x="448" y="282"/>
			<point x="396" y="314" type="curve"/>
			<point x="339" y="347" type="line"/>
			<point x="406" y="366"/>
			<point x="451" y="420"/>
		</contour>
		<contour>
			<point x="252" y="30" type="curve" smooth="yes"/>
			<point x="189" y="30"/>
			<point x="157" y="70"/>
			<point x="157" y="149" type="curve" smooth="yes"/>
			<point x="157" y="216"/>
			<point x="179" y="265"/>
			<point x="223" y="296" type="curve"/>
			<point x="277" y="267" type="line" smooth="yes"/>
			<point x="336" y="236"/>
			<point x="357" y="205"/>
			<point x="357" y="147" type="curve" smooth="yes"/>
			<point x="357" y="73"/>
			<point x="318" y="30"/>
		</contour>
		<contour>
			<point x="266" y="575" type="curve" smooth="yes"/>
			<point x="309" y="575"/>
			<point x="335" y="543"/>
			<point x="335" y="488" type="curve" smooth="yes"/>
			<point x="335" y="445"/>
			<point x="318" y="394"/>
			<point x="296" y="371" type="curve"/>
			<point x="246" y="397" type="line" smooth="yes"/>
			<point x="213" y="414"/>
			<point x="188" y="455"/>
			<point x="188" y="494" type="curve" smooth="yes"/>
			<point name=".hr02" x="188" y="540"/>
			<point x="221" y="575"/>
		</contour>
	</outline>
</glyph>
<glyph name="nine" format="2">
	<unicode hex="0039"/>
	<advance width="514"/>
	<outline>
		<contour>
			<point x="71" y="31" type="curve"/>
			<point x="68" y="19"/>
			<point x="69" y="0"/>
			<point x="77" y="-10" type="curve"/>
			<point x="307" y="-3"/>
			<point x="477" y="105"/>
			<point x="477" y="354" type="curve" smooth="yes"/>
			<point x="477" y="568"/>
			<point x="359" y="610"/>
			<point x="258" y="610" type="curve" smooth="yes"/>
			<point x="102" y="610"/>
			<point x="44" y="484"/>
			<point x="44" y="396" type="curve" smooth="yes"/>
			<point x="44" y="347"/>
			<point x="87" y="235"/>
			<point x="235" y="235" type="curve" smooth="yes"/>
			<point x="273" y="235"/>
			<point x="312" y="251"/>
			<point x="344" y="270" type="curve"/>
			<point x="326" y="110"/>
			<point x="224" y="39"/>
		</contour>
		<contour>
			<point x="350" y="311" type="curve"/>
			<point x="312" y="287"/>
			<point x="291" y="285"/>
			<point x="273" y="285" type="curve" smooth="yes"/>
			<point x="206" y="285"/>
			<point x="178" y="354"/>
			<point x="178" y="414" type="curve" smooth="yes"/>
			<point x="178" y="522"/>
			<point x="210" y="571"/>
			<point x="246" y="571" type="curve" smooth="yes"/>
			<point x="342" y="571"/>
			<point x="351" y="429"/>
			<point x="351" y="358" type="curve" smooth="yes"/>
			<point x="351" y="347"/>
			<point x="351" y="322"/>
		</contour>
	</outline>
</glyph>
<glyph name="less" format="2">
	<unicode hex="003C"/>
	<advance width="512"/>
	<outline>
		<contour>
			<point x="153" y="240" type="line"/>
			<point x="471" y="356" type="line"/>
			<point x="471" y="366.358"/>
			<point x="471" y="409.742"/>
			<point x="471" y="418" type="curve"/>
			<point x="42" y="262" type="line"/>
			<point x="42" y="253.598"/>
			<point x="42" y="225.641"/>
			<point x="42" y="218" type="curve"/>
			<point x="471" y="62" type="line"/>
			<point x="471" y="70.2582"/>
			<point x="471" y="113.642"/>
			<point x="471" y="124" type="curve"/>
		</contour>
	</outline>
</glyph>
<glyph name="equal" format="2">
	<unicode hex="003D"/>
	<advance width="551"/>
	<outline>
		<contour>
			<point x="493" y="323" type="curve"/>
			<point x="469" y="323"/>
			<point x="445" y="323"/>
			<point x="421" y="323" type="curve" smooth="yes"/>
			<point x="59" y="323" type="line"/>
			<point x="59" y="304"/>
			<point x="59" y="285"/>
			<point x="59" y="266" type="curve"/>
			<point x="83" y="266"/>
			<point x="107" y="266"/>
			<point x="131" y="266" type="curve" smooth="yes"/>
			<point x="493" y="266" type="line"/>
			<point x="493" y="285"/>
			<point x="493" y="304"/>
		</contour>
		<contour>
			<point x="493" y="198" type="curve"/>
			<point x="469" y="198"/>
			<point x="445" y="198"/>
			<point x="421" y="198" type="curve" smooth="yes"/>
			<point x="59" y="198" type="line"/>
			<point x="59" y="179"/>
			<point x="59" y="161"/>
			<point x="59" y="142" type="curve"/>
			<point x="83" y="142"/>
			<point x="107" y="142"/>
			<point x="131" y="142" type="curve" smooth="yes"/>
			<point x="493" y="142" type="line"/>
			<point x="493" y="161"/>
			<point x="493" y="179"/>
		</contour>
	</outline>
</glyph>
<glyph name="question" format="2">
	<unicode hex="003F"/>
	<advance width="430"/>
	<outline>
		<contour>
			<point x="127" y="570" type="curve" smooth="yes"/>
			<point x="127" y="598"/>
			<point x="162" y="622"/>
			<point x="206" y="622" type="curve" smooth="yes"/>
			<point x="262" y="622"/>
			<point x="286" y="570"/>
			<point x="286" y="512" type="curve"/>
			<point x="286" y="512"/>
			<point x="286" y="512"/>
			<point x="286" y="512" type="curve"/>
			<point x="286" y="467"/>
			<point x="270" y="433"/>
			<point x="241" y="403" type="curve" smooth="yes"/>
			<point x="238" y="400"/>
			<point x="235" y="397"/>
			<point x="231" y="394" type="curve"/>
			<point x="160" y="329"/>
			<point x="160" y="272"/>
			<point x="160" y="231" type="curve" smooth="yes"/>
			<point x="160" y="216" type="line" smooth="yes"/>
			<point x="160" y="205"/>
			<point x="162" y="197"/>
			<point x="166" y="191" type="curve"/>
			<point x="171" y="185"/>
			<point x="179" y="182"/>
			<point x="192" y="182" type="curve" smooth="yes"/>
			<point x="209" y="182"/>
			<point x="218" y="185"/>
			<point x="222" y="193" type="curve"/>
			<point x="224" y="199"/>
			<point x="225" y="206"/>
			<point x="225" y="216" type="curve" smooth="yes"/>
			<point x="225" y="229" type="line" smooth="yes"/>
			<point x="225" y="262"/>
			<point x="232" y="285"/>
			<point x="243" y="303" type="curve"/>
			<point x="255" y="324"/>
			<point x="273" y="337"/>
			<point x="288" y="348" type="curve" smooth="yes"/>
			<point x="338" y="385"/>
			<point x="401" y="431"/>
			<point x="401" y="505" type="curve" smooth="yes"/>
			<point x="401" y="597"/>
			<point x="330" y="658"/>
			<point x="216" y="658" type="curve" smooth="yes"/>
			<point x="155" y="658"/>
			<point x="109" y="644"/>
			<point x="79" y="619" type="curve" smooth="yes"/>
			<point x="45" y="591"/>
			<point x="26" y="568"/>
			<point x="26" y="533" type="curve" smooth="yes"/>
			<point x="26" y="500"/>
			<point x="50" y="481"/>
			<point x="72" y="476" type="curve" smooth="yes"/>
			<point x="76" y="475"/>
			<point x="80" y="475"/>
			<point x="83" y="475" type="curve" smooth="yes"/>
			<point x="113" y="475"/>
			<point name=".hr01" x="136" y="491"/>
			<point x="136" y="516" type="curve" smooth="yes"/>
			<point x="136" y="530"/>
			<point x="134" y="538"/>
			<point x="132" y="545" type="curve"/>
			<point x="129" y="553"/>
			<point name=".hr02" x="127" y="560"/>
		</contour>
		<contour>
			<point x="121" y="58" type="curve" smooth="yes"/>
			<point name=".hr03" x="121" y="20"/>
			<point x="153" y="-10"/>
			<point x="193" y="-10" type="curve" smooth="yes"/>
			<point x="233" y="-10"/>
			<point x="267" y="22"/>
			<point x="267" y="60" type="curve" smooth="yes"/>
			<point x="267" y="99"/>
			<point x="235" y="129"/>
			<point x="195" y="129" type="curve" smooth="yes"/>
			<point x="155" y="129"/>
			<point x="121" y="97"/>
		</contour>
	</outline>
</glyph>
<glyph name="B" format="2">
	<unicode hex="0042"/>
	<advance width="654"/>
	<outline>
		<contour>
			<point x="173" y="645" type="curve" smooth="yes"/>
			<point x="133" y="645"/>
			<point x="19" y="647"/>
			<point x="19" y="647" type="curve"/>
			<point x="9" y="641"/>
			<point x="9" y="619"/>
			<point x="19" y="613" type="curve"/>
			<point x="74" y="610"/>
			<point x="102" y="606"/>
			<point x="102" y="523" type="curve" smooth="yes"/>
			<point x="102" y="122" type="line" smooth="yes"/>
			<point x="102" y="39"/>
			<point x="74" y="35"/>
			<point x="19" y="32" type="curve"/>
			<point x="9" y="26"/>
			<point x="9" y="4"/>
			<point x="19" y="-2" type="curve"/>
			<point x="19" y="-2"/>
			<point x="133" y="0"/>
			<point x="173" y="0" type="curve" smooth="yes"/>
			<point x="213" y="0"/>
			<point x="277" y="-2"/>
			<point x="337" y="-2" type="curve" smooth="yes"/>
			<point x="542" y="-2"/>
			<point x="608" y="84"/>
			<point x="608" y="186" type="curve" smooth="yes"/>
			<point x="608" y="274"/>
			<point x="564" y="331"/>
			<point x="458" y="359" type="curve"/>
			<point x="458" y="361" type="line"/>
			<point x="512" y="385"/>
			<point name=".hr01" x="554" y="440"/>
			<point x="554" y="491" type="curve" smooth="yes"/>
			<point x="554" y="560"/>
			<point x="517" y="647"/>
			<point x="315" y="647" type="curve" smooth="yes"/>
			<point x="265" y="647"/>
			<point x="205" y="645"/>
		</contour>
		<contour>
			<point x="242" y="334" type="line"/>
			<point x="313" y="334" type="line" smooth="yes"/>
			<point x="416" y="334"/>
			<point x="461" y="273"/>
			<point name=".hr02" x="461" y="187" type="curve" smooth="yes"/>
			<point x="461" y="127"/>
			<point x="440" y="40"/>
			<point x="308" y="40" type="curve" smooth="yes"/>
			<point x="248" y="40"/>
			<point x="242" y="55"/>
			<point x="242" y="84" type="curve" smooth="yes"/>
		</contour>
		<contour>
			<point x="242" y="562" type="line" smooth="yes"/>
			<point x="242" y="591"/>
			<point x="247" y="605"/>
			<point x="312" y="605" type="curve" smooth="yes"/>
			<point x="358" y="605"/>
			<point x="414" y="587"/>
			<point name=".hr03" x="414" y="489" type="curve" smooth="yes"/>
			<point x="414" y="409"/>
			<point x="369" y="376"/>
			<point x="298" y="376" type="curve" smooth="yes"/>
			<point x="242" y="376" type="line"/>
		</contour>
	</outline>
	<anchor name="m.uni0302" x="267" y="850"/>
	<anchor name="m.uni0316_2" x="268" y="-110"/>
	<anchor name="m.uni031A_3" x="509" y="732"/>
	<anchor name="t.uni0302" x="267" y="740"/>
</glyph>
<glyph name="C" format="2">
	<unicode hex="0043"/>
	<advance width="706"/>
	<outline>
		<contour>
			<point x="397" y="-10" type="curve" smooth="yes"/>
			<point x="494" y="-10"/>
			<point x="583" y="36"/>
			<point x="651" y="125" type="curve"/>
			<point x="646" y="134"/>
			<point x="629" y="146"/>
			<point x="618" y="146" type="curve"/>
			<point x="547" y="68"/>
			<point x="466" y="42"/>
			<point x="396" y="42" type="curve" smooth="yes"/>
			<point x="280" y="42"/>
			<point x="188" y="178"/>
			<point x="188" y="334" type="curve" smooth="yes"/>
			<point x="188" y="489"/>
			<point x="268" y="617"/>
			<point x="387" y="617" type="curve" smooth="yes"/>
			<point x="525" y="617"/>
			<point x="570" y="539"/>
			<point x="596" y="453" type="curve"/>
			<point x="608" y="449"/>
			<point x="628" y="452"/>
			<point x="639" y="458" type="curve"/>
			<point x="634" y="510"/>
			<point x="626" y="558"/>
			<point x="617" y="613" type="curve"/>
			<point x="566" y="618"/>
			<point x="521" y="658"/>
			<point x="398" y="658" type="curve" smooth="yes"/>
			<point x="202" y="658"/>
			<point x="37" y="535"/>
			<point x="37" y="315" type="curve" smooth="yes"/>
			<point x="37" y="91"/>
			<point x="192" y="-10"/>
		</contour>
	</outline>
	<anchor name="t.uni0302" x="340" y="740"/>
	<anchor name="m.uni0316_2" x="363" y="-110"/>
	<anchor name="m.uni031A_3" x="609" y="732"/>
</glyph>
<glyph name="F" format="2">
	<unicode hex="0046"/>
	<advance width="545"/>
	<outline>
		<contour>
			<point x="19" y="-2" type="curve"/>
			<point x="59" y="-1"/>
			<point x="133" y="0"/>
			<point x="173" y="0" type="curve" smooth="yes"/>
			<point x="213" y="0"/>
			<point x="295" y="-1"/>
			<point x="335" y="-2" type="curve"/>
			<point x="345" y="4"/>
			<point x="345" y="26"/>
			<point x="335" y="32" type="curve"/>
			<point x="280" y="35"/>
			<point x="242" y="39"/>
			<point x="242" y="122" type="curve" smooth="yes"/>
			<point x="242" y="299" type="line"/>
			<point x="323" y="299" type="line" smooth="yes"/>
			<point x="392" y="299"/>
			<point x="411" y="280"/>
			<point x="414" y="235" type="curve"/>
			<point x="420" y="229"/>
			<point x="451" y="229"/>
			<point x="457" y="235" type="curve"/>
			<point x="455" y="270"/>
			<point x="455" y="300"/>
			<point x="455" y="323" type="curve" smooth="yes"/>
			<point x="455" y="346"/>
			<point x="456" y="380"/>
			<point x="457" y="409" type="curve"/>
			<point x="451" y="415"/>
			<point x="420" y="415"/>
			<point x="414" y="409" type="curve"/>
			<point x="411" y="354"/>
			<point x="390" y="345"/>
			<point x="323" y="345" type="curve" smooth="yes"/>
			<point x="242" y="345" type="line"/>
			<point x="242" y="554" type="line" smooth="yes"/>
			<point x="242" y="578"/>
			<point x="259" y="603"/>
			<point x="283" y="603" type="curve" smooth="yes"/>
			<point x="373" y="603" type="line" smooth="yes"/>
			<point x="448" y="603"/>
			<point x="474" y="560"/>
			<point x="496" y="491" type="curve"/>
			<point x="508" y="489"/>
			<point x="521" y="491"/>
			<point x="531" y="496" type="curve"/>
			<point x="528" y="540"/>
			<point x="520" y="638"/>
			<point x="519" y="646" type="curve"/>
			<point x="519" y="648"/>
			<point x="518" y="649"/>
			<point x="515" y="649" type="curve"/>
			<point x="498" y="646"/>
			<point x="490" y="645"/>
			<point x="466" y="645" type="curve" smooth="yes"/>
			<point x="169" y="645" type="line"/>
			<point x="169" y="645"/>
			<point x="65" y="646"/>
			<point x="15" y="647" type="curve"/>
			<point x="9" y="641"/>
			<point x="9" y="619"/>
			<point x="15" y="613" type="curve"/>
			<point x="85" y="610"/>
			<point x="102" y="605"/>
			<point x="102" y="522" type="curve" smooth="yes"/>
			<point x="102" y="122" type="line" smooth="yes"/>
			<point x="102" y="39"/>
			<point x="74" y="35"/>
			<point x="19" y="32" type="curve"/>
			<point x="9" y="26"/>
			<point x="9" y="4"/>
		</contour>
	</outline>
	<anchor name="m.uni0302" x="281" y="850"/>
	<anchor name="m.uni0316_2" x="206" y="-110"/>
	<anchor name="m.uni031A_3" x="504" y="732"/>
	<anchor name="t.uni0302" x="268" y="740"/>
</glyph>
<glyph name="H" format="2">
	<unicode hex="0048"/>
	<advance width="817"/>
	<outline>
		<contour>
			<point x="31" y="-2" type="curve"/>
			<point x="71" y="-1"/>
			<point x="145" y="0"/>
			<point x="185" y="0" type="curve" smooth="yes"/>
			<point x="225" y="0"/>
			<point x="297" y="-1"/>
			<point x="337" y="-2" type="curve"/>
			<point x="347" y="4"/>
			<point x="347" y="26"/>
			<point x="337" y="32" type="curve"/>
			<point x="282" y="35"/>
			<point x="254" y="39"/>
			<point x="254" y="122" type="curve" smooth="yes"/>
			<point x="254" y="319" type="line"/>
			<point x="564" y="319" type="line"/>
			<point x="564" y="122" type="line" smooth="yes"/>
			<point x="564" y="39"/>
			<point x="536" y="35"/>
			<point x="481" y="32" type="curve"/>
			<point x="471" y="26"/>
			<point x="471" y="4"/>
			<point x="481" y="-2" type="curve"/>
			<point x="521" y="-1"/>
			<point x="595" y="0"/>
			<point x="635" y="0" type="curve" smooth="yes"/>
			<point x="675" y="0"/>
			<point x="747" y="-1"/>
			<point x="787" y="-2" type="curve"/>
			<point x="797" y="4"/>
			<point x="797" y="26"/>
			<point x="787" y="32" type="curve"/>
			<point x="732" y="35"/>
			<point x="704" y="39"/>
			<point x="704" y="122" type="curve" smooth="yes"/>
			<point x="704" y="523" type="line" smooth="yes"/>
			<point x="704" y="606"/>
			<point x="732" y="610"/>
			<point x="787" y="613" type="curve"/>
			<point x="797" y="619"/>
			<point x="797" y="641"/>
			<point x="787" y="647" type="curve"/>
			<point x="747" y="646"/>
			<point x="675" y="645"/>
			<point x="635" y="645" type="curve" smooth="yes"/>
			<point x="595" y="645"/>
			<point x="521" y="646"/>
			<point x="481" y="647" type="curve"/>
			<point x="471" y="641"/>
			<point x="471" y="619"/>
			<point x="481" y="613" type="curve"/>
			<point x="536" y="610"/>
			<point x="564" y="606"/>
			<point x="564" y="523" type="curve" smooth="yes"/>
			<point x="564" y="367" type="line"/>
			<point x="254" y="367" type="line"/>
			<point x="254" y="523" type="line" smooth="yes"/>
			<point x="254" y="606"/>
			<point x="282" y="610"/>
			<point x="337" y="613" type="curve"/>
			<point x="347" y="619"/>
			<point x="347" y="641"/>
			<point x="337" y="647" type="curve"/>
			<point x="297" y="646"/>
			<point x="225" y="645"/>
			<point x="185" y="645" type="curve" smooth="yes"/>
			<point x="145" y="645"/>
			<point x="71" y="646"/>
			<point x="31" y="647" type="curve"/>
			<point x="21" y="641"/>
			<point x="21" y="619"/>
			<point x="31" y="613" type="curve"/>
			<point x="86" y="610"/>
			<point x="114" y="606"/>
			<point x="114" y="523" type="curve" smooth="yes"/>
			<point x="114" y="122" type="line" smooth="yes"/>
			<point x="114" y="39"/>
			<point x="86" y="35"/>
			<point x="31" y="32" type="curve"/>
			<point x="21" y="26"/>
			<point x="21" y="4"/>
		</contour>
	</outline>
	<anchor name="t.uni0302" x="382" y="740"/>
	<anchor name="m.uni0316_2" x="409" y="-110"/>
	<anchor name="m.uni031A_3" x="729" y="732"/>
</glyph>
<glyph name="I" format="2">
	<unicode hex="0049"/>
	<advance width="367"/>
	<outline>
		<contour>
			<point x="31" y="-2" type="curve"/>
			<point x="71" y="-1"/>
			<point x="145" y="0"/>
			<point x="185" y="0" type="curve" smooth="yes"/>
			<point x="225" y="0"/>
			<point x="297" y="-1"/>
			<point x="337" y="-2" type="curve"/>
			<point x="347" y="4"/>
			<point x="347" y="26"/>
			<point x="337" y="32" type="curve"/>
			<point x="282" y="35"/>
			<point x="254" y="39"/>
			<point x="254" y="122" type="curve" smooth="yes"/>
			<point x="254" y="523" type="line" smooth="yes"/>
			<point x="254" y="606"/>
			<point x="282" y="610"/>
			<point x="337" y="613" type="curve"/>
			<point x="347" y="619"/>
			<point x="347" y="641"/>
			<point x="337" y="647" type="curve"/>
			<point x="297" y="646"/>
			<point x="225" y="645"/>
			<point x="185" y="645" type="curve" smooth="yes"/>
			<point x="145" y="645"/>
			<point x="71" y="646"/>
			<point x="31" y="647" type="curve"/>
			<point x="21" y="641"/>
			<point x="21" y="619"/>
			<point x="31" y="613" type="curve"/>
			<point x="86" y="610"/>
			<point x="114" y="606"/>
			<point x="114" y="523" type="curve" smooth="yes"/>
			<point x="114" y="122" type="line" smooth="yes"/>
			<point x="114" y="39"/>
			<point x="86" y="35"/>
			<point x="31" y="32" type="curve"/>
			<point x="21" y="26"/>
			<point x="21" y="4"/>
		</contour>
	</outline>
	<anchor name="t.uni0302" x="184" y="740"/>
	<anchor name="m.uni0316_2" x="147" y="-110"/>
</glyph>
<glyph name="J" format="2">
	<unicode hex="004A"/>
	<advance width="373"/>
	<outline>
		<contour>
			<point x="281" y="522" type="line" smooth="yes"/>
			<point x="281" y="605"/>
			<point x="298" y="610"/>
			<point x="358" y="613" type="curve"/>
			<point x="364" y="619"/>
			<point x="364" y="641"/>
			<point x="358" y="647" type="curve"/>
			<point x="309" y="646"/>
			<point x="268" y="645"/>
			<point x="210" y="645" type="curve" smooth="yes"/>
			<point x="145" y="645"/>
			<point x="94" y="646"/>
			<point x="44" y="647" type="curve"/>
			<point x="38" y="641"/>
			<point x="38" y="619"/>
			<point x="44" y="613" type="curve"/>
			<point x="124" y="610"/>
			<point x="141" y="605"/>
			<point x="141" y="522" type="curve" smooth="yes"/>
			<point x="141" y="81" type="line" smooth="yes"/>
			<point x="141" y="-99"/>
			<point x="135" y="-128"/>
			<point x="92" y="-128" type="curve" smooth="yes"/>
			<point x="74" y="-128"/>
			<point x="56" y="-118"/>
			<point x="46" y="-105" type="curve" smooth="yes"/>
			<point x="33" y="-88"/>
			<point x="28" y="-60"/>
			<point x="-12" y="-60" type="curve" smooth="yes"/>
			<point x="-30" y="-60"/>
			<point x="-70" y="-87"/>
			<point x="-70" y="-116" type="curve" smooth="yes"/>
			<point x="-70" y="-163"/>
			<point x="-1" y="-187"/>
			<point x="28" y="-187" type="curve" smooth="yes"/>
			<point x="87" y="-187"/>
			<point x="138" y="-164"/>
			<point x="179" y="-129" type="curve" smooth="yes"/>
			<point x="223" y="-92"/>
			<point x="281" y="-40"/>
			<point x="281" y="103" type="curve" smooth="yes"/>
		</contour>
	</outline>
	<anchor name="t.uni0302" x="204" y="740"/>
</glyph>
<glyph name="K" format="2">
	<unicode hex="004B"/>
	<advance width="736"/>
	<outline>
		<contour>
			<point x="25" y="-2" type="curve"/>
			<point x="65" y="-1"/>
			<point x="139" y="0"/>
			<point x="179" y="0" type="curve" smooth="yes"/>
			<point x="219" y="0"/>
			<point x="291" y="-1"/>
			<point x="331" y="-2" type="curve"/>
			<point x="341" y="4"/>
			<point x="341" y="26"/>
			<point x="331" y="32" type="curve"/>
			<point x="276" y="35"/>
			<point x="248" y="39"/>
			<point x="248" y="122" type="curve" smooth="yes"/>
			<point x="248" y="523" type="line" smooth="yes"/>
			<point x="248" y="606"/>
			<point x="276" y="610"/>
			<point x="331" y="613" type="curve"/>
			<point x="341" y="619"/>
			<point x="341" y="641"/>
			<point x="331" y="647" type="curve"/>
			<point x="291" y="646"/>
			<point x="219" y="645"/>
			<point x="179" y="645" type="curve" smooth="yes"/>
			<point x="139" y="645"/>
			<point x="65" y="646"/>
			<point x="25" y="647" type="curve"/>
			<point x="15" y="641"/>
			<point x="15" y="619"/>
			<point x="25" y="613" type="curve"/>
			<point x="80" y="610"/>
			<point x="108" y="606"/>
			<point x="108" y="523" type="curve" smooth="yes"/>
			<point x="108" y="122" type="line" smooth="yes"/>
			<point x="108" y="39"/>
			<point x="80" y="35"/>
			<point x="25" y="32" type="curve"/>
			<point x="15" y="26"/>
			<point x="15" y="4"/>
		</contour>
		<contour>
			<point x="234" y="321" type="line"/>
			<point x="261" y="321"/>
			<point x="287" y="305"/>
			<point x="313" y="271" type="curve" smooth="yes"/>
			<point x="464" y="74" type="line" smooth="yes"/>
			<point x="484" y="48"/>
			<point x="498" y="20"/>
			<point x="500" y="4" type="curve"/>
			<point x="500" y="1"/>
			<point x="501" y="-2"/>
			<point x="505" y="-2" type="curve"/>
			<point x="525" y="-1"/>
			<point x="578" y="0"/>
			<point x="608" y="0" type="curve" smooth="yes"/>
			<point x="647" y="0"/>
			<point x="687" y="-1"/>
			<point x="726" y="-2" type="curve"/>
			<point x="732" y="4"/>
			<point x="732" y="26"/>
			<point x="726" y="32" type="curve"/>
			<point x="696" y="36"/>
			<point x="674" y="44"/>
			<point x="648" y="74" type="curve" smooth="yes"/>
			<point x="429" y="333" type="line" smooth="yes"/>
			<point x="412" y="353"/>
			<point x="399" y="370"/>
			<point x="399" y="378" type="curve" smooth="yes"/>
			<point x="399" y="385"/>
			<point x="400" y="397"/>
			<point x="411" y="407" type="curve" smooth="yes"/>
			<point x="520" y="504" type="line" smooth="yes"/>
			<point x="579" y="556"/>
			<point x="635" y="605"/>
			<point x="694" y="613" type="curve"/>
			<point x="700" y="619"/>
			<point x="700" y="641"/>
			<point x="694" y="647" type="curve"/>
			<point x="669" y="646"/>
			<point x="634" y="645"/>
			<point x="599" y="645" type="curve" smooth="yes"/>
			<point x="559" y="645"/>
			<point x="514" y="646"/>
			<point x="476" y="647" type="curve"/>
			<point x="470" y="641"/>
			<point x="470" y="619"/>
			<point x="476" y="613" type="curve"/>
			<point x="535" y="607"/>
			<point x="531" y="576"/>
			<point x="481" y="525" type="curve" smooth="yes"/>
			<point x="450" y="493"/>
			<point x="374" y="430"/>
			<point x="374" y="430" type="curve"/>
			<point x="304" y="367"/>
			<point x="261" y="339"/>
			<point x="234" y="339" type="curve"/>
		</contour>
	</outline>
	<anchor name="m.uni0302" x="330" y="850"/>
	<anchor name="m.uni0316_2" x="336" y="-110"/>
	<anchor name="m.uni031A_3" x="643" y="732"/>
	<anchor name="t.uni0302" x="354" y="740"/>
</glyph>
<glyph name="L" format="2">
	<unicode hex="004C"/>
	<advance width="577"/>
	<outline>
		<contour>
			<point x="31" y="-2" type="curve"/>
			<point x="43" y="-2"/>
			<point x="146" y="0"/>
			<point x="185" y="0" type="curve" smooth="yes"/>
			<point x="408" y="0" type="line" smooth="yes"/>
			<point x="437" y="0"/>
			<point x="519" y="-2"/>
			<point x="528" y="-2" type="curve"/>
			<point x="538" y="48"/>
			<point x="548" y="113"/>
			<point x="554" y="165" type="curve"/>
			<point x="544" y="170"/>
			<point x="523" y="172"/>
			<point x="511" y="170" type="curve"/>
			<point x="491" y="98"/>
			<point x="454" y="42"/>
			<point x="349" y="42" type="curve" smooth="yes"/>
			<point x="289" y="42" type="line" smooth="yes"/>
			<point x="268" y="42"/>
			<point x="254" y="61"/>
			<point x="254" y="121" type="curve" smooth="yes"/>
			<point x="254" y="523" type="line" smooth="yes"/>
			<point x="254" y="606"/>
			<point x="282" y="610"/>
			<point x="337" y="613" type="curve"/>
			<point x="347" y="619"/>
			<point x="347" y="641"/>
			<point x="337" y="647" type="curve"/>
			<point x="255" y="646"/>
			<point x="225" y="645"/>
			<point x="185" y="645" type="curve" smooth="yes"/>
			<point x="145" y="645"/>
			<point x="42" y="647"/>
			<point x="31" y="647" type="curve"/>
			<point x="21" y="641"/>
			<point x="21" y="619"/>
			<point x="31" y="613" type="curve"/>
			<point x="86" y="610"/>
			<point x="114" y="606"/>
			<point x="114" y="523" type="curve" smooth="yes"/>
			<point x="114" y="122" type="line" smooth="yes"/>
			<point x="114" y="39"/>
			<point x="86" y="35"/>
			<point x="31" y="32" type="curve"/>
			<point x="21" y="26"/>
			<point x="21" y="4"/>
		</contour>
	</outline>
	<anchor name="m.uni0302" x="149" y="850"/>
	<anchor name="m.uni0316_2" x="260" y="-110"/>
	<anchor name="m.uni031A_3" x="469" y="732"/>
	<anchor name="t.uni0302" x="177" y="740"/>
</glyph>
<glyph name="R" format="2">
	<unicode hex="0052"/>
	<advance width="716"/>
	<outline>
		<contour>
			<point x="31" y="-2" type="curve"/>
			<point x="71" y="-1"/>
			<point x="145" y="0"/>
			<point x="185" y="0" type="curve" smooth="yes"/>
			<point x="225" y="0"/>
			<point x="297" y="-1"/>
			<point x="337" y="-2" type="curve"/>
			<point x="347" y="4"/>
			<point x="347" y="26"/>
			<point name=".hr01" x="337" y="32" type="curve"/>
			<point x="282" y="35"/>
			<point x="254" y="39"/>
			<point x="254" y="122" type="curve" smooth="yes"/>
			<point x="254" y="283" type="line"/>
			<point x="333" y="283"/>
			<point x="342" y="276"/>
			<point x="356" y="253" type="curve"/>
			<point x="473" y="79" type="line" smooth="yes"/>
			<point x="504" y="34"/>
			<point x="545" y="-10"/>
			<point x="605" y="-10" type="curve" smooth="yes"/>
			<point x="645" y="-10"/>
			<point x="697" y="-7"/>
			<point name=".hr02" x="707" y="-2" type="curve"/>
			<point x="711" y="5"/>
			<point x="710" y="24"/>
			<point name=".hr03" x="706" y="32" type="curve"/>
			<point x="661" y="32"/>
			<point x="638" y="56"/>
			<point x="610" y="98" type="curve" smooth="yes"/>
			<point x="474" y="308" type="line"/>
			<point x="528" y="330"/>
			<point x="606" y="382"/>
			<point x="606" y="484" type="curve" smooth="yes"/>
			<point x="606" y="625"/>
			<point x="475" y="654"/>
			<point x="362" y="654" type="curve" smooth="yes"/>
			<point x="340" y="654"/>
			<point x="254" y="643"/>
			<point x="175" y="641" type="curve" smooth="yes"/>
			<point x="110" y="639"/>
			<point name=".hr04" x="49" y="647"/>
			<point x="31" y="647" type="curve"/>
			<point x="21" y="641"/>
			<point x="21" y="619"/>
			<point name=".hr05" x="31" y="613" type="curve"/>
			<point x="86" y="610"/>
			<point x="114" y="606"/>
			<point x="114" y="523" type="curve" smooth="yes"/>
			<point x="114" y="122" type="line" smooth="yes"/>
			<point x="114" y="39"/>
			<point x="86" y="35"/>
			<point x="31" y="32" type="curve"/>
			<point x="21" y="26"/>
			<point x="21" y="4"/>
		</contour>
		<contour>
			<point name=".hr06" x="254" y="325" type="line"/>
			<point x="254" y="524" type="line" smooth="yes"/>
			<point x="254" y="592"/>
			<point x="277" y="613"/>
			<point x="330" y="613" type="curve" smooth="yes"/>
			<point x="388" y="613"/>
			<point x="455" y="589"/>
			<point x="455" y="467" type="curve" smooth="yes"/>
			<point x="455" y="344"/>
			<point x="381" y="325"/>
			<point x="297" y="325" type="curve" smooth="yes"/>
		</contour>
	</outline>
	<anchor name="m.uni0302" x="319" y="850"/>
	<anchor name="m.uni0316_2" x="308" y="-110"/>
	<anchor name="m.uni031A_3" x="559" y="732"/>
	<anchor name="t.uni0302" x="305" y="740"/>
	<guideline x="0" y="816" angle="0"/>
</glyph>
<glyph name="V" format="2">
	<unicode hex="0056"/>
	<advance width="700"/>
	<outline>
		<contour>
			<point x="314" y="11" type="line" smooth="yes"/>
			<point x="321" y="-6"/>
			<point x="333" y="-12"/>
			<point x="347" y="-12" type="curve" smooth="yes"/>
			<point x="361" y="-12"/>
			<point x="374" y="-7"/>
			<point x="381" y="11" type="curve" smooth="yes"/>
			<point x="594" y="543" type="line" smooth="yes"/>
			<point x="618" y="603"/>
			<point x="650" y="610"/>
			<point x="694" y="613" type="curve"/>
			<point x="700" y="619"/>
			<point x="700" y="641"/>
			<point x="694" y="647" type="curve"/>
			<point x="664" y="646"/>
			<point x="632" y="645"/>
			<point x="600" y="645" type="curve" smooth="yes"/>
			<point x="559" y="645"/>
			<point x="504" y="646"/>
			<point x="467" y="647" type="curve"/>
			<point x="461" y="641"/>
			<point x="461" y="619"/>
			<point x="467" y="613" type="curve"/>
			<point x="505" y="610"/>
			<point x="551" y="604"/>
			<point x="536" y="566" type="curve" smooth="yes"/>
			<point x="383" y="174" type="line"/>
			<point x="380" y="174" type="line"/>
			<point x="242" y="573" type="line" smooth="yes"/>
			<point x="231" y="606"/>
			<point x="268" y="610"/>
			<point x="316" y="613" type="curve"/>
			<point x="322" y="619"/>
			<point x="322" y="641"/>
			<point x="316" y="647" type="curve"/>
			<point x="279" y="646"/>
			<point x="179" y="645"/>
			<point x="140" y="645" type="curve" smooth="yes"/>
			<point x="99" y="645"/>
			<point x="43" y="646"/>
			<point x="6" y="647" type="curve"/>
			<point x="0" y="641"/>
			<point x="0" y="619"/>
			<point x="6" y="613" type="curve"/>
			<point x="45" y="609"/>
			<point x="78" y="604"/>
			<point x="96" y="559" type="curve" smooth="yes"/>
		</contour>
	</outline>
	<anchor name="m.uni0302" x="376" y="850"/>
	<anchor name="m.uni0316_2" x="348" y="-110"/>
	<anchor name="m.uni031A_3" x="679" y="732"/>
	<anchor name="t.uni0302" x="365" y="740"/>
</glyph>
<glyph name="W" format="2">
	<unicode hex="0057"/>
	<advance width="1028"/>
	<outline>
		<contour>
			<point x="658" y="11" type="line" smooth="yes"/>
			<point x="665" y="-8"/>
			<point x="676" y="-12"/>
			<point x="691" y="-12" type="curve" smooth="yes"/>
			<point x="704" y="-12"/>
			<point x="718" y="-7"/>
			<point x="725" y="11" type="curve" smooth="yes"/>
			<point x="913" y="523" type="line" smooth="yes"/>
			<point x="934" y="582"/>
			<point x="974" y="610"/>
			<point x="1018" y="613" type="curve"/>
			<point x="1024" y="619"/>
			<point x="1024" y="641"/>
			<point x="1018" y="647" type="curve"/>
			<point x="985" y="646"/>
			<point x="951" y="645"/>
			<point x="916" y="645" type="curve" smooth="yes"/>
			<point x="875" y="645"/>
			<point x="828" y="646"/>
			<point x="791" y="647" type="curve"/>
			<point x="785" y="641"/>
			<point x="785" y="619"/>
			<point x="791" y="613" type="curve"/>
			<point x="848" y="604"/>
			<point x="867" y="583"/>
			<point x="855" y="546" type="curve" smooth="yes"/>
			<point x="730" y="174" type="line"/>
			<point x="724" y="175" type="line"/>
			<point x="589" y="573" type="line" smooth="yes"/>
			<point x="578" y="606"/>
			<point x="615" y="610"/>
			<point x="663" y="613" type="curve"/>
			<point x="669" y="619"/>
			<point x="669" y="641"/>
			<point x="663" y="647" type="curve"/>
			<point x="626" y="646"/>
			<point x="526" y="645"/>
			<point x="487" y="645" type="curve" smooth="yes"/>
			<point x="446" y="645"/>
			<point x="390" y="646"/>
			<point x="353" y="647" type="curve"/>
			<point x="347" y="641"/>
			<point x="347" y="619"/>
			<point x="353" y="613" type="curve"/>
			<point x="392" y="609"/>
			<point x="426" y="601"/>
			<point x="443" y="559" type="curve" smooth="yes"/>
		</contour>
		<contour>
			<point x="288" y="11" type="line" smooth="yes"/>
			<point x="295" y="-10"/>
			<point x="310" y="-12"/>
			<point x="321" y="-12" type="curve" smooth="yes"/>
			<point x="331" y="-12"/>
			<point x="347" y="-10"/>
			<point x="355" y="11" type="curve" smooth="yes"/>
			<point x="508" y="420" type="line"/>
			<point x="476" y="503" type="line"/>
			<point x="365" y="184" type="line"/>
			<point x="362" y="185" type="line"/>
			<point x="246" y="573" type="line" smooth="yes"/>
			<point x="236" y="606"/>
			<point x="272" y="610"/>
			<point x="320" y="613" type="curve"/>
			<point x="326" y="619"/>
			<point x="326" y="641"/>
			<point x="320" y="647" type="curve"/>
			<point x="283" y="646"/>
			<point x="183" y="645"/>
			<point x="144" y="645" type="curve" smooth="yes"/>
			<point x="103" y="645"/>
			<point x="47" y="646"/>
			<point x="10" y="647" type="curve"/>
			<point x="4" y="641"/>
			<point x="4" y="619"/>
			<point x="10" y="613" type="curve"/>
			<point x="49" y="609"/>
			<point x="85" y="602"/>
			<point x="100" y="559" type="curve" smooth="yes"/>
		</contour>
	</outline>
	<anchor name="m.uni0302" x="540" y="850"/>
	<anchor name="m.uni0316_2" x="495" y="-110"/>
	<anchor name="m.uni031A_3" x="979" y="732"/>
	<anchor name="t.uni0302" x="479" y="740"/>
</glyph>
<glyph name="X" format="2">
	<unicode hex="0058"/>
	<advance width="718"/>
	<outline>
		<contour>
			<point x="410" y="-1" type="curve"/>
			<point x="450" y="0"/>
			<point x="526" y="1"/>
			<point x="566" y="1" type="curve" smooth="yes"/>
			<point x="605" y="1"/>
			<point x="678" y="0"/>
			<point x="708" y="-1" type="curve"/>
			<point x="714" y="5"/>
			<point x="713" y="27"/>
			<point x="707" y="33" type="curve"/>
			<point x="665" y="36"/>
			<point x="639" y="45"/>
			<point x="602" y="99" type="curve" smooth="yes"/>
			<point x="407" y="382" type="line"/>
			<point x="301" y="557" type="line" smooth="yes"/>
			<point x="279" y="594"/>
			<point x="280" y="610"/>
			<point x="336" y="613" type="curve"/>
			<point x="342" y="619"/>
			<point x="342" y="641"/>
			<point x="336" y="647" type="curve"/>
			<point x="296" y="646"/>
			<point x="229" y="645"/>
			<point x="189" y="645" type="curve" smooth="yes"/>
			<point x="150" y="645"/>
			<point x="64" y="646"/>
			<point x="34" y="647" type="curve"/>
			<point x="28" y="641"/>
			<point x="29" y="619"/>
			<point x="35" y="613" type="curve"/>
			<point x="77" y="610"/>
			<point x="96" y="600"/>
			<point x="134" y="547" type="curve" smooth="yes"/>
			<point x="313" y="295" type="line"/>
			<point x="434" y="89" type="line"/>
			<point x="459" y="54"/>
			<point x="466" y="36"/>
			<point x="410" y="33" type="curve"/>
			<point x="404" y="27"/>
			<point x="404" y="5"/>
		</contour>
		<contour>
			<point x="10" y="-1" type="curve"/>
			<point x="40" y="0"/>
			<point x="98" y="1"/>
			<point x="121" y="1" type="curve" smooth="yes"/>
			<point x="144" y="1"/>
			<point x="203" y="0"/>
			<point x="243" y="-1" type="curve"/>
			<point x="249" y="5"/>
			<point x="249" y="27"/>
			<point x="243" y="33" type="curve"/>
			<point x="199" y="36"/>
			<point x="180" y="54"/>
			<point x="199" y="82" type="curve" smooth="yes"/>
			<point x="350" y="311" type="line"/>
			<point x="325" y="347" type="line"/>
			<point x="118" y="81" type="line" smooth="yes"/>
			<point x="90" y="45"/>
			<point x="55" y="37"/>
			<point x="10" y="33" type="curve"/>
			<point x="4" y="27"/>
			<point x="4" y="5"/>
		</contour>
		<contour>
			<point x="373" y="366" type="line"/>
			<point x="400" y="333" type="line"/>
			<point x="578" y="565" type="line" smooth="yes"/>
			<point x="606" y="601"/>
			<point x="636" y="609"/>
			<point x="681" y="613" type="curve"/>
			<point x="687" y="619"/>
			<point x="687" y="641"/>
			<point x="681" y="647" type="curve"/>
			<point x="651" y="646"/>
			<point x="602" y="645"/>
			<point x="579" y="645" type="curve" smooth="yes"/>
			<point x="556" y="645"/>
			<point x="503" y="646"/>
			<point x="463" y="647" type="curve"/>
			<point x="457" y="641"/>
			<point x="457" y="619"/>
			<point x="463" y="613" type="curve"/>
			<point x="507" y="610"/>
			<point x="522" y="594"/>
			<point x="507" y="564" type="curve"/>
		</contour>
	</outline>
	<anchor name="m.uni0302" x="372" y="850"/>
	<anchor name="m.uni0316_2" x="307" y="-110"/>
	<anchor name="m.uni031A_3" x="689" y="732"/>
	<anchor name="t.uni0302" x="386" y="740"/>
	<guideline x="379" y="375" angle="52.2597"/>
	<guideline x="471" y="572" angle="234.898"/>
</glyph>
<glyph name="grave" format="2">
	<unicode hex="0060"/>
	<advance width="392"/>
	<outline>
		<contour>
			<point x="198" y="666" type="line"/>
			<point x="194" y="667"/>
			<point x="183" y="668"/>
			<point x="178" y="668" type="curve" smooth="yes"/>
			<point x="142" y="668"/>
			<point x="113" y="645"/>
			<point x="105" y="636" type="curve"/>
			<point x="103" y="625" type="line"/>
			<point x="224" y="520" type="line" smooth="yes"/>
			<point x="241" y="505"/>
			<point x="251" y="500"/>
			<point x="259" y="500" type="curve" smooth="yes"/>
			<point x="268" y="500"/>
			<point x="276" y="507"/>
			<point x="276" y="516" type="curve" smooth="yes"/>
			<point x="276" y="524"/>
			<point x="271" y="535"/>
			<point x="267" y="542" type="curve" smooth="yes"/>
		</contour>
	</outline>
	<anchor name="_t.uni0302" x="175" y="500"/>
</glyph>
<glyph name="b" format="2">
	<unicode hex="0062"/>
	<advance width="542"/>
	<outline>
		<contour>
			<point x="68" y="-6" type="curve"/>
			<point name=".hr01" x="80" y="-10"/>
			<point x="91" y="-13"/>
			<point x="102" y="-13" type="curve"/>
			<point x="115" y="-2"/>
			<point x="125" y="12"/>
			<point x="134" y="30" type="curve"/>
			<point x="173" y="0"/>
			<point x="234" y="-10"/>
			<point x="280" y="-10" type="curve" smooth="yes"/>
			<point x="391" y="-10"/>
			<point x="508" y="100"/>
			<point x="508" y="243" type="curve" smooth="yes"/>
			<point x="508" y="363"/>
			<point x="438" y="444"/>
			<point x="317" y="444" type="curve" smooth="yes"/>
			<point x="278" y="444"/>
			<point x="216" y="398"/>
			<point x="185" y="374" type="curve"/>
			<point x="185" y="334" type="line"/>
			<point x="229" y="369"/>
			<point x="255" y="373"/>
			<point x="282" y="373" type="curve" smooth="yes"/>
			<point x="331" y="373"/>
			<point x="368" y="328"/>
			<point x="368" y="230" type="curve" smooth="yes"/>
			<point x="368" y="148"/>
			<point x="354" y="32"/>
			<point x="275" y="32" type="curve" smooth="yes"/>
			<point x="246" y="32"/>
			<point x="223" y="44"/>
			<point x="204" y="67" type="curve"/>
			<point x="204" y="583" type="line" smooth="yes"/>
			<point x="204" y="648"/>
			<point x="207" y="681"/>
			<point x="207" y="685" type="curve" smooth="yes"/>
			<point x="207" y="694"/>
			<point x="200" y="698"/>
			<point x="191" y="698" type="curve"/>
			<point x="154" y="686"/>
			<point x="74" y="675"/>
			<point x="3" y="672" type="curve"/>
			<point x="0" y="660"/>
			<point x="1" y="649"/>
			<point x="6" y="640" type="curve"/>
			<point x="69" y="635"/>
			<point x="74" y="634"/>
			<point x="74" y="565" type="curve" smooth="yes"/>
			<point x="74" y="127" type="line" smooth="yes"/>
			<point x="74" y="44"/>
			<point x="72" y="32"/>
		</contour>
	</outline>
	<anchor name="m.uni0316_2" x="234" y="-110"/>
	<anchor name="m.uni031A_3" x="420" y="580"/>
</glyph>
<glyph name="f" format="2">
	<unicode hex="0066"/>
	<advance width="391"/>
	<outline>
		<contour>
			<point x="230" y="128" type="curve" smooth="yes"/>
			<point x="230" y="384" type="line"/>
			<point x="316" y="384" type="line" smooth="yes"/>
			<point x="334" y="384"/>
			<point x="351" y="389"/>
			<point x="351" y="401" type="curve" smooth="yes"/>
			<point x="351" y="424" type="line" smooth="yes"/>
			<point x="351" y="430"/>
			<point x="350" y="434"/>
			<point x="331" y="434" type="curve" smooth="yes"/>
			<point x="230" y="434" type="line"/>
			<point x="230" y="485" type="line" smooth="yes"/>
			<point x="230" y="634"/>
			<point x="271" y="656"/>
			<point x="293" y="656" type="curve" smooth="yes"/>
			<point x="310" y="656"/>
			<point x="314" y="641"/>
			<point x="321" y="617" type="curve" smooth="yes"/>
			<point x="330" y="585"/>
			<point x="356" y="560"/>
			<point x="392" y="560" type="curve" smooth="yes"/>
			<point x="425" y="560"/>
			<point x="449" y="581"/>
			<point x="449" y="624" type="curve" smooth="yes"/>
			<point x="449" y="651"/>
			<point x="418" y="698"/>
			<point x="312" y="698" type="curve" smooth="yes"/>
			<point x="177" y="698"/>
			<point x="100" y="579"/>
			<point x="100" y="454" type="curve" smooth="yes"/>
			<point x="100" y="434" type="line"/>
			<point x="98" y="434" type="line" smooth="yes"/>
			<point x="64" y="434"/>
			<point x="23" y="429"/>
			<point x="23" y="421" type="curve" smooth="yes"/>
			<point x="23" y="394" type="line" smooth="yes"/>
			<point x="23" y="387"/>
			<point x="27" y="384"/>
			<point x="50" y="384" type="curve" smooth="yes"/>
			<point x="100" y="384" type="line"/>
			<point x="100" y="126" type="line" smooth="yes"/>
			<point x="100" y="44"/>
			<point x="84" y="35"/>
			<point x="23" y="32" type="curve"/>
			<point x="17" y="26"/>
			<point x="17" y="4"/>
			<point x="23" y="-2" type="curve"/>
			<point x="65" y="-1"/>
			<point x="110" y="0"/>
			<point x="165" y="0" type="curve" smooth="yes"/>
			<point x="220" y="0"/>
			<point x="264" y="-1"/>
			<point x="307" y="-2" type="curve"/>
			<point x="313" y="4"/>
			<point x="313" y="26"/>
			<point x="307" y="32" type="curve"/>
			<point x="246" y="35"/>
			<point x="230" y="44"/>
		</contour>
	</outline>
	<anchor name="m.uni0316_2" x="132" y="-110"/>
	<anchor name="m.uni031A_3" x="410" y="750"/>
</glyph>
<glyph name="h" format="2">
	<unicode hex="0068"/>
	<advance width="619"/>
	<outline>
		<contour>
			<point x="23" y="-2" type="curve"/>
			<point x="65" y="-1"/>
			<point x="110" y="0"/>
			<point x="165" y="0" type="curve" smooth="yes"/>
			<point x="213" y="0"/>
			<point x="244" y="-1"/>
			<point x="287" y="-2" type="curve"/>
			<point x="293" y="4"/>
			<point x="293" y="26"/>
			<point x="287" y="32" type="curve"/>
			<point x="245" y="35"/>
			<point x="230" y="44"/>
			<point x="230" y="127" type="curve" smooth="yes"/>
			<point x="230" y="583" type="line" smooth="yes"/>
			<point x="230" y="648"/>
			<point x="233" y="685"/>
			<point x="233" y="685" type="curve"/>
			<point x="233" y="694"/>
			<point x="226" y="698"/>
			<point x="217" y="698" type="curve"/>
			<point x="180" y="686"/>
			<point x="100" y="675"/>
			<point x="29" y="672" type="curve"/>
			<point x="26" y="660"/>
			<point x="27" y="649"/>
			<point x="32" y="640" type="curve"/>
			<point x="95" y="635"/>
			<point x="100" y="634"/>
			<point x="100" y="565" type="curve" smooth="yes"/>
			<point x="100" y="127" type="line" smooth="yes"/>
			<point x="100" y="44"/>
			<point x="84" y="35"/>
			<point x="23" y="32" type="curve"/>
			<point x="17" y="26"/>
			<point x="17" y="4"/>
		</contour>
		<contour>
			<point x="341" y="-2" type="curve"/>
			<point x="383" y="-1"/>
			<point x="415" y="0"/>
			<point x="463" y="0" type="curve" smooth="yes"/>
			<point x="518" y="0"/>
			<point x="562" y="-1"/>
			<point x="605" y="-2" type="curve"/>
			<point x="611" y="4"/>
			<point x="611" y="26"/>
			<point x="605" y="32" type="curve"/>
			<point x="544" y="35"/>
			<point x="528" y="44"/>
			<point x="528" y="128" type="curve" smooth="yes"/>
			<point x="528" y="284" type="line" smooth="yes"/>
			<point x="528" y="394"/>
			<point x="481" y="444"/>
			<point x="395" y="444" type="curve" smooth="yes"/>
			<point x="355" y="444"/>
			<point x="270" y="397"/>
			<point x="211" y="359" type="curve"/>
			<point x="211" y="320" type="line"/>
			<point x="262" y="354"/>
			<point x="302" y="370"/>
			<point x="323" y="370" type="curve" smooth="yes"/>
			<point x="363" y="370"/>
			<point x="398" y="352"/>
			<point x="398" y="295" type="curve" smooth="yes"/>
			<point x="398" y="128" type="line" smooth="yes"/>
			<point x="398" y="44"/>
			<point x="382" y="35"/>
			<point x="341" y="32" type="curve"/>
			<point x="335" y="26"/>
			<point x="335" y="4"/>
		</contour>
	</outline>
	<anchor name="m.uni0302" x="299" y="645"/>
	<anchor name="m.uni0316_2" x="315" y="-110"/>
	<anchor name="m.uni031A_3" x="429" y="580"/>
	<anchor name="b.uni0321_4" x="423" y="10"/>
</glyph>
<glyph name="i" format="2">
	<unicode hex="0069"/>
	<advance width="322"/>
	<outline>
		<component base="dotlessi"/>
		<contour>
			<point x="97" y="596" type="curve" smooth="yes"/>
			<point x="97" y="563"/>
			<point x="121" y="530"/>
			<point x="161" y="530" type="curve" smooth="yes"/>
			<point x="206" y="530"/>
			<point x="232" y="566"/>
			<point x="232" y="592" type="curve" smooth="yes"/>
			<point x="232" y="622"/>
			<point x="209" y="658"/>
			<point x="167" y="658" type="curve" smooth="yes"/>
			<point x="120" y="658"/>
			<point x="97" y="626"/>
		</contour>
	</outline>
	<anchor name="m.uni0302" x="137" y="795"/>
	<anchor name="m.uni0316_2" x="136" y="-110"/>
	<anchor name="b.uni0321_4" x="209" y="10"/>
</glyph>
<glyph name="k" format="2">
	<unicode hex="006B"/>
	<advance width="613"/>
	<outline>
		<contour>
			<point x="23" y="-2" type="curve"/>
			<point x="65" y="-1"/>
			<point x="110" y="0"/>
			<point x="165" y="0" type="curve" smooth="yes"/>
			<point x="209" y="0"/>
			<point x="253" y="-1"/>
			<point x="277" y="-2" type="curve"/>
			<point x="283" y="4"/>
			<point x="283" y="26"/>
			<point x="277" y="32" type="curve"/>
			<point x="247" y="36"/>
			<point x="230" y="44"/>
			<point x="230" y="127" type="curve" smooth="yes"/>
			<point x="230" y="583" type="line" smooth="yes"/>
			<point x="230" y="648"/>
			<point x="233" y="681"/>
			<point x="233" y="685" type="curve" smooth="yes"/>
			<point x="233" y="694"/>
			<point x="226" y="698"/>
			<point x="217" y="698" type="curve"/>
			<point x="180" y="686"/>
			<point x="100" y="675"/>
			<point x="29" y="672" type="curve"/>
			<point x="26" y="660"/>
			<point x="27" y="649"/>
			<point x="32" y="640" type="curve"/>
			<point x="95" y="635"/>
			<point x="100" y="634"/>
			<point x="100" y="565" type="curve" smooth="yes"/>
			<point x="100" y="127" type="line" smooth="yes"/>
			<point x="100" y="44"/>
			<point x="84" y="35"/>
			<point x="23" y="32" type="curve"/>
			<point x="17" y="26"/>
			<point x="17" y="4"/>
		</contour>
		<contour>
			<point x="214" y="209" type="line"/>
			<point x="270" y="209"/>
			<point x="293" y="200"/>
			<point x="305" y="180" type="curve" smooth="yes"/>
			<point x="367" y="78" type="line" smooth="yes"/>
			<point x="378" y="60"/>
			<point x="383" y="37"/>
			<point x="383" y="2" type="curve" smooth="yes"/>
			<point x="383" y="0"/>
			<point x="385" y="-2"/>
			<point x="388" y="-2" type="curve" smooth="yes"/>
			<point x="393" y="-2"/>
			<point x="430" y="0"/>
			<point x="465" y="0" type="curve" smooth="yes"/>
			<point x="506" y="0"/>
			<point x="562" y="-1"/>
			<point x="599" y="-2" type="curve"/>
			<point x="605" y="4"/>
			<point x="605" y="26"/>
			<point x="599" y="32" type="curve"/>
			<point x="560" y="36"/>
			<point x="538" y="33"/>
			<point x="508" y="78" type="curve" smooth="yes"/>
			<point x="392" y="249" type="line"/>
			<point x="389" y="253"/>
			<point x="387" y="258"/>
			<point x="387" y="262" type="curve" smooth="yes"/>
			<point x="387" y="264"/>
			<point x="388" y="268"/>
			<point x="389" y="269" type="curve"/>
			<point x="439" y="324" type="line" smooth="yes"/>
			<point x="492" y="382"/>
			<point x="513" y="397"/>
			<point x="574" y="402" type="curve"/>
			<point x="580" y="408"/>
			<point x="580" y="430"/>
			<point x="574" y="436" type="curve"/>
			<point x="552" y="435"/>
			<point x="489" y="434"/>
			<point x="463" y="434" type="curve" smooth="yes"/>
			<point x="426" y="434"/>
			<point x="379" y="435"/>
			<point x="342" y="436" type="curve"/>
			<point x="336" y="430"/>
			<point x="336" y="408"/>
			<point x="342" y="402" type="curve"/>
			<point x="378" y="399"/>
			<point x="397" y="394"/>
			<point x="397" y="379" type="curve" smooth="yes"/>
			<point x="397" y="355"/>
			<point x="342" y="293"/>
			<point x="319" y="277" type="curve" smooth="yes"/>
			<point x="300" y="264"/>
			<point x="255" y="250"/>
			<point x="214" y="250" type="curve"/>
		</contour>
	</outline>
	<anchor name="m.uni0302" x="306" y="784"/>
	<anchor name="m.uni0316_2" x="290" y="-214"/>
	<anchor name="m.uni031A_3" x="536" y="696"/>
</glyph>
<glyph name="o" format="2">
	<unicode hex="006F"/>
	<advance width="551"/>
	<outline>
		<contour>
			<point x="37" y="207" type="curve" smooth="yes"/>
			<point x="37" y="76"/>
			<point x="141" y="-10"/>
			<point x="275" y="-10" type="curve" smooth="yes"/>
			<point x="416" y="-10"/>
			<point x="514" y="70"/>
			<point x="514" y="216" type="curve" smooth="yes"/>
			<point x="514" y="347"/>
			<point x="425" y="444"/>
			<point x="276" y="444" type="curve" smooth="yes"/>
			<point x="130" y="444"/>
			<point x="37" y="353"/>
		</contour>
		<contour>
			<point x="260" y="402" type="curve" smooth="yes"/>
			<point x="328" y="402"/>
			<point x="374" y="321"/>
			<point x="374" y="184" type="curve" smooth="yes"/>
			<point x="374" y="64"/>
			<point x="327" y="32"/>
			<point x="291" y="32" type="curve" smooth="yes"/>
			<point x="209" y="32"/>
			<point x="177" y="155"/>
			<point x="177" y="229" type="curve" smooth="yes"/>
			<point x="177" y="321"/>
			<point x="193" y="402"/>
		</contour>
	</outline>
	<anchor name="t.uni0302" x="260" y="500"/>
	<anchor name="t.uni0315_1" x="420" y="396"/>
	<anchor name="m.uni0316_2" x="243" y="-110"/>
	<anchor name="b.uni0321_4" x="372" y="44"/>
</glyph>
<glyph name="r" format="2">
	<unicode hex="0072"/>
	<advance width="428"/>
	<outline>
		<contour>
			<point x="98" y="120" type="line"/>
			<point x="98" y="39"/>
			<point x="87" y="37"/>
			<point x="26" y="32" type="curve"/>
			<point x="20" y="26"/>
			<point x="20" y="4"/>
			<point x="26" y="-2" type="curve"/>
			<point x="68" y="-1"/>
			<point x="110" y="0"/>
			<point x="164" y="0" type="curve" smooth="yes"/>
			<point x="217" y="0"/>
			<point x="257" y="-1"/>
			<point x="300" y="-2" type="curve"/>
			<point x="306" y="4"/>
			<point x="306" y="26"/>
			<point x="300" y="32" type="curve"/>
			<point x="239" y="36"/>
			<point x="228" y="39"/>
			<point x="228" y="120" type="curve"/>
		</contour>
		<contour>
			<point x="228" y="120" type="line"/>
			<point x="228" y="268" type="line" smooth="yes"/>
			<point x="228" y="298"/>
			<point x="246" y="351"/>
			<point x="284" y="351" type="curve" smooth="yes"/>
			<point x="293" y="351"/>
			<point x="304" y="342"/>
			<point x="312" y="332" type="curve"/>
			<point x="319" y="324"/>
			<point name=".hr01" x="336" y="316"/>
			<point x="359" y="316" type="curve" smooth="yes"/>
			<point x="388" y="316"/>
			<point x="416" y="346"/>
			<point x="416" y="388" type="curve" smooth="yes"/>
			<point x="416" y="414"/>
			<point x="386" y="444"/>
			<point x="350" y="444" type="curve" smooth="yes"/>
			<point x="315" y="444"/>
			<point x="277" y="414"/>
			<point x="231" y="348" type="curve"/>
			<point x="230.015" y="348"/>
			<point x="228.393" y="348"/>
			<point x="228" y="348" type="curve"/>
			<point x="226" y="378"/>
			<point x="221" y="427"/>
			<point x="221" y="427" type="curve"/>
			<point x="220" y="436"/>
			<point x="212" y="444"/>
			<point x="198" y="444" type="curve"/>
			<point x="150" y="432"/>
			<point x="97" y="418"/>
			<point x="31" y="411" type="curve"/>
			<point x="29" y="405"/>
			<point x="31" y="386"/>
			<point x="33" y="380" type="curve"/>
			<point x="88" y="375"/>
			<point x="98" y="366"/>
			<point x="98" y="309" type="curve" smooth="yes"/>
			<point x="98" y="120" type="line"/>
		</contour>
	</outline>
	<anchor name="m.uni0302" x="191" y="646"/>
	<anchor name="m.uni0316_2" x="135" y="-110"/>
	<anchor name="m.uni031A_3" x="349" y="580"/>
</glyph>
<glyph name="t" format="2">
	<unicode hex="0074"/>
	<advance width="358"/>
	<outline>
		<contour>
			<point x="63" y="434" type="line" smooth="yes"/>
			<point x="49" y="434"/>
			<point x="34" y="430"/>
			<point x="21" y="419" type="curve"/>
			<point x="21" y="390" type="line" smooth="yes"/>
			<point x="21" y="385"/>
			<point x="22" y="384"/>
			<point x="26" y="384" type="curve" smooth="yes"/>
			<point x="91" y="384" type="line"/>
			<point x="91" y="105" type="line" smooth="yes"/>
			<point x="91" y="32"/>
			<point x="127" y="-10"/>
			<point x="201" y="-10" type="curve" smooth="yes"/>
			<point x="256" y="-10"/>
			<point x="317" y="18"/>
			<point x="337" y="46" type="curve"/>
			<point x="337" y="58"/>
			<point x="331" y="64"/>
			<point x="319" y="74" type="curve"/>
			<point x="306" y="64"/>
			<point x="281" y="60"/>
			<point x="262" y="60" type="curve" smooth="yes"/>
			<point x="240" y="60"/>
			<point x="217" y="77"/>
			<point x="217" y="127" type="curve" smooth="yes"/>
			<point x="217" y="384" type="line"/>
			<point x="318" y="384" type="line" smooth="yes"/>
			<point x="328" y="384"/>
			<point x="342" y="388"/>
			<point x="342" y="397" type="curve" smooth="yes"/>
			<point x="342" y="428" type="line" smooth="yes"/>
			<point x="342" y="432"/>
			<point x="339" y="434"/>
			<point x="334" y="434" type="curve" smooth="yes"/>
			<point x="217" y="434" type="line"/>
			<point x="218" y="468" type="line" smooth="yes"/>
			<point x="220" y="535"/>
			<point x="222" y="564"/>
			<point x="225" y="581" type="curve"/>
			<point x="225" y="587"/>
			<point x="222" y="590"/>
			<point x="217" y="590" type="curve" smooth="yes"/>
			<point x="205" y="590"/>
			<point x="108" y="558"/>
			<point x="102" y="550" type="curve" smooth="yes"/>
			<point x="95" y="541"/>
			<point x="91" y="514"/>
			<point x="91" y="434" type="curve"/>
		</contour>
	</outline>
	<anchor name="m.uni0316_2" x="163" y="-110"/>
	<anchor name="m.uni031A_3" x="279" y="580"/>
	<anchor name="b.uni0321_4" x="237" y="15"/>
	<anchor name="t.uni0302" x="155" y="650"/>
</glyph>
<glyph name="v" format="2">
	<unicode hex="0076"/>
	<advance width="529"/>
	<outline>
		<contour>
			<point x="342" y="402" type="curve"/>
			<point x="396" y="398"/>
			<point x="403" y="382"/>
			<point x="381" y="331" type="curve" smooth="yes"/>
			<point x="302" y="148" type="line" smooth="yes"/>
			<point x="298" y="139"/>
			<point x="294" y="146"/>
			<point x="291" y="153" type="curve"/>
			<point x="223" y="345" type="line" smooth="yes"/>
			<point x="209" y="383"/>
			<point x="210" y="397"/>
			<point x="259" y="402" type="curve"/>
			<point x="265" y="408"/>
			<point x="265" y="430"/>
			<point x="259" y="436" type="curve"/>
			<point x="222" y="435"/>
			<point x="182" y="434"/>
			<point x="133" y="434" type="curve" smooth="yes"/>
			<point x="98" y="434"/>
			<point x="47" y="435"/>
			<point x="10" y="436" type="curve"/>
			<point x="4" y="430"/>
			<point x="4" y="408"/>
			<point x="10" y="402" type="curve"/>
			<point x="68" y="395"/>
			<point x="70" y="375"/>
			<point x="90" y="325" type="curve" smooth="yes"/>
			<point x="221" y="9" type="line" smooth="yes"/>
			<point x="227" y="-6"/>
			<point x="244" y="-12"/>
			<point x="257" y="-12" type="curve" smooth="yes"/>
			<point x="267" y="-12"/>
			<point x="287" y="-10"/>
			<point x="296" y="11" type="curve" smooth="yes"/>
			<point x="433" y="324" type="line" smooth="yes"/>
			<point x="453" y="369"/>
			<point x="466" y="397"/>
			<point x="519" y="402" type="curve"/>
			<point x="525" y="408"/>
			<point x="525" y="430"/>
			<point x="519" y="436" type="curve"/>
			<point x="497" y="435"/>
			<point x="465" y="434"/>
			<point x="443" y="434" type="curve" smooth="yes"/>
			<point x="406" y="434"/>
			<point x="369" y="435"/>
			<point x="342" y="436" type="curve"/>
			<point x="336" y="430"/>
			<point x="336" y="408"/>
		</contour>
	</outline>
	<anchor name="m.uni0302" x="256" y="646"/>
	<anchor name="m.uni0316_2" x="241" y="-110"/>
	<anchor name="m.uni031A_3" x="460" y="580"/>
</glyph>
<glyph name="x" format="2">
	<unicode hex="0078"/>
	<advance width="561"/>
	<outline>
		<contour>
			<point x="17" y="-2" type="curve"/>
			<point x="37" y="-1"/>
			<point x="68" y="0"/>
			<point x="100" y="0" type="curve" smooth="yes"/>
			<point x="143" y="0"/>
			<point x="190" y="-1"/>
			<point x="210" y="-2" type="curve"/>
			<point x="216" y="4"/>
			<point x="216" y="26"/>
			<point x="210" y="32" type="curve"/>
			<point x="192" y="36"/>
			<point x="161" y="42"/>
			<point x="183" y="73" type="curve" smooth="yes"/>
			<point x="245" y="160" type="line"/>
			<point x="249" y="165"/>
			<point x="252" y="168"/>
			<point x="255" y="163" type="curve"/>
			<point x="303" y="72" type="line" smooth="yes"/>
			<point x="320" y="40"/>
			<point x="310" y="37"/>
			<point x="275" y="32" type="curve"/>
			<point x="269" y="26"/>
			<point x="269" y="4"/>
			<point x="275" y="-2" type="curve"/>
			<point x="295" y="-1"/>
			<point x="358" y="0"/>
			<point x="411" y="0" type="curve" smooth="yes"/>
			<point x="463" y="0"/>
			<point x="525" y="-1"/>
			<point x="545" y="-2" type="curve"/>
			<point x="551" y="4"/>
			<point x="551" y="26"/>
			<point x="545" y="32" type="curve"/>
			<point x="508" y="38"/>
			<point x="474" y="51"/>
			<point x="442" y="99" type="curve" smooth="yes"/>
			<point x="354" y="230" type="line"/>
			<point x="349" y="238"/>
			<point x="349" y="241"/>
			<point x="352" y="245" type="curve"/>
			<point x="441" y="353" type="line" smooth="yes"/>
			<point x="469" y="387"/>
			<point x="505" y="399"/>
			<point x="536" y="402" type="curve"/>
			<point x="542" y="408"/>
			<point x="542" y="430"/>
			<point x="536" y="436" type="curve"/>
			<point x="516" y="435"/>
			<point x="485" y="434"/>
			<point x="452" y="434" type="curve" smooth="yes"/>
			<point x="413" y="434"/>
			<point x="372" y="435"/>
			<point x="352" y="436" type="curve"/>
			<point x="346" y="430"/>
			<point x="346" y="408"/>
			<point x="352" y="402" type="curve"/>
			<point x="388" y="399"/>
			<point x="396" y="388"/>
			<point x="376" y="359" type="curve" smooth="yes"/>
			<point x="322" y="282" type="line"/>
			<point x="319" y="277"/>
			<point x="314" y="277"/>
			<point x="310" y="284" type="curve" smooth="yes"/>
			<point x="265" y="360" type="line" smooth="yes"/>
			<point x="244" y="396"/>
			<point x="257" y="398"/>
			<point x="295" y="402" type="curve"/>
			<point x="301" y="408"/>
			<point x="301" y="430"/>
			<point x="295" y="436" type="curve"/>
			<point x="275" y="435"/>
			<point x="210" y="434"/>
			<point x="155" y="434" type="curve" smooth="yes"/>
			<point x="106" y="434"/>
			<point x="49" y="435"/>
			<point x="29" y="436" type="curve"/>
			<point x="23" y="430"/>
			<point x="23" y="408"/>
			<point x="29" y="402" type="curve"/>
			<point x="74" y="402"/>
			<point x="94" y="375"/>
			<point x="122" y="335" type="curve" smooth="yes"/>
			<point x="211" y="208" type="line"/>
			<point x="214" y="204"/>
			<point x="214" y="200"/>
			<point x="208" y="193" type="curve"/>
			<point x="116" y="79" type="line" smooth="yes"/>
			<point x="91" y="47"/>
			<point x="47" y="36"/>
			<point x="17" y="32" type="curve"/>
			<point x="11" y="26"/>
			<point x="11" y="4"/>
		</contour>
	</outline>
	<anchor name="m.uni0302" x="256" y="646"/>
	<anchor name="m.uni0316_2" x="224" y="-110"/>
	<anchor name="m.uni031A_3" x="469" y="580"/>
	<anchor name="t.uni0302" x="311" y="500"/>
</glyph>
<glyph name="y" format="2">
	<unicode hex="0079"/>
	<advance width="558"/>
	<outline>
		<contour>
			<point x="322" y="111" type="line"/>
			<point x="220" y="341" type="line" smooth="yes"/>
			<point x="203" y="380"/>
			<point x="195" y="397"/>
			<point x="254" y="402" type="curve"/>
			<point x="260" y="408"/>
			<point x="260" y="430"/>
			<point x="254" y="436" type="curve"/>
			<point x="217" y="435"/>
			<point x="157" y="434"/>
			<point x="121" y="434" type="curve" smooth="yes"/>
			<point x="87" y="434"/>
			<point x="30" y="435"/>
			<point x="10" y="436" type="curve"/>
			<point x="4" y="430"/>
			<point x="4" y="408"/>
			<point x="10" y="402" type="curve"/>
			<point x="54" y="398"/>
			<point x="62" y="391"/>
			<point x="89" y="328" type="curve" smooth="yes"/>
			<point x="250" y="-42" type="line"/>
		</contour>
		<contour>
			<point x="74" y="-181" type="curve" smooth="yes"/>
			<point x="74" y="-208"/>
			<point x="91" y="-232"/>
			<point x="125" y="-232" type="curve" smooth="yes"/>
			<point x="204" y="-232"/>
			<point x="224" y="-212"/>
			<point x="285" y="-74" type="curve" smooth="yes"/>
			<point x="467" y="339" type="line" smooth="yes"/>
			<point x="480" y="368"/>
			<point x="511" y="399"/>
			<point x="548" y="402" type="curve"/>
			<point x="554" y="408"/>
			<point x="554" y="430"/>
			<point x="548" y="436" type="curve"/>
			<point x="523" y="435"/>
			<point x="505" y="434"/>
			<point x="477" y="434" type="curve" smooth="yes"/>
			<point x="442" y="434"/>
			<point x="408" y="435"/>
			<point x="371" y="436" type="curve"/>
			<point x="365" y="430"/>
			<point x="365" y="408"/>
			<point x="371" y="402" type="curve"/>
			<point x="403" y="399"/>
			<point x="435" y="394"/>
			<point x="419" y="358" type="curve" smooth="yes"/>
			<point x="222" y="-83" type="line"/>
			<point x="210" y="-114"/>
			<point x="197" y="-132"/>
			<point x="169" y="-132" type="curve" smooth="yes"/>
			<point x="145" y="-132"/>
			<point x="140" y="-128"/>
			<point x="121" y="-128" type="curve" smooth="yes"/>
			<point x="91" y="-128"/>
			<point x="74" y="-158"/>
		</contour>
	</outline>
	<anchor name="t.uni0302" x="262" y="500"/>
	<anchor name="m.uni0316_2" x="242" y="-319"/>
</glyph>
<glyph name="z" format="2">
	<unicode hex="007A"/>
	<advance width="452"/>
	<outline>
		<contour>
			<point x="61" y="446" type="curve"/>
			<point x="59" y="446"/>
			<point x="55" y="442"/>
			<point x="55" y="440" type="curve"/>
			<point x="54" y="395"/>
			<point x="48" y="350"/>
			<point x="40" y="301" type="curve"/>
			<point x="49" y="297"/>
			<point x="71" y="295"/>
			<point x="83" y="298" type="curve"/>
			<point x="103" y="371"/>
			<point x="134" y="393"/>
			<point x="164" y="394" type="curve" smooth="yes"/>
			<point x="266" y="397" type="line"/>
			<point x="268" y="395" type="line"/>
			<point x="26" y="32" type="line" smooth="yes"/>
			<point x="18" y="20"/>
			<point x="17" y="17"/>
			<point x="17" y="12" type="curve" smooth="yes"/>
			<point x="17" y="5"/>
			<point x="25" y="0"/>
			<point x="40" y="0" type="curve"/>
			<point x="392" y="-3" type="line"/>
			<point x="404" y="31"/>
			<point x="417" y="83"/>
			<point x="424" y="133" type="curve"/>
			<point x="418" y="137"/>
			<point x="396" y="139"/>
			<point x="384" y="139" type="curve"/>
			<point x="370" y="110" type="line" smooth="yes"/>
			<point x="345" y="57"/>
			<point x="324" y="39"/>
			<point x="272" y="39" type="curve" smooth="yes"/>
			<point x="176" y="39" type="line"/>
			<point x="175" y="42" type="line"/>
			<point x="416" y="405" type="line" smooth="yes"/>
			<point x="424" y="417"/>
			<point x="427" y="428"/>
			<point x="427" y="431" type="curve" smooth="yes"/>
			<point x="427" y="435"/>
			<point x="422" y="438"/>
			<point x="415" y="438" type="curve" smooth="yes"/>
			<point x="410" y="438"/>
			<point x="342" y="436"/>
			<point x="313" y="436" type="curve" smooth="yes"/>
			<point x="120" y="436" type="line" smooth="yes"/>
			<point x="88" y="436"/>
			<point x="79" y="443"/>
		</contour>
	</outline>
	<anchor name="t.uni0302" x="220" y="500"/>
	<anchor name="m.uni0316_2" x="207" y="-110"/>
	<anchor name="m.uni031A_3" x="399" y="580"/>
</glyph>
<glyph name="braceleft" format="2">
	<unicode hex="007B"/>
	<advance width="307"/>
	<outline>
		<contour>
			<point x="208" y="552" type="line" smooth="yes"/>
			<point x="203" y="655"/>
			<point x="250" y="672"/>
			<point x="288" y="683" type="curve"/>
			<point x="294" y="689"/>
			<point x="294" y="701"/>
			<point x="288" y="707" type="curve"/>
			<point x="198" y="707"/>
			<point x="102" y="667"/>
			<point x="106" y="554" type="curve" smooth="yes"/>
			<point x="112" y="370" type="line"/>
			<point x="112" y="320"/>
			<point x="88" y="270"/>
			<point x="14" y="263" type="curve"/>
			<point x="5" y="254"/>
			<point x="6" y="239"/>
			<point x="14" y="231" type="curve"/>
			<point x="88" y="222"/>
			<point x="114" y="182"/>
			<point x="112" y="121" type="curve" smooth="yes"/>
			<point x="106" y="-49" type="line" smooth="yes"/>
			<point x="101" y="-179"/>
			<point x="187" y="-212"/>
			<point x="288" y="-212" type="curve"/>
			<point x="294" y="-206"/>
			<point x="294" y="-194"/>
			<point x="288" y="-188" type="curve"/>
			<point x="244" y="-188"/>
			<point x="204" y="-138"/>
			<point x="208" y="-54" type="curve" smooth="yes"/>
			<point x="216" y="95" type="line" smooth="yes"/>
			<point x="220" y="177"/>
			<point x="179" y="217"/>
			<point x="111" y="245" type="curve"/>
			<point x="111" y="249" type="line"/>
			<point x="178" y="268"/>
			<point x="220" y="297"/>
			<point x="216" y="386" type="curve" smooth="yes"/>
		</contour>
	</outline>
</glyph>
<glyph name="braceright" format="2">
	<unicode hex="007D"/>
	<advance width="307"/>
	<outline>
		<contour>
			<point x="99" y="-56" type="line" smooth="yes"/>
			<point x="104" y="-159"/>
			<point x="57" y="-176"/>
			<point x="19" y="-187" type="curve"/>
			<point x="13" y="-193"/>
			<point x="13" y="-205"/>
			<point x="19" y="-211" type="curve"/>
			<point x="109" y="-211"/>
			<point x="205" y="-171"/>
			<point x="201" y="-58" type="curve" smooth="yes"/>
			<point x="195" y="126" type="line"/>
			<point x="195" y="176"/>
			<point x="219" y="226"/>
			<point x="293" y="233" type="curve"/>
			<point x="302" y="242"/>
			<point x="301" y="257"/>
			<point x="293" y="265" type="curve"/>
			<point x="220" y="274"/>
			<point x="193" y="314"/>
			<point x="195" y="375" type="curve" smooth="yes"/>
			<point x="201" y="545" type="line" smooth="yes"/>
			<point x="206" y="675"/>
			<point x="120" y="708"/>
			<point x="19" y="708" type="curve"/>
			<point x="13" y="702"/>
			<point x="13" y="690"/>
			<point x="19" y="684" type="curve"/>
			<point x="63" y="684"/>
			<point x="104" y="634"/>
			<point x="99" y="550" type="curve" smooth="yes"/>
			<point x="91" y="401" type="line" smooth="yes"/>
			<point x="87" y="319"/>
			<point x="128" y="279"/>
			<point x="196" y="251" type="curve"/>
			<point x="196" y="247" type="line"/>
			<point x="129" y="228"/>
			<point x="87" y="199"/>
			<point x="91" y="110" type="curve" smooth="yes"/>
		</contour>
	</outline>
</glyph>
<glyph name="exclamdown" format="2">
	<unicode hex="00A1"/>
	<advance width="266"/>
	<outline>
		<contour>
			<point x="133" y="-224" type="curve" smooth="yes"/>
			<point x="164" y="-224"/>
			<point x="205" y="-205"/>
			<point x="205" y="-149" type="curve" smooth="yes"/>
			<point x="205" y="-110"/>
			<point x="198" y="-81"/>
			<point x="191" y="-46" type="curve" smooth="yes"/>
			<point x="178" y="24"/>
			<point x="164" y="144"/>
			<point x="163" y="192" type="curve" smooth="yes"/>
			<point x="162" y="226"/>
			<point x="159" y="246"/>
			<point x="133" y="246" type="curve" smooth="yes"/>
			<point x="110" y="246"/>
			<point x="105" y="223"/>
			<point x="105" y="204" type="curve"/>
			<point x="104" y="155"/>
			<point x="91" y="55"/>
			<point x="75" y="-43" type="curve" smooth="yes"/>
			<point x="69" y="-76"/>
			<point x="61" y="-114"/>
			<point x="61" y="-149" type="curve" smooth="yes"/>
			<point x="61" y="-200"/>
			<point x="96" y="-224"/>
		</contour>
		<contour>
			<point x="206" y="376" type="curve" smooth="yes"/>
			<point x="206" y="414"/>
			<point x="174" y="444"/>
			<point x="134" y="444" type="curve" smooth="yes"/>
			<point x="94" y="444"/>
			<point x="60" y="412"/>
			<point x="60" y="374" type="curve" smooth="yes"/>
			<point x="60" y="335"/>
			<point x="92" y="305"/>
			<point x="132" y="305" type="curve" smooth="yes"/>
			<point x="172" y="305"/>
			<point x="206" y="337"/>
		</contour>
	</outline>
</glyph>
<glyph name="cent" format="2">
	<unicode hex="00A2"/>
	<advance width="540"/>
	<outline>
		<contour>
			<point x="262" y="584" type="line"/>
			<point x="262" y="514" type="line"/>
			<point x="158" y="505"/>
			<point x="69" y="421"/>
			<point x="61" y="293" type="curve"/>
			<point x="60" y="286"/>
			<point x="60" y="279"/>
			<point x="60" y="272" type="curve" smooth="yes"/>
			<point x="60" y="207"/>
			<point x="83" y="150"/>
			<point x="122" y="113" type="curve" smooth="yes"/>
			<point x="158" y="79"/>
			<point x="200" y="64"/>
			<point x="262" y="61" type="curve"/>
			<point x="262" y="-12" type="line"/>
			<point x="296" y="-12" type="line"/>
			<point x="296" y="62" type="line"/>
			<point x="351" y="69"/>
			<point x="411" y="108"/>
			<point x="445" y="158" type="curve"/>
			<point x="445" y="170"/>
			<point x="443" y="189"/>
			<point x="432" y="189" type="curve"/>
			<point x="392" y="152"/>
			<point x="358" y="132"/>
			<point x="329" y="132" type="curve" smooth="yes"/>
			<point x="324" y="132"/>
			<point x="318" y="133"/>
			<point x="313" y="133" type="curve"/>
			<point x="307" y="134"/>
			<point x="302" y="136"/>
			<point x="296" y="137" type="curve"/>
			<point x="296" y="467" type="line"/>
			<point x="317" y="455"/>
			<point x="326" y="426"/>
			<point x="328" y="402" type="curve"/>
			<point x="329" y="397"/>
			<point x="330" y="391"/>
			<point x="333" y="387" type="curve"/>
			<point x="342" y="368"/>
			<point x="364" y="355"/>
			<point x="390" y="355" type="curve" smooth="yes"/>
			<point x="416" y="355"/>
			<point x="435" y="371"/>
			<point name=".hr01" x="442" y="393" type="curve" smooth="yes"/>
			<point x="444" y="399"/>
			<point x="445" y="405"/>
			<point x="445" y="411" type="curve" smooth="yes"/>
			<point x="445" y="454"/>
			<point x="396" y="510"/>
			<point name=".hr02" x="296" y="515" type="curve"/>
			<point x="296" y="584" type="line"/>
		</contour>
		<contour>
			<point x="262" y="152" type="line"/>
			<point x="220" y="179"/>
			<point x="190" y="234"/>
			<point x="190" y="307" type="curve" smooth="yes"/>
			<point x="190" y="410"/>
			<point x="216" y="465"/>
			<point x="262" y="472" type="curve"/>
		</contour>
	</outline>
</glyph>
<glyph name="brokenbar" format="2">
	<unicode hex="00A6"/>
	<advance width="220"/>
	<outline>
		<contour>
			<point x="140" y="161" type="line"/>
			<point x="80" y="161" type="line"/>
			<point x="80" y="-201" type="line"/>
			<point x="140" y="-201" type="line"/>
		</contour>
		<contour>
			<point x="140" y="674" type="line"/>
			<point x="80" y="674" type="line"/>
			<point x="80" y="312" type="line"/>
			<point x="140" y="312" type="line"/>
		</contour>
	</outline>
</glyph>
<glyph name="dieresis" format="2">
	<unicode hex="00A8"/>
	<advance width="410"/>
	<outline>
		<contour>
			<point x="57" y="574" type="curve" smooth="yes"/>
			<point x="57" y="544"/>
			<point x="82" y="520"/>
			<point x="112" y="520" type="curve" smooth="yes"/>
			<point x="143" y="520"/>
			<point x="167" y="544"/>
			<point x="167" y="574" type="curve" smooth="yes"/>
			<point x="167" y="605"/>
			<point x="143" y="629"/>
			<point x="112" y="629" type="curve" smooth="yes"/>
			<point x="82" y="629"/>
			<point x="57" y="605"/>
		</contour>
		<contour>
			<point x="243" y="574" type="curve" smooth="yes"/>
			<point x="243" y="544"/>
			<point x="267" y="520"/>
			<point x="298" y="520" type="curve" smooth="yes"/>
			<point x="328" y="520"/>
			<point x="353" y="544"/>
			<point x="353" y="574" type="curve" smooth="yes"/>
			<point x="353" y="605"/>
			<point x="328" y="629"/>
			<point x="298" y="629" type="curve" smooth="yes"/>
			<point x="267" y="629"/>
			<point x="243" y="605"/>
		</contour>
	</outline>
	<anchor name="_t.uni0302" x="205" y="520"/>
	<guideline x="190" y="0" angle="90"/>
	<guideline x="0" y="530" angle="0"/>
</glyph>
<glyph name="macron" format="2">
	<unicode hex="00AF"/>
	<advance width="397"/>
	<outline>
		<contour>
			<point x="315" y="530" type="line" smooth="yes"/>
			<point x="328" y="530"/>
			<point x="339" y="553"/>
			<point x="339" y="565" type="curve" smooth="yes"/>
			<point x="339" y="571"/>
			<point x="335" y="584"/>
			<point x="325" y="584" type="curve" smooth="yes"/>
			<point x="81" y="584" type="line" smooth="yes"/>
			<point x="69" y="584"/>
			<point x="59" y="562"/>
			<point x="59" y="550" type="curve" smooth="yes"/>
			<point x="59" y="543"/>
			<point x="62" y="530"/>
			<point x="71" y="530" type="curve" smooth="yes"/>
		</contour>
	</outline>
</glyph>
<glyph name="uni00B2" format="2">
	<unicode hex="00B2"/>
	<advance width="340"/>
	<outline>
		<contour>
			<point x="33" y="626" type="curve" smooth="yes"/>
			<point x="33" y="601"/>
			<point x="40" y="583"/>
			<point x="67" y="583" type="curve" smooth="yes"/>
			<point x="88" y="583"/>
			<point x="107" y="596"/>
			<point x="110" y="612" type="curve"/>
			<point x="111" y="615"/>
			<point x="111" y="619"/>
			<point x="111" y="623" type="curve" smooth="yes"/>
			<point x="111" y="628"/>
			<point x="111" y="633"/>
			<point x="111" y="638" type="curve" smooth="yes"/>
			<point x="111" y="640"/>
			<point x="111" y="643"/>
			<point x="111" y="646" type="curve" smooth="yes"/>
			<point x="111" y="652"/>
			<point x="111" y="658"/>
			<point x="112" y="661" type="curve"/>
			<point x="117" y="674"/>
			<point x="128" y="679"/>
			<point x="150" y="679" type="curve" smooth="yes"/>
			<point x="158" y="679"/>
			<point x="172" y="674"/>
			<point x="178" y="664" type="curve" smooth="yes"/>
			<point x="186" y="651"/>
			<point x="190" y="632"/>
			<point x="190" y="608" type="curve" smooth="yes"/>
			<point x="190" y="586"/>
			<point x="179" y="557"/>
			<point x="153" y="533" type="curve"/>
			<point x="146" y="526"/>
			<point x="138" y="520"/>
			<point x="131" y="513" type="curve"/>
			<point x="119" y="502"/>
			<point x="106" y="490"/>
			<point x="94" y="479" type="curve"/>
			<point x="60" y="445"/>
			<point x="35" y="406"/>
			<point x="35" y="364" type="curve"/>
			<point x="271" y="364" type="line"/>
			<point x="280" y="393"/>
			<point x="296" y="438"/>
			<point x="300" y="477" type="curve"/>
			<point x="295" y="481"/>
			<point name=".hr01" x="283" y="483"/>
			<point x="272" y="483" type="curve"/>
			<point x="261" y="453"/>
			<point name=".hr02" x="237" y="421"/>
			<point x="206" y="421" type="curve" smooth="yes"/>
			<point x="124" y="421" type="line"/>
			<point x="126" y="434"/>
			<point x="133" y="451"/>
			<point x="151" y="466" type="curve" smooth="yes"/>
			<point x="161" y="474"/>
			<point x="170" y="482"/>
			<point x="180" y="491" type="curve" smooth="yes"/>
			<point x="194" y="503" type="line" smooth="yes"/>
			<point x="212" y="519"/>
			<point x="236" y="541"/>
			<point x="250" y="556" type="curve" smooth="yes"/>
			<point x="272" y="580"/>
			<point x="279" y="598"/>
			<point x="279" y="622" type="curve" smooth="yes"/>
			<point x="279" y="654"/>
			<point x="271" y="673"/>
			<point x="250" y="689" type="curve" smooth="yes"/>
			<point x="226" y="708"/>
			<point x="191" y="709"/>
			<point x="164" y="709" type="curve" smooth="yes"/>
			<point x="85" y="709"/>
			<point x="33" y="654"/>
		</contour>
	</outline>
</glyph>
<glyph name="uni00B9" format="2">
	<unicode hex="00B9"/>
	<advance width="340"/>
	<outline>
		<contour>
			<point x="135" y="640" type="curve" smooth="yes"/>
			<point x="147" y="640"/>
			<point x="149" y="631"/>
			<point x="149" y="599" type="curve" smooth="yes"/>
			<point x="149" y="449" type="line" smooth="yes"/>
			<point x="149" y="398"/>
			<point x="118" y="395"/>
			<point x="78" y="393" type="curve"/>
			<point x="73" y="385"/>
			<point x="74" y="369"/>
			<point x="78" y="363" type="curve"/>
			<point x="108" y="364"/>
			<point x="158" y="364"/>
			<point x="193" y="364" type="curve" smooth="yes"/>
			<point x="232" y="364"/>
			<point x="262" y="364"/>
			<point x="292" y="363" type="curve"/>
			<point x="296" y="370"/>
			<point x="296" y="385"/>
			<point x="292" y="393" type="curve"/>
			<point x="258" y="395"/>
			<point x="237" y="398"/>
			<point x="237" y="449" type="curve" smooth="yes"/>
			<point x="237" y="714" type="line"/>
			<point x="232" y="719"/>
			<point x="210" y="717"/>
			<point x="205" y="714" type="curve"/>
			<point x="160" y="691"/>
			<point x="115" y="675"/>
			<point x="68" y="658" type="curve"/>
			<point x="68" y="646"/>
			<point x="70" y="631"/>
			<point x="78" y="625" type="curve"/>
			<point x="103" y="634"/>
			<point x="122" y="640"/>
		</contour>
	</outline>
</glyph>
<glyph name="ordmasculine" format="2">
	<unicode hex="00BA"/>
	<advance width="368"/>
	<outline>
		<contour>
			<point x="39" y="474" type="curve" smooth="yes"/>
			<point x="39" y="402"/>
			<point x="93" y="348"/>
			<point x="181" y="348" type="curve" smooth="yes"/>
			<point x="281" y="348"/>
			<point x="330" y="412"/>
			<point x="330" y="480" type="curve" smooth="yes"/>
			<point x="330" y="523"/>
			<point x="305" y="570"/>
			<point x="262" y="594" type="curve" smooth="yes"/>
			<point x="238" y="608"/>
			<point x="215" y="611"/>
			<point x="186" y="611" type="curve" smooth="yes"/>
			<point x="108" y="611"/>
			<point x="39" y="559"/>
		</contour>
		<contour>
			<point x="180" y="582" type="curve" smooth="yes"/>
			<point x="230" y="582"/>
			<point x="243" y="544"/>
			<point x="243" y="464" type="curve" smooth="yes"/>
			<point x="243" y="392"/>
			<point x="219" y="381"/>
			<point x="192" y="381" type="curve" smooth="yes"/>
			<point x="132" y="381"/>
			<point x="127" y="435"/>
			<point x="127" y="484" type="curve" smooth="yes"/>
			<point x="127" y="538"/>
			<point x="130" y="582"/>
		</contour>
	</outline>
</glyph>
<glyph name="onequarter" format="2">
	<unicode hex="00BC"/>
	<advance width="700"/>
	<outline>
		<contour>
			<point x="606" y="-50" type="curve" smooth="yes"/>
			<point x="606" y="-29" type="line"/>
			<point x="663" y="-29" type="line"/>
			<point x="666" y="13" type="line"/>
			<point x="606" y="13" type="line"/>
			<point x="606" y="209" type="line" smooth="yes"/>
			<point x="606" y="218"/>
			<point x="599" y="219"/>
			<point x="594" y="219" type="curve" smooth="yes"/>
			<point x="577" y="219"/>
			<point x="561" y="219"/>
			<point x="544" y="219" type="curve"/>
			<point x="537" y="209"/>
			<point x="527" y="196"/>
			<point x="517" y="183" type="curve" smooth="yes"/>
			<point x="478" y="133"/>
			<point x="424" y="65"/>
			<point x="386" y="12" type="curve" smooth="yes"/>
			<point x="381" y="5"/>
			<point x="376" y="-1"/>
			<point x="371" y="-8" type="curve"/>
			<point x="365" y="-17" type="line"/>
			<point x="369" y="-21"/>
			<point x="373" y="-25"/>
			<point x="377" y="-29" type="curve"/>
			<point x="381" y="-29"/>
			<point x="386" y="-29"/>
			<point x="390" y="-29" type="curve" smooth="yes"/>
			<point x="523" y="-29" type="line"/>
			<point x="523" y="-50" type="line" smooth="yes"/>
			<point x="523" y="-101"/>
			<point x="492" y="-104"/>
			<point x="452" y="-106" type="curve"/>
			<point x="447" y="-114"/>
			<point x="448" y="-130"/>
			<point x="452" y="-136" type="curve"/>
			<point x="482" y="-135"/>
			<point x="513" y="-135"/>
			<point x="548" y="-135" type="curve" smooth="yes"/>
			<point x="563" y="-135" type="line" smooth="yes"/>
			<point x="599" y="-135"/>
			<point x="630" y="-135"/>
			<point x="656" y="-136" type="curve"/>
			<point x="660" y="-129"/>
			<point x="660" y="-114"/>
			<point x="656" y="-106" type="curve"/>
			<point x="622" y="-104"/>
			<point x="606" y="-101"/>
		</contour>
		<contour>
			<point x="132" y="591" type="curve" smooth="yes"/>
			<point x="144" y="591"/>
			<point x="146" y="582"/>
			<point x="146" y="550" type="curve" smooth="yes"/>
			<point x="146" y="400" type="line" smooth="yes"/>
			<point x="146" y="349"/>
			<point x="115" y="346"/>
			<point x="75" y="344" type="curve"/>
			<point x="70" y="336"/>
			<point x="71" y="320"/>
			<point x="75" y="314" type="curve"/>
			<point x="105" y="315"/>
			<point x="155" y="315"/>
			<point x="190" y="315" type="curve" smooth="yes"/>
			<point x="229" y="315"/>
			<point x="259" y="315"/>
			<point x="289" y="314" type="curve"/>
			<point x="293" y="321"/>
			<point x="293" y="336"/>
			<point x="289" y="344" type="curve"/>
			<point x="255" y="346"/>
			<point x="234" y="349"/>
			<point x="234" y="400" type="curve"/>
			<point x="234" y="400"/>
			<point x="234" y="400"/>
			<point x="234" y="400" type="curve"/>
			<point x="234" y="665" type="line"/>
			<point x="231" y="668"/>
			<point x="220" y="669"/>
			<point x="211" y="667" type="curve"/>
			<point x="207" y="667"/>
			<point x="204" y="666"/>
			<point x="202" y="665" type="curve" smooth="yes"/>
			<point x="157" y="642"/>
			<point x="112" y="626"/>
			<point x="65" y="609" type="curve"/>
			<point x="65" y="597"/>
			<point x="67" y="582"/>
			<point x="75" y="576" type="curve"/>
			<point x="100" y="585"/>
			<point x="119" y="591"/>
		</contour>
		<contour>
			<point x="572" y="601" type="line"/>
			<point x="114" y="-54" type="line"/>
			<point x="155" y="-62" type="line"/>
			<point x="614" y="593" type="line"/>
		</contour>
		<contour>
			<point x="523" y="140" type="curve"/>
			<point x="523" y="13" type="line"/>
			<point x="428" y="13" type="line"/>
			<point x="460" y="55"/>
			<point x="491" y="98"/>
		</contour>
	</outline>
</glyph>
<glyph name="Aring" format="2">
	<unicode hex="00C5"/>
	<advance width="740"/>
	<outline>
		<contour>
			<point x="165" y="79" type="curve" smooth="yes"/>
			<point x="218" y="218" type="line" smooth="yes"/>
			<point x="223" y="231"/>
			<point x="229" y="235"/>
			<point x="253" y="235" type="curve" smooth="yes"/>
			<point x="443" y="235" type="line"/>
			<point x="499" y="72" type="line" smooth="yes"/>
			<point x="511" y="36"/>
			<point x="482" y="35"/>
			<point x="444" y="33" type="curve"/>
			<point x="438" y="33"/>
			<point x="431" y="32"/>
			<point x="425" y="32" type="curve"/>
			<point x="419" y="26"/>
			<point x="419" y="4"/>
			<point x="425" y="-2" type="curve"/>
			<point x="462" y="-1"/>
			<point x="557" y="0"/>
			<point x="596" y="0" type="curve" smooth="yes"/>
			<point x="637" y="0"/>
			<point x="693" y="-1"/>
			<point x="730" y="-2" type="curve"/>
			<point x="736" y="4"/>
			<point x="736" y="26"/>
			<point x="730" y="32" type="curve"/>
			<point x="691" y="36"/>
			<point x="658" y="35"/>
			<point x="640" y="86" type="curve" smooth="yes"/>
			<point x="441" y="640" type="line"/>
			<point x="449" y="653"/>
			<point x="454" y="668"/>
			<point x="454" y="684" type="curve" smooth="yes"/>
			<point x="454" y="725"/>
			<point x="423" y="758"/>
			<point x="385" y="765" type="curve" smooth="yes"/>
			<point x="379" y="766"/>
			<point x="374" y="767"/>
			<point x="368" y="767" type="curve" smooth="yes"/>
			<point x="321" y="767"/>
			<point x="283" y="730"/>
			<point x="283" y="684" type="curve" smooth="yes"/>
			<point x="283" y="654"/>
			<point x="300" y="628"/>
			<point x="324" y="613" type="curve"/>
			<point x="107" y="102" type="line" smooth="yes"/>
			<point x="81" y="40"/>
			<point x="51" y="35"/>
			<point x="7" y="32" type="curve"/>
			<point x="1" y="26"/>
			<point x="1" y="4"/>
			<point x="7" y="-2" type="curve"/>
			<point x="44" y="-1"/>
			<point x="62" y="0"/>
			<point x="101" y="0" type="curve" smooth="yes"/>
			<point x="142" y="0"/>
			<point x="197" y="-1"/>
			<point x="234" y="-2" type="curve"/>
			<point x="240" y="4"/>
			<point x="240" y="26"/>
			<point x="234" y="32" type="curve"/>
			<point x="196" y="35"/>
			<point x="149" y="38"/>
		</contour>
		<contour>
			<point x="368" y="733" type="curve" smooth="yes"/>
			<point x="395" y="733"/>
			<point x="416" y="713"/>
			<point x="416" y="684" type="curve" smooth="yes"/>
			<point x="416" y="658"/>
			<point x="397" y="635"/>
			<point x="368" y="635" type="curve" smooth="yes"/>
			<point x="339" y="635"/>
			<point x="321" y="658"/>
			<point x="321" y="684" type="curve" smooth="yes"/>
			<point x="321" y="712"/>
			<point x="340" y="733"/>
		</contour>
		<contour>
			<point x="273" y="283" type="line" smooth="yes"/>
			<point x="251" y="283"/>
			<point x="244" y="286"/>
			<point x="248" y="296" type="curve" smooth="yes"/>
			<point x="336" y="520" type="line"/>
			<point x="343" y="520" type="line"/>
			<point x="425" y="283" type="line"/>
		</contour>
	</outline>
	<anchor name="m.uni0302" x="364" y="894"/>
</glyph>
<glyph name="multiply" format="2">
	<unicode hex="00D7"/>
	<advance width="527"/>
	<outline>
		<contour>
			<point x="306" y="232" type="line"/>
			<point x="426" y="351" type="line"/>
			<point x="382" y="393" type="line"/>
			<point x="266" y="273" type="line"/>
			<point x="147" y="393" type="line"/>
			<point x="103" y="346" type="line"/>
			<point x="221" y="227" type="line"/>
			<point x="103" y="111" type="line"/>
			<point x="144" y="69" type="line"/>
			<point x="262" y="187" type="line"/>
			<point x="383" y="69" type="line"/>
			<point x="426" y="111" type="line"/>
		</contour>
	</outline>
</glyph>
<glyph name="Oslash" format="2">
	<unicode hex="00D8"/>
	<advance width="730"/>
	<outline>
		<contour>
			<point x="88" y="-45" type="curve"/>
			<point x="166" y="52" type="line"/>
			<point x="223" y="12"/>
			<point x="292" y="-10"/>
			<point x="364" y="-10" type="curve" smooth="yes"/>
			<point x="467" y="-10"/>
			<point x="551" y="27"/>
			<point x="608" y="89" type="curve"/>
			<point x="614" y="95"/>
			<point x="619" y="101"/>
			<point x="624" y="108" type="curve"/>
			<point x="669" y="166"/>
			<point x="694" y="241"/>
			<point x="694" y="329" type="curve" smooth="yes"/>
			<point x="694" y="432"/>
			<point x="654" y="517"/>
			<point x="591" y="574" type="curve"/>
			<point x="645" y="641" type="line"/>
			<point x="633" y="651"/>
			<point x="620" y="660"/>
			<point x="608" y="670" type="curve"/>
			<point x="554" y="603" type="line"/>
			<point x="500" y="638"/>
			<point x="434" y="658"/>
			<point x="363" y="658" type="curve" smooth="yes"/>
			<point x="263" y="658"/>
			<point x="176" y="615"/>
			<point x="118" y="546" type="curve" smooth="yes"/>
			<point x="66" y="484"/>
			<point x="37" y="401"/>
			<point x="37" y="309" type="curve" smooth="yes"/>
			<point x="37" y="214"/>
			<point x="73" y="136"/>
			<point x="130" y="82" type="curve"/>
			<point x="52" y="-14" type="line"/>
			<point x="64" y="-24"/>
			<point x="76" y="-35"/>
		</contour>
		<contour>
			<point x="516" y="482" type="line"/>
			<point x="533" y="436"/>
			<point x="543" y="378"/>
			<point x="543" y="308" type="curve" smooth="yes"/>
			<point x="543" y="142"/>
			<point x="485" y="32"/>
			<point x="384" y="32" type="curve" smooth="yes"/>
			<point x="322" y="32"/>
			<point x="267" y="67"/>
			<point x="231" y="132" type="curve"/>
		</contour>
		<contour>
			<point x="351" y="616" type="curve" smooth="yes"/>
			<point x="408" y="616"/>
			<point x="458" y="587"/>
			<point x="493" y="529" type="curve"/>
			<point x="210" y="180" type="line"/>
			<point x="196" y="222"/>
			<point x="188" y="272"/>
			<point x="188" y="329" type="curve" smooth="yes"/>
			<point x="188" y="533"/>
			<point x="262" y="616"/>
		</contour>
	</outline>
	<anchor name="m.uni0302" x="351" y="850"/>
	<anchor name="m.uni0316_2" x="350" y="-110"/>
</glyph>
<glyph name="Thorn" format="2">
	<unicode hex="00DE"/>
	<advance width="616"/>
	<outline>
		<contour>
			<point x="114" y="523" type="curve" smooth="yes"/>
			<point x="114" y="122" type="line" smooth="yes"/>
			<point x="114" y="39"/>
			<point x="86" y="35"/>
			<point x="31" y="32" type="curve"/>
			<point x="21" y="26"/>
			<point x="21" y="4"/>
			<point x="31" y="-2" type="curve"/>
			<point x="71" y="-1"/>
			<point name=".hr01" x="145" y="0"/>
			<point x="185" y="0" type="curve" smooth="yes"/>
			<point x="225" y="0"/>
			<point x="297" y="-1"/>
			<point x="337" y="-2" type="curve"/>
			<point x="347" y="4"/>
			<point x="347" y="26"/>
			<point name=".hr02" x="337" y="32" type="curve"/>
			<point x="282" y="35"/>
			<point x="254" y="39"/>
			<point x="254" y="122" type="curve" smooth="yes"/>
			<point x="254" y="126.065"/>
			<point x="254" y="151.935"/>
			<point name=".hr03" x="254" y="156" type="curve"/>
			<point x="271" y="151"/>
			<point x="305" y="150"/>
			<point x="339" y="150" type="curve" smooth="yes"/>
			<point x="516" y="150"/>
			<point x="582" y="268"/>
			<point name=".hr04" x="582" y="343" type="curve" smooth="yes"/>
			<point x="582" y="414"/>
			<point x="537" y="523"/>
			<point x="352" y="523" type="curve" smooth="yes"/>
			<point x="335" y="523"/>
			<point x="291" y="523"/>
			<point x="254" y="521" type="curve"/>
			<point x="254" y="523" type="line" smooth="yes"/>
			<point x="254" y="606"/>
			<point x="282" y="610"/>
			<point x="337" y="613" type="curve"/>
			<point x="347" y="619"/>
			<point x="347" y="641"/>
			<point x="337" y="647" type="curve"/>
			<point x="297" y="646"/>
			<point x="225" y="645"/>
			<point x="185" y="645" type="curve" smooth="yes"/>
			<point x="145" y="645"/>
			<point x="71" y="646"/>
			<point name=".hr05" x="31" y="647" type="curve"/>
			<point x="21" y="641"/>
			<point x="21" y="619"/>
			<point x="31" y="613" type="curve"/>
			<point x="86" y="610"/>
			<point x="114" y="606"/>
		</contour>
		<contour>
			<point x="254" y="194" type="curve"/>
			<point name=".hr06" x="254" y="228.503"/>
			<point x="254" y="447.984"/>
			<point x="254" y="478" type="curve"/>
			<point x="277" y="478"/>
			<point x="322" y="482"/>
			<point x="340" y="482" type="curve" smooth="yes"/>
			<point name=".hr07" x="400" y="482"/>
			<point x="431" y="431"/>
			<point x="431" y="343" type="curve" smooth="yes"/>
			<point x="431" y="234"/>
			<point x="394" y="191"/>
			<point x="322" y="191" type="curve" smooth="yes"/>
			<point x="288" y="191"/>
			<point x="265" y="193"/>
		</contour>
	</outline>
	<anchor name="m.uni0302" x="281" y="850"/>
</glyph>
<glyph name="ae" format="2">
	<unicode hex="00E6"/>
	<advance width="715"/>
	<outline>
		<contour>
			<point x="37" y="99" type="curve" smooth="yes"/>
			<point x="37" y="15"/>
			<point x="113" y="-10"/>
			<point x="182" y="-10" type="curve" smooth="yes"/>
			<point x="210" y="-10"/>
			<point x="293" y="12"/>
			<point x="337" y="67" type="curve"/>
			<point x="364" y="8"/>
			<point x="450" y="-10"/>
			<point x="507" y="-10" type="curve" smooth="yes"/>
			<point x="576" y="-10"/>
			<point x="634" y="25"/>
			<point x="684" y="98" type="curve"/>
			<point x="684" y="111"/>
			<point x="679" y="129"/>
			<point x="669" y="129" type="curve"/>
			<point x="628" y="87"/>
			<point name=".hr01" x="562" y="71"/>
			<point x="524" y="71" type="curve" smooth="yes"/>
			<point x="463" y="71"/>
			<point x="417" y="116"/>
			<point x="416" y="217" type="curve"/>
			<point x="523" y="219"/>
			<point x="639" y="219"/>
			<point x="680" y="246" type="curve"/>
			<point x="683" y="266"/>
			<point x="684" y="274"/>
			<point x="684" y="295" type="curve" smooth="yes"/>
			<point x="684" y="357"/>
			<point x="662" y="444"/>
			<point x="513" y="444" type="curve" smooth="yes"/>
			<point x="456" y="444"/>
			<point x="408" y="431"/>
			<point x="368" y="374" type="curve"/>
			<point x="342" y="428"/>
			<point x="273" y="444"/>
			<point x="220" y="444" type="curve" smooth="yes"/>
			<point x="148" y="444"/>
			<point x="53" y="399"/>
			<point x="53" y="339" type="curve" smooth="yes"/>
			<point x="53" y="313"/>
			<point x="70" y="287"/>
			<point x="105" y="287" type="curve" smooth="yes"/>
			<point x="150" y="287"/>
			<point x="162" y="314"/>
			<point x="162" y="328" type="curve" smooth="yes"/>
			<point x="162" y="340"/>
			<point x="155" y="351"/>
			<point x="155" y="371" type="curve" smooth="yes"/>
			<point x="155" y="393"/>
			<point x="181" y="402"/>
			<point x="218" y="402" type="curve" smooth="yes"/>
			<point x="265" y="402"/>
			<point x="291" y="353"/>
			<point name=".hr02" x="291" y="248" type="curve"/>
			<point x="124" y="234"/>
			<point x="37" y="182"/>
		</contour>
		<contour>
			<point x="151" y="111" type="curve" smooth="yes"/>
			<point x="151" y="156"/>
			<point x="196" y="197"/>
			<point x="291" y="209" type="curve"/>
			<point x="290" y="162"/>
			<point x="291" y="107"/>
			<point x="284" y="93" type="curve" smooth="yes"/>
			<point x="264" y="52"/>
			<point x="221" y="40"/>
			<point x="197" y="40" type="curve" smooth="yes"/>
			<point x="158" y="40"/>
			<point x="151" y="81"/>
		</contour>
		<contour>
			<point x="418" y="255" type="curve"/>
			<point x="427" y="334"/>
			<point name=".hr03" x="450" y="402"/>
			<point x="502" y="402" type="curve" smooth="yes"/>
			<point x="558" y="402"/>
			<point x="579" y="344"/>
			<point x="579" y="283" type="curve"/>
			<point x="559" y="260"/>
			<point x="488" y="260"/>
		</contour>
	</outline>
	<anchor name="m.uni0302" x="332" y="644"/>
	<anchor name="m.uni0316_2" x="327" y="-109"/>
	<anchor name="b.uni0321_4" x="604" y="30"/>
	<anchor name="t.uni0302" x="356" y="500"/>
</glyph>
<glyph name="oslash" format="2">
	<unicode hex="00F8"/>
	<advance width="567"/>
	<outline>
		<contour>
			<point x="450" y="475" type="curve"/>
			<point x="403" y="417" type="line"/>
			<point x="368" y="434"/>
			<point x="328" y="444"/>
			<point x="281" y="444" type="curve" smooth="yes"/>
			<point x="198" y="444"/>
			<point x="136" y="415"/>
			<point x="97" y="370" type="curve" smooth="yes"/>
			<point x="59" y="326"/>
			<point x="42" y="266"/>
			<point x="42" y="207" type="curve" smooth="yes"/>
			<point x="42" y="145"/>
			<point x="66" y="93"/>
			<point x="105" y="55" type="curve"/>
			<point x="58" y="-2" type="line"/>
			<point x="64.2539" y="-7.55901"/>
			<point x="87.3877" y="-28.1224"/>
			<point x="94" y="-34" type="curve"/>
			<point x="143" y="26" type="line"/>
			<point x="181" y="3"/>
			<point name=".hr01" x="228" y="-10"/>
			<point x="280" y="-10" type="curve" smooth="yes"/>
			<point x="351" y="-10"/>
			<point x="410" y="10"/>
			<point x="451" y="47" type="curve" smooth="yes"/>
			<point x="502" y="92"/>
			<point x="519" y="160"/>
			<point x="519" y="216" type="curve" smooth="yes"/>
			<point x="519" y="288"/>
			<point x="492" y="350"/>
			<point x="442" y="391" type="curve"/>
			<point x="487" y="446" type="line"/>
			<point x="480.962" y="450.733"/>
			<point x="457.547" y="469.085"/>
		</contour>
		<contour>
			<point x="366" y="298" type="line"/>
			<point x="374" y="266"/>
			<point x="379" y="228"/>
			<point x="379" y="184" type="curve" smooth="yes"/>
			<point x="379" y="64"/>
			<point x="332" y="32"/>
			<point x="296" y="32" type="curve" smooth="yes"/>
			<point x="254" y="32"/>
			<point x="226" y="64"/>
			<point x="207" y="105" type="curve"/>
		</contour>
		<contour>
			<point x="265" y="402" type="curve" smooth="yes"/>
			<point x="298" y="402"/>
			<point x="326" y="383"/>
			<point x="346" y="348" type="curve"/>
			<point x="190" y="159" type="line"/>
			<point x="185" y="183"/>
			<point x="182" y="208"/>
			<point x="182" y="229" type="curve" smooth="yes"/>
			<point x="182" y="321"/>
			<point x="198" y="402"/>
		</contour>
	</outline>
	<anchor name="m.uni0316_2" x="243" y="-110"/>
	<anchor name="b.uni0321_4" x="372" y="44"/>
</glyph>
<glyph name="thorn" format="2">
	<unicode hex="00FE"/>
	<advance width="588"/>
	<outline>
		<contour>
			<point x="232" y="-110" type="curve" smooth="yes"/>
			<point x="232" y="-10" type="line" smooth="yes"/>
			<point x="232" y="-4"/>
			<point x="232" y="1"/>
			<point x="232" y="7" type="curve"/>
			<point x="238" y="4"/>
			<point x="243" y="2"/>
			<point x="248" y="0" type="curve"/>
			<point x="248" y="0" type="line"/>
			<point x="265" y="-7"/>
			<point x="281" y="-10"/>
			<point x="299" y="-10" type="curve" smooth="yes"/>
			<point x="364" y="-10"/>
			<point x="420" y="8"/>
			<point x="462" y="41" type="curve" smooth="yes"/>
			<point x="518" y="84"/>
			<point x="550" y="153"/>
			<point x="550" y="237" type="curve" smooth="yes"/>
			<point x="550" y="293"/>
			<point x="529" y="355"/>
			<point x="490" y="394" type="curve" smooth="yes"/>
			<point x="455" y="429"/>
			<point x="405" y="444"/>
			<point x="353" y="444" type="curve" smooth="yes"/>
			<point x="324" y="444"/>
			<point x="270" y="413"/>
			<point x="235" y="381" type="curve"/>
			<point x="234" y="380"/>
			<point x="233" y="379"/>
			<point x="232" y="378" type="curve"/>
			<point x="232" y="575" type="line" smooth="yes"/>
			<point x="232" y="625"/>
			<point x="236" y="681"/>
			<point x="236" y="681" type="curve"/>
			<point x="236" y="692"/>
			<point x="227" y="698"/>
			<point x="213" y="698" type="curve"/>
			<point x="185" y="687"/>
			<point x="104" y="679"/>
			<point x="35" y="670" type="curve"/>
			<point x="33" y="664"/>
			<point x="35" y="642"/>
			<point x="37" y="636" type="curve"/>
			<point x="46" y="635"/>
			<point x="54" y="634"/>
			<point x="61" y="633" type="curve" smooth="yes"/>
			<point x="95" y="628"/>
			<point x="102" y="616"/>
			<point x="102" y="568" type="curve" smooth="yes"/>
			<point x="102" y="-110" type="line" smooth="yes"/>
			<point x="102" y="-193"/>
			<point x="91" y="-195"/>
			<point x="30" y="-200" type="curve"/>
			<point x="24" y="-206"/>
			<point x="24" y="-228"/>
			<point x="30" y="-234" type="curve"/>
			<point x="72" y="-233"/>
			<point x="114" y="-232"/>
			<point x="167" y="-232" type="curve" smooth="yes"/>
			<point x="220" y="-232"/>
			<point x="261" y="-233"/>
			<point x="304" y="-234" type="curve"/>
			<point x="310" y="-228"/>
			<point x="310" y="-206"/>
			<point x="304" y="-200" type="curve"/>
			<point x="243" y="-196"/>
			<point x="232" y="-193"/>
		</contour>
		<contour>
			<point x="232" y="341" type="line"/>
			<point x="261" y="368"/>
			<point x="297" y="377"/>
			<point x="321" y="377" type="curve" smooth="yes"/>
			<point x="337" y="377"/>
			<point x="355" y="369"/>
			<point x="370" y="352" type="curve" smooth="yes"/>
			<point x="393" y="326"/>
			<point x="410" y="280"/>
			<point x="410" y="210" type="curve" smooth="yes"/>
			<point x="410" y="126"/>
			<point x="380" y="32"/>
			<point x="293" y="32" type="curve" smooth="yes"/>
			<point x="285" y="32"/>
			<point x="269" y="35"/>
			<point x="251" y="48" type="curve"/>
			<point x="245" y="53"/>
			<point x="238" y="58"/>
			<point x="232" y="65" type="curve"/>
			<point x="232" y="80"/>
			<point x="232" y="96"/>
			<point x="232" y="111" type="curve" smooth="yes"/>
		</contour>
	</outline>
	<anchor name="m.uni0302" x="278" y="646"/>
</glyph>
<glyph name="Eogonek" format="2">
	<unicode hex="0118"/>
	<advance width="609"/>
	<outline>
		<contour>
			<point x="497" y="-177" type="curve"/>
			<point x="492" y="-169"/>
			<point x="487" y="-162"/>
			<point x="482" y="-154" type="curve"/>
			<point x="471" y="-165"/>
			<point x="454" y="-170"/>
			<point x="440" y="-171" type="curve"/>
			<point x="435" y="-172"/>
			<point x="430" y="-172"/>
			<point x="426" y="-172" type="curve" smooth="yes"/>
			<point x="409" y="-172"/>
			<point x="391" y="-162"/>
			<point x="391" y="-130" type="curve" smooth="yes"/>
			<point x="391" y="-70"/>
			<point x="428" y="-11"/>
			<point x="474" y="-1" type="curve"/>
			<point x="474" y="-1"/>
			<point x="474" y="-1"/>
			<point x="474" y="-1" type="curve"/>
			<point x="511" y="-1"/>
			<point x="543" y="-2"/>
			<point x="543" y="-2" type="curve"/>
			<point x="543" y="-2" type="line"/>
			<point x="557" y="48"/>
			<point x="562" y="114"/>
			<point x="570" y="165" type="curve"/>
			<point x="560" y="171"/>
			<point x="538" y="173"/>
			<point x="525" y="170" type="curve"/>
			<point x="505" y="98"/>
			<point x="460" y="42"/>
			<point x="384" y="42" type="curve" smooth="yes"/>
			<point x="283" y="42" type="line"/>
			<point x="283" y="42" type="line"/>
			<point x="261" y="42"/>
			<point x="242" y="63"/>
			<point x="242" y="90" type="curve" smooth="yes"/>
			<point x="242" y="95"/>
			<point x="242" y="100"/>
			<point x="242" y="105" type="curve" smooth="yes"/>
			<point x="242" y="319" type="line"/>
			<point x="296" y="319" type="line" smooth="yes"/>
			<point x="305" y="319"/>
			<point x="314" y="319"/>
			<point x="323" y="319" type="curve" smooth="yes"/>
			<point x="392" y="319"/>
			<point x="411" y="300"/>
			<point x="414" y="255" type="curve"/>
			<point x="420" y="249"/>
			<point x="451" y="249"/>
			<point x="457" y="255" type="curve"/>
			<point x="456" y="290"/>
			<point x="455" y="309"/>
			<point x="455" y="343" type="curve" smooth="yes"/>
			<point x="455" y="377"/>
			<point x="456" y="399"/>
			<point x="457" y="429" type="curve"/>
			<point x="451" y="435"/>
			<point x="420" y="435"/>
			<point x="414" y="429" type="curve"/>
			<point x="411" y="374"/>
			<point x="390" y="365"/>
			<point x="323" y="365" type="curve" smooth="yes"/>
			<point x="319" y="365"/>
			<point x="314" y="365"/>
			<point x="310" y="365" type="curve" smooth="yes"/>
			<point x="242" y="365" type="line"/>
			<point x="242" y="554" type="line" smooth="yes"/>
			<point x="242" y="578"/>
			<point x="259" y="603"/>
			<point x="283" y="603" type="curve" smooth="yes"/>
			<point x="354" y="603" type="line"/>
			<point x="368" y="603" type="line" smooth="yes"/>
			<point x="443" y="603"/>
			<point x="464" y="565"/>
			<point x="486" y="496" type="curve"/>
			<point x="498" y="494"/>
			<point x="519" y="496"/>
			<point x="529" y="501" type="curve"/>
			<point x="524" y="542"/>
			<point x="519" y="638"/>
			<point x="517" y="646" type="curve"/>
			<point x="517" y="648"/>
			<point x="516" y="649"/>
			<point x="513" y="649" type="curve"/>
			<point x="496" y="646"/>
			<point x="488" y="645"/>
			<point x="464" y="645" type="curve" smooth="yes"/>
			<point x="454" y="645"/>
			<point x="443" y="645"/>
			<point x="433" y="645" type="curve" smooth="yes"/>
			<point x="169" y="645" type="line"/>
			<point x="158" y="645" type="line" smooth="yes"/>
			<point x="130" y="645"/>
			<point x="55" y="646"/>
			<point x="15" y="647" type="curve"/>
			<point x="9" y="641"/>
			<point x="9" y="619"/>
			<point x="15" y="613" type="curve"/>
			<point x="85" y="610"/>
			<point x="102" y="605"/>
			<point x="102" y="522" type="curve" smooth="yes"/>
			<point x="102" y="122" type="line" smooth="yes"/>
			<point x="102" y="114"/>
			<point x="102" y="106"/>
			<point x="101" y="99" type="curve"/>
			<point x="98" y="38"/>
			<point x="78" y="35"/>
			<point x="15" y="32" type="curve"/>
			<point x="9" y="26"/>
			<point x="9" y="4"/>
			<point x="15" y="-2" type="curve"/>
			<point x="54" y="-1"/>
			<point name=".hr01" x="130" y="0"/>
			<point x="159" y="0" type="curve" smooth="yes"/>
			<point x="170" y="0" type="line"/>
			<point x="383" y="0" type="line"/>
			<point x="398" y="0" type="line"/>
			<point x="346" y="-31"/>
			<point x="299" y="-88"/>
			<point x="299" y="-136" type="curve" smooth="yes"/>
			<point x="299" y="-176"/>
			<point x="315" y="-201"/>
			<point x="338" y="-216" type="curve" smooth="yes"/>
			<point x="352" y="-225"/>
			<point x="369" y="-232"/>
			<point x="388" y="-232" type="curve" smooth="yes"/>
			<point x="398" y="-232"/>
			<point x="408" y="-231"/>
			<point x="418" y="-228" type="curve"/>
			<point x="448" y="-221"/>
			<point x="478" y="-204"/>
		</contour>
	</outline>
	<anchor name="m.uni0302" x="273" y="850"/>
	<anchor name="m.uni0316_2" x="279" y="-110"/>
	<anchor name="m.uni031A_3" x="519" y="732"/>
</glyph>
<glyph name="Hbar" format="2">
	<unicode hex="0126"/>
	<advance width="817"/>
	<outline>
		<contour>
			<point x="254" y="537" type="curve"/>
			<point x="257" y="607"/>
			<point x="285" y="610"/>
			<point x="337" y="613" type="curve"/>
			<point x="347" y="619"/>
			<point x="347" y="641"/>
			<point x="337" y="647" type="curve"/>
			<point x="297" y="646"/>
			<point x="225" y="645"/>
			<point x="185" y="645" type="curve" smooth="yes"/>
			<point x="172" y="645" type="line" smooth="yes"/>
			<point x="131" y="645"/>
			<point x="67" y="646"/>
			<point x="31" y="647" type="curve"/>
			<point x="21" y="641"/>
			<point x="21" y="619"/>
			<point x="31" y="613" type="curve"/>
			<point x="83" y="610"/>
			<point x="110" y="607"/>
			<point x="114" y="538" type="curve"/>
			<point x="73" y="539"/>
			<point x="40" y="539"/>
			<point x="27" y="540" type="curve"/>
			<point x="18" y="490" type="line"/>
			<point x="32" y="491"/>
			<point x="69" y="492"/>
			<point x="114" y="492" type="curve"/>
			<point x="114" y="122" type="line" smooth="yes"/>
			<point x="114" y="39"/>
			<point x="86" y="35"/>
			<point x="31" y="32" type="curve"/>
			<point x="21" y="26"/>
			<point x="21" y="4"/>
			<point x="31" y="-2" type="curve"/>
			<point x="67" y="-1"/>
			<point x="131" y="0"/>
			<point x="172" y="0" type="curve" smooth="yes"/>
			<point x="185" y="0" type="line" smooth="yes"/>
			<point x="225" y="0"/>
			<point x="297" y="-1"/>
			<point x="337" y="-2" type="curve"/>
			<point x="347" y="4"/>
			<point x="347" y="26"/>
			<point x="337" y="32" type="curve"/>
			<point x="282" y="35"/>
			<point x="254" y="39"/>
			<point x="254" y="122" type="curve" smooth="yes"/>
			<point x="254" y="319" type="line"/>
			<point x="564" y="319" type="line"/>
			<point x="564" y="122" type="line" smooth="yes"/>
			<point x="564" y="39"/>
			<point x="536" y="35"/>
			<point x="481" y="32" type="curve"/>
			<point x="471" y="26"/>
			<point x="471" y="4"/>
			<point x="481" y="-2" type="curve"/>
			<point x="521" y="-1"/>
			<point x="595" y="0"/>
			<point x="635" y="0" type="curve" smooth="yes"/>
			<point x="648" y="0" type="line" smooth="yes"/>
			<point x="689" y="0"/>
			<point x="751" y="-1"/>
			<point x="787" y="-2" type="curve"/>
			<point x="797" y="4"/>
			<point x="797" y="26"/>
			<point x="787" y="32" type="curve"/>
			<point x="732" y="35"/>
			<point x="704" y="39"/>
			<point x="704" y="122" type="curve" smooth="yes"/>
			<point x="704" y="491" type="line"/>
			<point x="720" y="491"/>
			<point x="733" y="491"/>
			<point x="740" y="490" type="curve"/>
			<point x="749" y="540" type="line"/>
			<point x="741" y="539"/>
			<point x="725" y="539"/>
			<point x="704" y="539" type="curve"/>
			<point x="708" y="607"/>
			<point x="736" y="610"/>
			<point x="787" y="613" type="curve"/>
			<point x="797" y="619"/>
			<point x="797" y="641"/>
			<point x="787" y="647" type="curve"/>
			<point x="751" y="646"/>
			<point x="689" y="645"/>
			<point x="648" y="645" type="curve" smooth="yes"/>
			<point x="635" y="645" type="line" smooth="yes"/>
			<point x="595" y="645"/>
			<point x="521" y="646"/>
			<point x="481" y="647" type="curve"/>
			<point x="471" y="641"/>
			<point x="471" y="619"/>
			<point x="481" y="613" type="curve"/>
			<point x="533" y="610"/>
			<point x="561" y="607"/>
			<point x="564" y="537" type="curve"/>
			<point x="491" y="536"/>
			<point x="421" y="536"/>
			<point x="396" y="536" type="curve" smooth="yes"/>
			<point x="375" y="536"/>
			<point x="318" y="536"/>
		</contour>
		<contour>
			<point x="564" y="493" type="curve"/>
			<point x="564" y="367" type="line"/>
			<point x="254" y="367" type="line"/>
			<point x="254" y="494" type="line"/>
			<point x="387" y="494" type="line" smooth="yes"/>
			<point x="413" y="494"/>
			<point x="489" y="494"/>
		</contour>
	</outline>
</glyph>
<glyph name="hbar" format="2">
	<unicode hex="0127"/>
	<advance width="619"/>
	<outline>
		<contour>
			<point x="528" y="128" type="curve" smooth="yes"/>
			<point x="528" y="268" type="line" smooth="yes"/>
			<point x="528" y="274"/>
			<point x="528" y="279"/>
			<point x="528" y="284" type="curve" smooth="yes"/>
			<point x="528" y="343"/>
			<point x="515" y="384"/>
			<point x="489" y="410" type="curve" smooth="yes"/>
			<point x="467" y="433"/>
			<point x="435" y="444"/>
			<point x="395" y="444" type="curve" smooth="yes"/>
			<point x="361" y="444"/>
			<point x="299" y="413"/>
			<point x="245" y="381" type="curve"/>
			<point x="245" y="381"/>
			<point x="245" y="381"/>
			<point x="245" y="381" type="curve"/>
			<point x="240" y="378"/>
			<point x="235" y="375"/>
			<point x="230" y="372" type="curve"/>
			<point x="230" y="377"/>
			<point x="230" y="382"/>
			<point x="230" y="387" type="curve" smooth="yes"/>
			<point x="230" y="523" type="line"/>
			<point x="259" y="523"/>
			<point x="287" y="522"/>
			<point x="313" y="520" type="curve"/>
			<point x="322" y="570" type="line"/>
			<point x="294" y="568"/>
			<point x="262" y="567"/>
			<point x="230" y="567" type="curve"/>
			<point x="230" y="583" type="line" smooth="yes"/>
			<point x="230" y="648"/>
			<point x="233" y="685"/>
			<point x="233" y="685" type="curve"/>
			<point x="233" y="694"/>
			<point x="226" y="698"/>
			<point x="217" y="698" type="curve"/>
			<point x="180" y="686"/>
			<point x="100" y="675"/>
			<point x="29" y="672" type="curve"/>
			<point x="26" y="660"/>
			<point x="27" y="649"/>
			<point x="32" y="640" type="curve"/>
			<point x="40" y="639"/>
			<point x="47" y="639"/>
			<point x="53" y="638" type="curve"/>
			<point x="96" y="634"/>
			<point x="100" y="626"/>
			<point x="100" y="567" type="curve"/>
			<point x="73" y="567"/>
			<point x="48" y="568"/>
			<point x="24" y="570" type="curve"/>
			<point x="15" y="520" type="line"/>
			<point x="41" y="522"/>
			<point x="70" y="523"/>
			<point x="100" y="523" type="curve"/>
			<point x="100" y="127" type="line" smooth="yes"/>
			<point x="100" y="44"/>
			<point x="84" y="35"/>
			<point x="23" y="32" type="curve"/>
			<point x="17" y="26"/>
			<point x="17" y="4"/>
			<point x="23" y="-2" type="curve"/>
			<point x="60" y="-1"/>
			<point x="100" y="0"/>
			<point x="147" y="0" type="curve" smooth="yes"/>
			<point x="153" y="0"/>
			<point x="159" y="0"/>
			<point x="165" y="0" type="curve" smooth="yes"/>
			<point x="213" y="0"/>
			<point x="244" y="-1"/>
			<point x="287" y="-2" type="curve"/>
			<point x="293" y="4"/>
			<point x="293" y="26"/>
			<point x="287" y="32" type="curve"/>
			<point x="245" y="35"/>
			<point x="230" y="44"/>
			<point x="230" y="127" type="curve" smooth="yes"/>
			<point x="230" y="285" type="line" smooth="yes"/>
			<point x="230" y="300"/>
			<point x="230" y="316"/>
			<point x="230" y="332" type="curve"/>
			<point x="272" y="358"/>
			<point x="305" y="370"/>
			<point x="323" y="370" type="curve" smooth="yes"/>
			<point x="333" y="370"/>
			<point x="343" y="369"/>
			<point x="352" y="366" type="curve"/>
			<point x="369" y="361"/>
			<point x="384" y="350"/>
			<point x="392" y="331" type="curve" smooth="yes"/>
			<point x="396" y="321"/>
			<point x="398" y="309"/>
			<point x="398" y="295" type="curve" smooth="yes"/>
			<point x="398" y="285"/>
			<point x="398" y="275"/>
			<point x="398" y="265" type="curve" smooth="yes"/>
			<point x="398" y="128" type="line" smooth="yes"/>
			<point x="398" y="44"/>
			<point x="382" y="35"/>
			<point x="341" y="32" type="curve"/>
			<point x="335" y="26"/>
			<point x="335" y="4"/>
			<point x="341" y="-2" type="curve"/>
			<point x="383" y="-1"/>
			<point x="415" y="0"/>
			<point x="463" y="0" type="curve" smooth="yes"/>
			<point x="469" y="0"/>
			<point x="475" y="0"/>
			<point x="481" y="0" type="curve" smooth="yes"/>
			<point x="528" y="0"/>
			<point x="567" y="-1"/>
			<point x="605" y="-2" type="curve"/>
			<point x="611" y="4"/>
			<point x="611" y="26"/>
			<point x="605" y="32" type="curve"/>
			<point x="544" y="35"/>
			<point x="528" y="44"/>
		</contour>
	</outline>
</glyph>
<glyph name="iogonek" format="2">
	<unicode hex="012F"/>
	<advance width="322"/>
	<outline>
		<contour>
			<point x="277" y="-177" type="curve"/>
			<point x="274" y="-173"/>
			<point x="265" y="-158"/>
			<point x="262" y="-154" type="curve"/>
			<point x="247" y="-169"/>
			<point x="223" y="-172"/>
			<point x="206" y="-172" type="curve" smooth="yes"/>
			<point x="189" y="-172"/>
			<point name=".hr01" x="171" y="-162"/>
			<point x="171" y="-130" type="curve" smooth="yes"/>
			<point x="171" y="-70"/>
			<point x="208" y="-12"/>
			<point x="254" y="-1" type="curve"/>
			<point x="271" y="-1"/>
			<point x="287" y="-2"/>
			<point x="304" y="-2" type="curve"/>
			<point x="310" y="4"/>
			<point x="310" y="26"/>
			<point x="304" y="32" type="curve"/>
			<point x="243" y="36"/>
			<point x="232" y="39"/>
			<point x="232" y="122" type="curve" smooth="yes"/>
			<point x="232" y="321" type="line" smooth="yes"/>
			<point x="232" y="371"/>
			<point x="236" y="427"/>
			<point x="236" y="427" type="curve"/>
			<point x="236" y="438"/>
			<point x="227" y="444"/>
			<point x="213" y="444" type="curve"/>
			<point x="185" y="433"/>
			<point x="104" y="425"/>
			<point x="35" y="416" type="curve"/>
			<point x="33" y="410"/>
			<point x="35" y="390"/>
			<point x="37" y="384" type="curve"/>
			<point x="92" y="379"/>
			<point name=".hr02" x="102" y="371"/>
			<point x="102" y="314" type="curve" smooth="yes"/>
			<point x="102" y="122" type="line" smooth="yes"/>
			<point x="102" y="39"/>
			<point x="91" y="37"/>
			<point x="30" y="32" type="curve"/>
			<point x="24" y="26"/>
			<point x="24" y="4"/>
			<point x="30" y="-2" type="curve"/>
			<point x="72" y="-1"/>
			<point x="114" y="0"/>
			<point x="167" y="0" type="curve" smooth="yes"/>
			<point x="178" y="0" type="line"/>
			<point x="126" y="-31"/>
			<point name=".hr03" x="79" y="-88"/>
			<point x="79" y="-136" type="curve" smooth="yes"/>
			<point x="79" y="-176"/>
			<point x="95" y="-201"/>
			<point x="118" y="-216" type="curve" smooth="yes"/>
			<point x="132" y="-225"/>
			<point x="149" y="-232"/>
			<point x="168" y="-232" type="curve" smooth="yes"/>
			<point x="207" y="-232"/>
			<point x="251" y="-213"/>
		</contour>
		<contour>
			<point x="97" y="596" type="curve" smooth="yes"/>
			<point name=".hr04" x="97" y="563"/>
			<point x="121" y="530"/>
			<point x="161" y="530" type="curve" smooth="yes"/>
			<point x="206" y="530"/>
			<point name=".hr05" x="232" y="566"/>
			<point name=".hr06" x="232" y="592" type="curve" smooth="yes"/>
			<point x="232" y="622"/>
			<point x="209" y="658"/>
			<point x="167" y="658" type="curve" smooth="yes"/>
			<point x="120" y="658"/>
			<point x="97" y="626"/>
		</contour>
	</outline>
	<anchor name="m.uni0302" x="132" y="825"/>
</glyph>
<glyph name="Idotaccent" format="2">
	<unicode hex="0130"/>
	<advance width="367"/>
	<outline>
		<contour>
			<point x="114" y="523" type="curve" smooth="yes"/>
			<point x="114" y="122" type="line" smooth="yes"/>
			<point x="114" y="39"/>
			<point x="86" y="35"/>
			<point x="31" y="32" type="curve"/>
			<point x="21" y="26"/>
			<point x="21" y="4"/>
			<point x="31" y="-2" type="curve"/>
			<point x="71" y="-1"/>
			<point x="145" y="0"/>
			<point x="185" y="0" type="curve" smooth="yes"/>
			<point x="225" y="0"/>
			<point x="297" y="-1"/>
			<point x="337" y="-2" type="curve"/>
			<point x="347" y="4"/>
			<point x="347" y="26"/>
			<point x="337" y="32" type="curve"/>
			<point x="282" y="35"/>
			<point x="254" y="39"/>
			<point x="254" y="122" type="curve" smooth="yes"/>
			<point x="254" y="523" type="line" smooth="yes"/>
			<point x="254" y="606"/>
			<point x="282" y="610"/>
			<point x="337" y="613" type="curve"/>
			<point x="347" y="619"/>
			<point x="347" y="641"/>
			<point x="337" y="647" type="curve"/>
			<point x="297" y="646"/>
			<point x="225" y="645"/>
			<point x="185" y="645" type="curve" smooth="yes"/>
			<point x="145" y="645"/>
			<point x="71" y="646"/>
			<point x="31" y="647" type="curve"/>
			<point x="21" y="641"/>
			<point x="21" y="619"/>
			<point x="31" y="613" type="curve"/>
			<point x="86" y="610"/>
			<point x="114" y="606"/>
		</contour>
		<contour>
			<point x="121" y="771" type="curve" smooth="yes"/>
			<point name=".hr01" x="121" y="737"/>
			<point x="149" y="709"/>
			<point x="183" y="709" type="curve" smooth="yes"/>
			<point x="217" y="709"/>
			<point x="245" y="737"/>
			<point x="245" y="771" type="curve" smooth="yes"/>
			<point x="245" y="805"/>
			<point x="217" y="833"/>
			<point x="183" y="833" type="curve" smooth="yes"/>
			<point x="149" y="833"/>
			<point x="121" y="805"/>
		</contour>
	</outline>
</glyph>
<glyph name="uni0136" format="2">
	<unicode hex="0136"/>
	<advance width="736"/>
	<outline>
		<contour>
			<point x="108" y="523" type="curve" smooth="yes"/>
			<point x="108" y="122" type="line" smooth="yes"/>
			<point x="108" y="39"/>
			<point x="80" y="35"/>
			<point x="25" y="32" type="curve"/>
			<point x="15" y="26"/>
			<point x="15" y="4"/>
			<point x="25" y="-2" type="curve"/>
			<point x="65" y="-1"/>
			<point x="139" y="0"/>
			<point x="179" y="0" type="curve" smooth="yes"/>
			<point x="219" y="0"/>
			<point x="291" y="-1"/>
			<point x="331" y="-2" type="curve"/>
			<point x="341" y="4"/>
			<point x="341" y="26"/>
			<point x="331" y="32" type="curve"/>
			<point x="276" y="35"/>
			<point x="248" y="39"/>
			<point x="248" y="122" type="curve" smooth="yes"/>
			<point x="248" y="145.434"/>
			<point x="248" y="294.566"/>
			<point x="248" y="318" type="curve"/>
			<point x="278" y="311"/>
			<point x="293" y="297"/>
			<point x="313" y="271" type="curve" smooth="yes"/>
			<point x="464" y="74" type="line" smooth="yes"/>
			<point x="484" y="48"/>
			<point x="498" y="20"/>
			<point x="500" y="4" type="curve"/>
			<point x="500" y="1"/>
			<point x="501" y="-2"/>
			<point x="505" y="-2" type="curve"/>
			<point x="525" y="-1"/>
			<point x="578" y="0"/>
			<point x="608" y="0" type="curve" smooth="yes"/>
			<point x="647" y="0"/>
			<point x="687" y="-1"/>
			<point x="726" y="-2" type="curve"/>
			<point x="732" y="4"/>
			<point x="732" y="26"/>
			<point x="726" y="32" type="curve"/>
			<point x="696" y="36"/>
			<point x="674" y="44"/>
			<point x="648" y="74" type="curve" smooth="yes"/>
			<point x="612.153" y="116.394"/>
			<point x="464.86" y="290.59"/>
			<point x="429" y="333" type="curve" smooth="yes"/>
			<point x="412" y="353"/>
			<point x="399" y="370"/>
			<point x="399" y="378" type="curve" smooth="yes"/>
			<point x="399" y="385"/>
			<point x="400" y="397"/>
			<point x="411" y="407" type="curve" smooth="yes"/>
			<point x="520" y="504" type="line" smooth="yes"/>
			<point x="579" y="556"/>
			<point x="635" y="605"/>
			<point name=".hr01" x="694" y="613" type="curve"/>
			<point x="700" y="619"/>
			<point x="700" y="641"/>
			<point x="694" y="647" type="curve"/>
			<point x="669" y="646"/>
			<point x="634" y="645"/>
			<point x="599" y="645" type="curve" smooth="yes"/>
			<point x="559" y="645"/>
			<point x="514" y="646"/>
			<point x="476" y="647" type="curve"/>
			<point x="470" y="641"/>
			<point x="470" y="619"/>
			<point x="476" y="613" type="curve"/>
			<point x="535" y="607"/>
			<point x="531" y="576"/>
			<point x="481" y="525" type="curve" smooth="yes"/>
			<point x="450" y="493"/>
			<point x="374" y="430"/>
			<point x="374" y="430" type="curve"/>
			<point x="309" y="372"/>
			<point x="281" y="353"/>
			<point x="248" y="342" type="curve"/>
			<point x="248" y="523" type="line" smooth="yes"/>
			<point x="248" y="606"/>
			<point x="276" y="610"/>
			<point x="331" y="613" type="curve"/>
			<point x="341" y="619"/>
			<point x="341" y="641"/>
			<point x="331" y="647" type="curve"/>
			<point x="291" y="646"/>
			<point x="219" y="645"/>
			<point x="179" y="645" type="curve" smooth="yes"/>
			<point x="139" y="645"/>
			<point x="65" y="646"/>
			<point x="25" y="647" type="curve"/>
			<point x="15" y="641"/>
			<point x="15" y="619"/>
			<point x="25" y="613" type="curve"/>
			<point x="80" y="610"/>
			<point x="108" y="606"/>
		</contour>
		<contour>
			<point x="371" y="-51" type="curve" smooth="yes"/>
			<point x="348" y="-51"/>
			<point x="320" y="-72"/>
			<point x="320" y="-89" type="curve" smooth="yes"/>
			<point x="320" y="-114"/>
			<point x="331" y="-129"/>
			<point x="353" y="-134" type="curve" smooth="yes"/>
			<point x="361" y="-136"/>
			<point x="382" y="-137"/>
			<point name=".hr02" x="382" y="-157" type="curve" smooth="yes"/>
			<point x="382" y="-175"/>
			<point x="357" y="-199"/>
			<point x="317" y="-210" type="curve"/>
			<point x="313" y="-222"/>
			<point x="313" y="-232"/>
			<point x="323" y="-238" type="curve"/>
			<point x="391" y="-226"/>
			<point x="443" y="-186"/>
			<point x="443" y="-129" type="curve" smooth="yes"/>
			<point x="443" y="-66"/>
			<point x="403" y="-51"/>
		</contour>
	</outline>
</glyph>
<glyph name="kgreenlandic" format="2">
	<unicode hex="0138"/>
	<advance width="603"/>
	<outline>
		<contour>
			<point x="232" y="122" type="curve" smooth="yes"/>
			<point x="232" y="209" type="line"/>
			<point x="241" y="209"/>
			<point x="249" y="209"/>
			<point x="257" y="207" type="curve"/>
			<point x="271" y="205"/>
			<point x="282" y="200"/>
			<point x="289" y="190" type="curve" smooth="yes"/>
			<point x="291" y="187"/>
			<point x="293" y="184"/>
			<point x="295" y="181" type="curve" smooth="yes"/>
			<point x="317" y="149"/>
			<point x="341" y="112"/>
			<point x="357" y="78" type="curve"/>
			<point x="357" y="78" type="line"/>
			<point x="370" y="50"/>
			<point x="373" y="41"/>
			<point x="373" y="26" type="curve" smooth="yes"/>
			<point x="373" y="20"/>
			<point x="373" y="14"/>
			<point x="373" y="9" type="curve" smooth="yes"/>
			<point x="373" y="6"/>
			<point x="373" y="3"/>
			<point x="373" y="0" type="curve"/>
			<point x="374" y="-1"/>
			<point x="374" y="-1"/>
			<point x="375" y="-2" type="curve"/>
			<point x="375" y="-2"/>
			<point x="444" y="0"/>
			<point x="479" y="0" type="curve" smooth="yes"/>
			<point x="492" y="0" type="line" smooth="yes"/>
			<point x="531" y="0"/>
			<point x="588" y="-2"/>
			<point x="588" y="-2" type="curve"/>
			<point x="591" y="0" type="line"/>
			<point x="591" y="9"/>
			<point x="591" y="17"/>
			<point x="591" y="26" type="curve" smooth="yes"/>
			<point x="591" y="28"/>
			<point x="590" y="30"/>
			<point x="589" y="31" type="curve" smooth="yes"/>
			<point x="588" y="32"/>
			<point x="586" y="32"/>
			<point x="583" y="32" type="curve"/>
			<point x="573" y="33"/>
			<point x="564" y="34"/>
			<point x="554" y="35" type="curve"/>
			<point x="539" y="37"/>
			<point x="515" y="52"/>
			<point x="498" y="78" type="curve" smooth="yes"/>
			<point x="382" y="249" type="line"/>
			<point x="380" y="253"/>
			<point x="378" y="256"/>
			<point x="377" y="260" type="curve"/>
			<point x="377" y="263"/>
			<point x="377" y="267"/>
			<point x="379" y="269" type="curve"/>
			<point x="379" y="269"/>
			<point x="379" y="269"/>
			<point x="380" y="270" type="curve"/>
			<point x="388" y="279"/>
			<point x="432" y="326"/>
			<point x="454" y="351" type="curve"/>
			<point x="478" y="375"/>
			<point x="515" y="399"/>
			<point x="533" y="400" type="curve"/>
			<point x="543" y="401"/>
			<point x="553" y="401"/>
			<point x="563" y="402" type="curve"/>
			<point x="568" y="403"/>
			<point x="570" y="403"/>
			<point x="571" y="404" type="curve" smooth="yes"/>
			<point x="573" y="406"/>
			<point x="573" y="408"/>
			<point x="573" y="412" type="curve" smooth="yes"/>
			<point x="573" y="419"/>
			<point x="573" y="427"/>
			<point x="573" y="434" type="curve"/>
			<point x="570" y="436" type="line"/>
			<point x="570" y="436"/>
			<point x="494" y="434"/>
			<point x="455" y="434" type="curve" smooth="yes"/>
			<point x="420" y="434"/>
			<point x="333" y="436"/>
			<point x="333" y="436" type="curve"/>
			<point x="328" y="434" type="line"/>
			<point x="328" y="427"/>
			<point x="328" y="419"/>
			<point x="328" y="412" type="curve" smooth="yes"/>
			<point x="328" y="409"/>
			<point x="329" y="407"/>
			<point x="330" y="405" type="curve"/>
			<point x="332" y="404"/>
			<point x="336" y="403"/>
			<point x="341" y="402" type="curve"/>
			<point x="362" y="400" type="line"/>
			<point x="377" y="399"/>
			<point x="397" y="380"/>
			<point x="373" y="349" type="curve"/>
			<point x="373" y="349"/>
			<point x="373" y="349"/>
			<point x="373" y="349" type="curve"/>
			<point x="350" y="320"/>
			<point x="329" y="295"/>
			<point x="309" y="277" type="curve"/>
			<point x="305" y="273"/>
			<point x="297" y="269"/>
			<point x="287" y="264" type="curve"/>
			<point x="271" y="257"/>
			<point x="251" y="250"/>
			<point x="232" y="249" type="curve"/>
			<point x="232" y="321" type="line" smooth="yes"/>
			<point x="232" y="371"/>
			<point x="236" y="427"/>
			<point x="236" y="427" type="curve"/>
			<point x="236" y="431"/>
			<point x="235" y="434"/>
			<point x="233" y="436" type="curve"/>
			<point x="231" y="439"/>
			<point x="229" y="441"/>
			<point x="225" y="442" type="curve"/>
			<point x="222" y="443"/>
			<point x="218" y="444"/>
			<point x="213" y="444" type="curve"/>
			<point x="185" y="433"/>
			<point x="104" y="425"/>
			<point x="35" y="416" type="curve"/>
			<point x="33" y="410"/>
			<point x="35" y="390"/>
			<point x="37" y="384" type="curve"/>
			<point x="92" y="379"/>
			<point x="102" y="371"/>
			<point x="102" y="314" type="curve" smooth="yes"/>
			<point x="102" y="122" type="line" smooth="yes"/>
			<point x="102" y="39"/>
			<point x="91" y="37"/>
			<point x="30" y="32" type="curve"/>
			<point x="24" y="26"/>
			<point x="24" y="4"/>
			<point x="30" y="-2" type="curve"/>
			<point x="69" y="-1"/>
			<point x="108" y="0"/>
			<point x="155" y="0" type="curve" smooth="yes"/>
			<point x="167" y="0" type="line" smooth="yes"/>
			<point x="220" y="0"/>
			<point x="261" y="-1"/>
			<point x="304" y="-2" type="curve"/>
			<point x="310" y="4"/>
			<point x="310" y="26"/>
			<point x="304" y="32" type="curve"/>
			<point x="243" y="36"/>
			<point x="232" y="39"/>
		</contour>
	</outline>
	<anchor name="m.uni0302" x="240" y="644"/>
	<anchor name="m.uni0316_2" x="132" y="-108"/>
</glyph>
<glyph name="lacute" format="2">
	<unicode hex="013A"/>
	<advance width="325"/>
	<outline>
		<contour>
			<point x="100" y="127" type="line" smooth="yes"/>
			<point x="100" y="44"/>
			<point x="84" y="35"/>
			<point x="23" y="32" type="curve"/>
			<point x="17" y="26"/>
			<point x="17" y="4"/>
			<point x="23" y="-2" type="curve"/>
			<point x="65" y="-1"/>
			<point x="110" y="0"/>
			<point x="165" y="0" type="curve" smooth="yes"/>
			<point x="220" y="0"/>
			<point x="264" y="-1"/>
			<point x="307" y="-2" type="curve"/>
			<point x="313" y="4"/>
			<point x="313" y="26"/>
			<point x="307" y="32" type="curve"/>
			<point x="246" y="35"/>
			<point x="230" y="44"/>
			<point x="230" y="127" type="curve" smooth="yes"/>
			<point x="230" y="583" type="line" smooth="yes"/>
			<point x="230" y="648"/>
			<point x="233" y="685"/>
			<point x="233" y="685" type="curve"/>
			<point x="233" y="694"/>
			<point x="226" y="698"/>
			<point x="217" y="698" type="curve"/>
			<point x="180" y="686"/>
			<point x="100" y="675"/>
			<point x="29" y="672" type="curve"/>
			<point x="26" y="660"/>
			<point x="27" y="649"/>
			<point x="32" y="640" type="curve"/>
			<point x="95" y="635"/>
			<point x="100" y="634"/>
			<point x="100" y="565" type="curve" smooth="yes"/>
		</contour>
		<contour>
			<point x="192" y="863" type="curve"/>
			<point x="155" y="837"/>
			<point x="94" y="791"/>
			<point x="69" y="771" type="curve"/>
			<point x="68" y="769"/>
			<point x="66" y="768"/>
			<point x="65" y="767" type="curve"/>
			<point x="55" y="759"/>
			<point x="55" y="753"/>
			<point x="55" y="746" type="curve" smooth="yes"/>
			<point x="55" y="738"/>
			<point x="66" y="731"/>
			<point x="75" y="731" type="curve" smooth="yes"/>
			<point x="84" y="731"/>
			<point x="96" y="732"/>
			<point x="110" y="738" type="curve" smooth="yes"/>
			<point x="254" y="796" type="line"/>
			<point x="257" y="808" type="line"/>
			<point x="244" y="829"/>
			<point x="217" y="851"/>
		</contour>
	</outline>
</glyph>
<glyph name="Lcaron" format="2">
	<unicode hex="013D"/>
	<advance width="577"/>
	<outline>
		<contour>
			<point x="349" y="42" type="curve" smooth="yes"/>
			<point x="289" y="42" type="line" smooth="yes"/>
			<point x="268" y="42"/>
			<point x="254" y="61"/>
			<point x="254" y="121" type="curve" smooth="yes"/>
			<point x="254" y="181.625"/>
			<point x="254" y="460.764"/>
			<point x="254" y="523" type="curve" smooth="yes"/>
			<point x="254" y="606"/>
			<point x="282" y="610"/>
			<point x="337" y="613" type="curve"/>
			<point x="347" y="619"/>
			<point x="347" y="641"/>
			<point x="337" y="647" type="curve"/>
			<point x="255" y="646"/>
			<point x="225" y="645"/>
			<point x="185" y="645" type="curve" smooth="yes"/>
			<point x="145" y="645"/>
			<point x="31" y="647"/>
			<point x="31" y="647" type="curve"/>
			<point x="21" y="641"/>
			<point x="21" y="619"/>
			<point x="31" y="613" type="curve"/>
			<point x="86" y="610"/>
			<point x="114" y="606"/>
			<point x="114" y="523" type="curve" smooth="yes"/>
			<point x="114" y="475.056"/>
			<point x="114" y="169.944"/>
			<point name=".hr01" x="114" y="122" type="curve" smooth="yes"/>
			<point x="114" y="39"/>
			<point x="86" y="35"/>
			<point x="31" y="32" type="curve"/>
			<point x="21" y="26"/>
			<point x="21" y="4"/>
			<point x="31" y="-2" type="curve"/>
			<point x="31" y="-2"/>
			<point x="146" y="0"/>
			<point x="185" y="0" type="curve" smooth="yes"/>
			<point x="237.664" y="0"/>
			<point x="345.613" y="0"/>
			<point x="408" y="0" type="curve" smooth="yes"/>
			<point x="437" y="0"/>
			<point x="528" y="-2"/>
			<point x="528" y="-2" type="curve"/>
			<point x="538" y="48"/>
			<point x="548" y="113"/>
			<point x="554" y="165" type="curve"/>
			<point x="544" y="170"/>
			<point x="523" y="172"/>
			<point x="511" y="170" type="curve"/>
			<point x="491" y="98"/>
			<point name=".hr02" x="454" y="42"/>
		</contour>
		<contour>
			<point x="430" y="698" type="curve" smooth="yes"/>
			<point name=".hr03" x="394" y="698"/>
			<point x="383" y="680"/>
			<point x="383" y="664" type="curve" smooth="yes"/>
			<point x="383" y="648"/>
			<point x="388" y="623"/>
			<point x="429" y="623" type="curve" smooth="yes"/>
			<point x="436" y="623"/>
			<point x="440" y="615"/>
			<point x="440" y="605" type="curve" smooth="yes"/>
			<point x="440" y="582"/>
			<point x="422" y="545"/>
			<point x="380" y="536" type="curve"/>
			<point x="384" y="519" type="line"/>
			<point x="475" y="524"/>
			<point x="490" y="599"/>
			<point x="490" y="625" type="curve" smooth="yes"/>
			<point x="490" y="661"/>
			<point x="468" y="698"/>
		</contour>
	</outline>
</glyph>
<glyph name="lcaron" format="2">
	<unicode hex="013E"/>
	<advance width="368"/>
	<outline>
		<contour>
			<point x="100" y="127" type="line" smooth="yes"/>
			<point x="100" y="44"/>
			<point x="84" y="35"/>
			<point x="23" y="32" type="curve"/>
			<point x="17" y="26"/>
			<point x="17" y="4"/>
			<point x="23" y="-2" type="curve"/>
			<point x="65" y="-1"/>
			<point x="110" y="0"/>
			<point x="165" y="0" type="curve" smooth="yes"/>
			<point x="220" y="0"/>
			<point x="264" y="-1"/>
			<point x="307" y="-2" type="curve"/>
			<point x="313" y="4"/>
			<point x="313" y="26"/>
			<point x="307" y="32" type="curve"/>
			<point x="246" y="35"/>
			<point x="230" y="44"/>
			<point x="230" y="127" type="curve" smooth="yes"/>
			<point x="230" y="583" type="line" smooth="yes"/>
			<point x="230" y="648"/>
			<point x="233" y="685"/>
			<point x="233" y="685" type="curve"/>
			<point x="233" y="694"/>
			<point x="226" y="698"/>
			<point x="217" y="698" type="curve"/>
			<point x="180" y="686"/>
			<point x="100" y="675"/>
			<point x="29" y="672" type="curve"/>
			<point x="26" y="660"/>
			<point x="27" y="649"/>
			<point x="32" y="640" type="curve"/>
			<point x="95" y="635"/>
			<point x="100" y="634"/>
			<point x="100" y="565" type="curve" smooth="yes"/>
		</contour>
		<contour>
			<point x="336" y="698" type="curve" smooth="yes"/>
			<point x="300" y="698"/>
			<point x="289" y="680"/>
			<point x="289" y="664" type="curve" smooth="yes"/>
			<point x="289" y="648"/>
			<point name=".hr01" x="294" y="623"/>
			<point x="335" y="623" type="curve" smooth="yes"/>
			<point x="342" y="623"/>
			<point x="346" y="615"/>
			<point x="346" y="605" type="curve" smooth="yes"/>
			<point x="346" y="582"/>
			<point x="328" y="545"/>
			<point x="286" y="536" type="curve"/>
			<point x="290" y="519" type="line"/>
			<point x="381" y="524"/>
			<point x="396" y="599"/>
			<point x="396" y="625" type="curve" smooth="yes"/>
			<point x="396" y="661"/>
			<point x="374" y="698"/>
		</contour>
	</outline>
</glyph>
<glyph name="Ldot" format="2">
	<unicode hex="013F"/>
	<advance width="577"/>
	<outline>
		<contour>
			<point x="349" y="42" type="curve" smooth="yes"/>
			<point x="289" y="42" type="line" smooth="yes"/>
			<point x="268" y="42"/>
			<point x="254" y="61"/>
			<point x="254" y="121" type="curve" smooth="yes"/>
			<point x="254" y="181.625"/>
			<point x="254" y="460.764"/>
			<point x="254" y="523" type="curve" smooth="yes"/>
			<point x="254" y="606"/>
			<point x="282" y="610"/>
			<point x="337" y="613" type="curve"/>
			<point x="347" y="619"/>
			<point x="347" y="641"/>
			<point x="337" y="647" type="curve"/>
			<point x="255" y="646"/>
			<point x="225" y="645"/>
			<point x="185" y="645" type="curve" smooth="yes"/>
			<point x="145" y="645"/>
			<point x="31" y="647"/>
			<point x="31" y="647" type="curve"/>
			<point x="21" y="641"/>
			<point x="21" y="619"/>
			<point x="31" y="613" type="curve"/>
			<point x="86" y="610"/>
			<point x="114" y="606"/>
			<point x="114" y="523" type="curve" smooth="yes"/>
			<point x="114" y="475.056"/>
			<point x="114" y="169.944"/>
			<point name=".hr01" x="114" y="122" type="curve" smooth="yes"/>
			<point x="114" y="39"/>
			<point x="86" y="35"/>
			<point x="31" y="32" type="curve"/>
			<point x="21" y="26"/>
			<point x="21" y="4"/>
			<point x="31" y="-2" type="curve"/>
			<point x="31" y="-2"/>
			<point x="146" y="0"/>
			<point x="185" y="0" type="curve" smooth="yes"/>
			<point x="237.664" y="0"/>
			<point x="345.613" y="0"/>
			<point x="408" y="0" type="curve" smooth="yes"/>
			<point x="437" y="0"/>
			<point x="528" y="-2"/>
			<point x="528" y="-2" type="curve"/>
			<point x="538" y="48"/>
			<point x="548" y="113"/>
			<point x="554" y="165" type="curve"/>
			<point x="544" y="170"/>
			<point x="523" y="172"/>
			<point x="511" y="170" type="curve"/>
			<point x="491" y="98"/>
			<point name=".hr02" x="454" y="42"/>
		</contour>
		<contour>
			<point x="371" y="385" type="curve" smooth="yes"/>
			<point x="371" y="352"/>
			<point x="395" y="319"/>
			<point name=".hr03" x="435" y="319" type="curve" smooth="yes"/>
			<point x="480" y="319"/>
			<point x="506" y="355"/>
			<point x="506" y="381" type="curve" smooth="yes"/>
			<point x="506" y="411"/>
			<point x="483" y="447"/>
			<point x="441" y="447" type="curve" smooth="yes"/>
			<point x="394" y="447"/>
			<point x="371" y="415"/>
		</contour>
	</outline>
</glyph>
<glyph name="ldot" format="2">
	<unicode hex="0140"/>
	<advance width="399"/>
	<outline>
		<contour>
			<point x="100" y="127" type="line" smooth="yes"/>
			<point x="100" y="44"/>
			<point x="84" y="35"/>
			<point x="23" y="32" type="curve"/>
			<point x="17" y="26"/>
			<point x="17" y="4"/>
			<point x="23" y="-2" type="curve"/>
			<point x="65" y="-1"/>
			<point x="110" y="0"/>
			<point x="165" y="0" type="curve" smooth="yes"/>
			<point x="220" y="0"/>
			<point x="264" y="-1"/>
			<point x="307" y="-2" type="curve"/>
			<point x="313" y="4"/>
			<point x="313" y="26"/>
			<point x="307" y="32" type="curve"/>
			<point x="246" y="35"/>
			<point x="230" y="44"/>
			<point x="230" y="127" type="curve" smooth="yes"/>
			<point x="230" y="583" type="line" smooth="yes"/>
			<point x="230" y="648"/>
			<point x="233" y="685"/>
			<point x="233" y="685" type="curve"/>
			<point x="233" y="694"/>
			<point x="226" y="698"/>
			<point x="217" y="698" type="curve"/>
			<point x="180" y="686"/>
			<point x="100" y="675"/>
			<point x="29" y="672" type="curve"/>
			<point x="26" y="660"/>
			<point x="27" y="649"/>
			<point x="32" y="640" type="curve"/>
			<point x="95" y="635"/>
			<point x="100" y="634"/>
			<point x="100" y="565" type="curve" smooth="yes"/>
		</contour>
		<contour>
			<point x="262" y="386" type="curve" smooth="yes"/>
			<point x="262" y="353"/>
			<point x="286" y="320"/>
			<point x="326" y="320" type="curve" smooth="yes"/>
			<point x="371" y="320"/>
			<point x="397" y="356"/>
			<point x="397" y="382" type="curve" smooth="yes"/>
			<point x="397" y="412"/>
			<point x="374" y="448"/>
			<point x="332" y="448" type="curve" smooth="yes"/>
			<point x="285" y="448"/>
			<point x="262" y="416"/>
		</contour>
	</outline>
</glyph>
<glyph name="uni0146" format="2">
	<unicode hex="0146"/>
	<advance width="616"/>
	<outline>
		<contour>
			<point x="228" y="122" type="curve" smooth="yes"/>
			<point x="228" y="294" type="line" smooth="yes"/>
			<point x="228" y="304"/>
			<point x="228" y="313"/>
			<point x="228" y="323" type="curve"/>
			<point x="268" y="350"/>
			<point x="308" y="370"/>
			<point x="326" y="370" type="curve" smooth="yes"/>
			<point x="336" y="370"/>
			<point x="345" y="369"/>
			<point x="354" y="366" type="curve" smooth="yes"/>
			<point x="366" y="362"/>
			<point x="377" y="355"/>
			<point x="384" y="344" type="curve" smooth="yes"/>
			<point x="392" y="332"/>
			<point x="396" y="316"/>
			<point x="396" y="295" type="curve" smooth="yes"/>
			<point x="396" y="286"/>
			<point x="396" y="276"/>
			<point x="396" y="267" type="curve" smooth="yes"/>
			<point x="396" y="128" type="line" smooth="yes"/>
			<point x="396" y="44"/>
			<point x="380" y="35"/>
			<point x="339" y="32" type="curve"/>
			<point x="333" y="26"/>
			<point x="333" y="4"/>
			<point x="339" y="-2" type="curve"/>
			<point x="381" y="-1"/>
			<point x="413" y="0"/>
			<point x="461" y="0" type="curve" smooth="yes"/>
			<point x="477" y="0" type="line" smooth="yes"/>
			<point x="525" y="0"/>
			<point x="564" y="-1"/>
			<point x="603" y="-2" type="curve"/>
			<point x="609" y="4"/>
			<point x="609" y="26"/>
			<point x="603" y="32" type="curve"/>
			<point x="542" y="35"/>
			<point x="526" y="44"/>
			<point x="526" y="128" type="curve" smooth="yes"/>
			<point x="526" y="270" type="line" smooth="yes"/>
			<point x="526" y="275"/>
			<point x="526" y="279"/>
			<point x="526" y="284" type="curve" smooth="yes"/>
			<point x="526" y="339"/>
			<point x="514" y="379"/>
			<point x="492" y="405" type="curve" smooth="yes"/>
			<point x="469" y="432"/>
			<point x="436" y="444"/>
			<point x="393" y="444" type="curve" smooth="yes"/>
			<point x="356" y="444"/>
			<point x="293" y="407"/>
			<point x="240" y="371" type="curve"/>
			<point x="236" y="368"/>
			<point x="231" y="365"/>
			<point name=".hr01" x="227" y="362" type="curve"/>
			<point x="224" y="397"/>
			<point x="220" y="427"/>
			<point x="220" y="427" type="curve"/>
			<point x="220" y="427"/>
			<point x="220" y="427"/>
			<point x="220" y="427" type="curve"/>
			<point x="219" y="435"/>
			<point x="216" y="440"/>
			<point x="209" y="442" type="curve"/>
			<point x="206" y="443"/>
			<point name=".hr02" x="202" y="444"/>
			<point x="197" y="444" type="curve"/>
			<point x="160" y="434"/>
			<point x="100" y="420"/>
			<point x="31" y="411" type="curve"/>
			<point x="29" y="405"/>
			<point x="31" y="385"/>
			<point x="33" y="379" type="curve"/>
			<point x="88" y="374"/>
			<point x="98" y="366"/>
			<point x="98" y="309" type="curve" smooth="yes"/>
			<point x="98" y="122" type="line" smooth="yes"/>
			<point x="98" y="39"/>
			<point x="87" y="37"/>
			<point x="26" y="32" type="curve"/>
			<point x="20" y="26"/>
			<point x="20" y="4"/>
			<point x="26" y="-2" type="curve"/>
			<point x="64" y="-1"/>
			<point x="102" y="0"/>
			<point x="147" y="0" type="curve" smooth="yes"/>
			<point x="163" y="0" type="line" smooth="yes"/>
			<point x="209" y="0"/>
			<point x="237" y="-1"/>
			<point x="280" y="-2" type="curve"/>
			<point x="286" y="4"/>
			<point x="286" y="26"/>
			<point x="280" y="32" type="curve"/>
			<point x="238" y="36"/>
			<point name=".hr03" x="228" y="39"/>
		</contour>
		<contour>
			<point x="287" y="-51" type="curve" smooth="yes"/>
			<point x="264" y="-51"/>
			<point x="236" y="-72"/>
			<point x="236" y="-89" type="curve" smooth="yes"/>
			<point x="236" y="-93"/>
			<point x="236" y="-96"/>
			<point x="237" y="-99" type="curve"/>
			<point x="239" y="-118"/>
			<point x="250" y="-130"/>
			<point x="269" y="-134" type="curve"/>
			<point x="271" y="-134"/>
			<point x="273" y="-135"/>
			<point x="275" y="-135" type="curve"/>
			<point x="285" y="-137"/>
			<point x="298" y="-141"/>
			<point x="298" y="-157" type="curve"/>
			<point x="298" y="-157"/>
			<point x="298" y="-157"/>
			<point x="298" y="-157" type="curve"/>
			<point x="298" y="-175"/>
			<point x="273" y="-199"/>
			<point x="233" y="-210" type="curve"/>
			<point x="229" y="-222"/>
			<point x="229" y="-232"/>
			<point x="239" y="-238" type="curve"/>
			<point x="304" y="-227"/>
			<point x="354" y="-190"/>
			<point x="359" y="-137" type="curve"/>
			<point x="359" y="-135"/>
			<point x="359" y="-132"/>
			<point x="359" y="-129" type="curve" smooth="yes"/>
			<point x="359" y="-66"/>
			<point x="319" y="-51"/>
		</contour>
	</outline>
</glyph>
<glyph name="Ohungarumlaut" format="2">
	<unicode hex="0150"/>
	<advance width="730"/>
	<outline>
		<contour>
			<point x="694" y="329" type="curve" smooth="yes"/>
			<point x="694" y="528"/>
			<point x="546" y="658"/>
			<point x="363" y="658" type="curve" smooth="yes"/>
			<point x="263" y="658"/>
			<point x="176" y="615"/>
			<point x="118" y="546" type="curve" smooth="yes"/>
			<point x="66" y="484"/>
			<point x="37" y="401"/>
			<point x="37" y="309" type="curve" smooth="yes"/>
			<point x="37" y="111"/>
			<point x="194" y="-10"/>
			<point x="364" y="-10" type="curve" smooth="yes"/>
			<point x="467" y="-10"/>
			<point x="551" y="27"/>
			<point x="608" y="89" type="curve" smooth="yes"/>
			<point x="616" y="98"/>
			<point x="623" y="107"/>
			<point x="630" y="116" type="curve"/>
			<point x="671" y="173"/>
			<point x="694" y="245"/>
		</contour>
		<contour>
			<point x="351" y="616" type="curve" smooth="yes"/>
			<point x="458" y="616"/>
			<point x="543" y="511"/>
			<point x="543" y="308" type="curve" smooth="yes"/>
			<point x="543" y="142"/>
			<point x="485" y="32"/>
			<point x="384" y="32" type="curve" smooth="yes"/>
			<point x="274" y="32"/>
			<point x="188" y="141"/>
			<point x="188" y="329" type="curve" smooth="yes"/>
			<point x="188" y="533"/>
			<point x="262" y="616"/>
		</contour>
		<contour>
			<point x="490" y="818" type="curve" smooth="yes"/>
			<point x="479" y="827"/>
			<point x="470" y="828"/>
			<point x="462" y="828" type="curve" smooth="yes"/>
			<point x="451" y="828"/>
			<point x="444" y="824"/>
			<point x="439" y="816" type="curve"/>
			<point x="380" y="707" type="line"/>
			<point x="379" y="705"/>
			<point x="378" y="704"/>
			<point x="377" y="702" type="curve"/>
			<point x="377" y="702"/>
			<point x="376" y="701"/>
			<point x="376" y="700" type="curve"/>
			<point x="376" y="699"/>
			<point x="376" y="698"/>
			<point x="376" y="697" type="curve"/>
			<point x="376" y="689"/>
			<point x="385" y="684"/>
			<point x="390" y="684" type="curve" smooth="yes"/>
			<point x="393" y="684"/>
			<point x="395" y="684"/>
			<point x="397" y="686" type="curve"/>
			<point x="496" y="770" type="line"/>
			<point x="500" y="774"/>
			<point x="503" y="781"/>
			<point x="503" y="790" type="curve" smooth="yes"/>
			<point x="503" y="800"/>
			<point x="499" y="811"/>
		</contour>
		<contour>
			<point x="357" y="824" type="curve"/>
			<point x="352" y="828"/>
			<point x="343" y="833"/>
			<point x="334" y="833" type="curve" smooth="yes"/>
			<point x="319" y="833"/>
			<point x="312" y="829"/>
			<point x="307" y="821" type="curve"/>
			<point x="252" y="710" type="line"/>
			<point x="251" y="709"/>
			<point x="251" y="707"/>
			<point x="250" y="706" type="curve" smooth="yes"/>
			<point x="249" y="705"/>
			<point x="249" y="703"/>
			<point x="249" y="702" type="curve"/>
			<point x="249" y="698"/>
			<point x="251" y="694"/>
			<point x="255" y="691" type="curve"/>
			<point x="257" y="690"/>
			<point x="260" y="688"/>
			<point x="263" y="688" type="curve" smooth="yes"/>
			<point x="265" y="688"/>
			<point x="268" y="689"/>
			<point x="271" y="690" type="curve"/>
			<point x="273" y="692"/>
			<point x="276" y="694"/>
			<point x="278" y="697" type="curve"/>
			<point x="365" y="776" type="line"/>
			<point x="370" y="780"/>
			<point x="372" y="787"/>
			<point x="372" y="795" type="curve" smooth="yes"/>
			<point x="372" y="806"/>
			<point x="367" y="817"/>
		</contour>
	</outline>
	<anchor name="m.uni0316_2" x="350" y="-110"/>
</glyph>
<glyph name="uni0157" format="2">
	<unicode hex="0157"/>
	<advance width="428"/>
	<outline>
		<contour>
			<point x="228" y="268" type="line" smooth="yes"/>
			<point x="228" y="304"/>
			<point x="239" y="319"/>
			<point x="252" y="334" type="curve"/>
			<point x="260" y="344"/>
			<point x="269" y="351"/>
			<point x="284" y="351" type="curve" smooth="yes"/>
			<point x="293" y="351"/>
			<point x="304" y="342"/>
			<point x="312" y="332" type="curve"/>
			<point x="319" y="324"/>
			<point name=".hr01" x="336" y="316"/>
			<point x="359" y="316" type="curve" smooth="yes"/>
			<point x="388" y="316"/>
			<point x="416" y="346"/>
			<point x="416" y="388" type="curve" smooth="yes"/>
			<point x="416" y="414"/>
			<point x="386" y="444"/>
			<point x="350" y="444" type="curve" smooth="yes"/>
			<point x="315" y="444"/>
			<point x="277" y="414"/>
			<point x="231" y="348" type="curve"/>
			<point x="230" y="348"/>
			<point x="228" y="348"/>
			<point name=".hr02" x="227" y="348" type="curve"/>
			<point name=".hr03" x="225" y="378"/>
			<point x="220" y="427"/>
			<point x="220" y="427" type="curve"/>
			<point x="219" y="436"/>
			<point x="211" y="444"/>
			<point x="197" y="444" type="curve"/>
			<point x="150" y="432"/>
			<point x="97" y="418"/>
			<point x="31" y="411" type="curve"/>
			<point x="29" y="405"/>
			<point x="31" y="386"/>
			<point x="33" y="380" type="curve"/>
			<point x="88" y="375"/>
			<point name=".hr04" x="98" y="366"/>
			<point x="98" y="309" type="curve" smooth="yes"/>
			<point x="98" y="122" type="line" smooth="yes"/>
			<point x="98" y="39"/>
			<point x="87" y="37"/>
			<point x="26" y="32" type="curve"/>
			<point x="20" y="26"/>
			<point x="20" y="4"/>
			<point x="26" y="-2" type="curve"/>
			<point x="68" y="-1"/>
			<point x="110" y="0"/>
			<point x="163" y="0" type="curve" smooth="yes"/>
			<point x="216" y="0"/>
			<point x="257" y="-1"/>
			<point x="300" y="-2" type="curve"/>
			<point x="306" y="4"/>
			<point x="306" y="26"/>
			<point x="300" y="32" type="curve"/>
			<point x="239" y="36"/>
			<point name=".hr05" x="228" y="39"/>
			<point x="228" y="122" type="curve" smooth="yes"/>
		</contour>
		<contour>
			<point x="153" y="-51" type="curve" smooth="yes"/>
			<point x="130" y="-51"/>
			<point x="102" y="-72"/>
			<point x="102" y="-89" type="curve" smooth="yes"/>
			<point x="102" y="-114"/>
			<point x="113" y="-129"/>
			<point x="135" y="-134" type="curve" smooth="yes"/>
			<point x="143" y="-136"/>
			<point name=".hr06" x="164" y="-137"/>
			<point x="164" y="-157" type="curve" smooth="yes"/>
			<point x="164" y="-175"/>
			<point x="139" y="-199"/>
			<point x="99" y="-210" type="curve"/>
			<point x="95" y="-222"/>
			<point x="95" y="-232"/>
			<point x="105" y="-238" type="curve"/>
			<point x="173" y="-226"/>
			<point x="225" y="-186"/>
			<point x="225" y="-129" type="curve" smooth="yes"/>
			<point x="225" y="-66"/>
			<point x="185" y="-51"/>
		</contour>
	</outline>
</glyph>
<glyph name="Tbar" format="2">
	<unicode hex="0166"/>
	<advance width="652"/>
	<outline>
		<contour>
			<point x="405" y="123" type="curve" smooth="yes"/>
			<point x="405" y="318" type="line"/>
			<point x="437" y="318"/>
			<point x="467" y="317"/>
			<point x="495" y="315" type="curve"/>
			<point x="498" y="332"/>
			<point x="502" y="348"/>
			<point x="505" y="365" type="curve"/>
			<point x="501" y="365"/>
			<point x="496" y="364"/>
			<point x="492" y="364" type="curve"/>
			<point x="464" y="363"/>
			<point x="435" y="362"/>
			<point x="405" y="362" type="curve"/>
			<point x="405" y="503" type="line" smooth="yes"/>
			<point x="405" y="567"/>
			<point x="415" y="604"/>
			<point x="451" y="604" type="curve" smooth="yes"/>
			<point x="462" y="604" type="line" smooth="yes"/>
			<point x="466" y="604"/>
			<point x="469" y="604"/>
			<point x="473" y="604" type="curve" smooth="yes"/>
			<point x="548" y="604"/>
			<point x="590" y="579"/>
			<point x="607" y="502" type="curve"/>
			<point x="618" y="502"/>
			<point x="637" y="503"/>
			<point x="646" y="507" type="curve"/>
			<point x="639" y="553"/>
			<point x="634" y="605"/>
			<point x="633" y="650" type="curve"/>
			<point x="633" y="651"/>
			<point x="631" y="653"/>
			<point x="630" y="653" type="curve"/>
			<point x="596" y="650"/>
			<point x="485" y="645"/>
			<point x="406" y="645" type="curve" smooth="yes"/>
			<point x="401" y="645"/>
			<point x="396" y="645"/>
			<point x="390" y="645" type="curve" smooth="yes"/>
			<point x="281" y="645" type="line" smooth="yes"/>
			<point x="275" y="645"/>
			<point x="270" y="645"/>
			<point x="265" y="645" type="curve" smooth="yes"/>
			<point x="188" y="645"/>
			<point x="70" y="650"/>
			<point x="32" y="653" type="curve"/>
			<point x="30" y="653"/>
			<point x="28" y="651"/>
			<point x="28" y="650" type="curve"/>
			<point x="24" y="605"/>
			<point x="14" y="552"/>
			<point x="3" y="504" type="curve"/>
			<point x="13" y="500"/>
			<point x="30" y="499"/>
			<point x="42" y="499" type="curve"/>
			<point x="62" y="579"/>
			<point x="103" y="604"/>
			<point x="169" y="604" type="curve" smooth="yes"/>
			<point x="173" y="604"/>
			<point x="177" y="604"/>
			<point x="181" y="604" type="curve" smooth="yes"/>
			<point x="218" y="604" type="line"/>
			<point x="218" y="604" type="line"/>
			<point x="255" y="604"/>
			<point x="265" y="567"/>
			<point x="265" y="506" type="curve" smooth="yes"/>
			<point x="265" y="362" type="line"/>
			<point x="233" y="363"/>
			<point x="202" y="364"/>
			<point x="174" y="365" type="curve"/>
			<point x="171" y="348"/>
			<point x="167" y="332"/>
			<point x="164" y="315" type="curve"/>
			<point x="168" y="315"/>
			<point x="173" y="316"/>
			<point x="178" y="316" type="curve"/>
			<point x="205" y="317"/>
			<point x="235" y="318"/>
			<point x="265" y="318" type="curve"/>
			<point x="265" y="123" type="line" smooth="yes"/>
			<point x="265" y="40"/>
			<point x="248" y="35"/>
			<point x="168" y="32" type="curve"/>
			<point x="162" y="26"/>
			<point x="162" y="4"/>
			<point x="168" y="-2" type="curve"/>
			<point x="217" y="-1"/>
			<point x="269" y="0"/>
			<point x="333" y="0" type="curve" smooth="yes"/>
			<point x="399" y="0"/>
			<point x="452" y="-1"/>
			<point x="502" y="-2" type="curve"/>
			<point x="508" y="4"/>
			<point x="508" y="26"/>
			<point x="502" y="32" type="curve"/>
			<point x="422" y="35"/>
			<point x="405" y="40"/>
		</contour>
	</outline>
</glyph>
<glyph name="Uhungarumlaut" format="2">
	<unicode hex="0170"/>
	<advance width="732"/>
	<outline>
		<contour>
			<point x="227" y="522" type="line" smooth="yes"/>
			<point x="227" y="605"/>
			<point x="242" y="610"/>
			<point x="319" y="613" type="curve"/>
			<point x="325" y="619"/>
			<point x="325" y="641"/>
			<point x="319" y="647" type="curve"/>
			<point x="270" y="646"/>
			<point x="204" y="645"/>
			<point x="156" y="645" type="curve" smooth="yes"/>
			<point x="150" y="645"/>
			<point x="143" y="645"/>
			<point x="136" y="645" type="curve" smooth="yes"/>
			<point x="96" y="645"/>
			<point x="53" y="646"/>
			<point x="10" y="647" type="curve"/>
			<point x="4" y="641"/>
			<point x="4" y="619"/>
			<point x="10" y="613" type="curve"/>
			<point x="70" y="610"/>
			<point x="87" y="605"/>
			<point x="87" y="522" type="curve" smooth="yes"/>
			<point x="87" y="236" type="line" smooth="yes"/>
			<point x="87" y="139"/>
			<point x="118" y="69"/>
			<point x="174" y="32" type="curve" smooth="yes"/>
			<point x="231" y="-5"/>
			<point x="311" y="-9"/>
			<point x="361" y="-10" type="curve"/>
			<point x="366" y="-10"/>
			<point x="371" y="-10"/>
			<point x="376" y="-10" type="curve" smooth="yes"/>
			<point x="581" y="-10"/>
			<point x="646" y="117"/>
			<point x="646" y="295" type="curve" smooth="yes"/>
			<point x="646" y="522" type="line" smooth="yes"/>
			<point x="646" y="605"/>
			<point x="664" y="607"/>
			<point x="723" y="613" type="curve"/>
			<point x="729" y="619"/>
			<point x="729" y="641"/>
			<point x="723" y="647" type="curve"/>
			<point x="684" y="646"/>
			<point x="644" y="645"/>
			<point x="616" y="645" type="curve" smooth="yes"/>
			<point x="587" y="645"/>
			<point x="535" y="646"/>
			<point x="489" y="647" type="curve"/>
			<point x="483" y="641"/>
			<point x="483" y="619"/>
			<point x="489" y="613" type="curve"/>
			<point x="565" y="607"/>
			<point x="581" y="605"/>
			<point x="581" y="522" type="curve" smooth="yes"/>
			<point x="581" y="277" type="line" smooth="yes"/>
			<point x="581" y="165"/>
			<point x="566" y="32"/>
			<point x="397" y="32" type="curve" smooth="yes"/>
			<point x="349" y="32"/>
			<point x="308" y="53"/>
			<point x="278" y="82" type="curve" smooth="yes"/>
			<point x="229" y="129"/>
			<point x="227" y="204"/>
			<point x="227" y="269" type="curve" smooth="yes"/>
		</contour>
		<contour>
			<point x="551" y="818" type="curve" smooth="yes"/>
			<point x="540" y="827"/>
			<point x="531" y="828"/>
			<point x="523" y="828" type="curve" smooth="yes"/>
			<point x="512" y="828"/>
			<point x="505" y="824"/>
			<point x="500" y="816" type="curve"/>
			<point x="441" y="707" type="line"/>
			<point x="440" y="705"/>
			<point x="439" y="704"/>
			<point x="438" y="702" type="curve"/>
			<point x="438" y="702"/>
			<point x="437" y="701"/>
			<point x="437" y="700" type="curve"/>
			<point x="437" y="699"/>
			<point x="437" y="698"/>
			<point x="437" y="697" type="curve"/>
			<point x="437" y="689"/>
			<point x="446" y="684"/>
			<point x="451" y="684" type="curve" smooth="yes"/>
			<point x="454" y="684"/>
			<point x="456" y="684"/>
			<point x="458" y="686" type="curve"/>
			<point x="557" y="770" type="line"/>
			<point x="561" y="774"/>
			<point x="564" y="781"/>
			<point x="564" y="790" type="curve" smooth="yes"/>
			<point x="564" y="800"/>
			<point x="560" y="811"/>
		</contour>
		<contour>
			<point x="418" y="824" type="curve"/>
			<point x="413" y="828"/>
			<point x="404" y="833"/>
			<point x="395" y="833" type="curve" smooth="yes"/>
			<point x="380" y="833"/>
			<point x="373" y="829"/>
			<point x="368" y="821" type="curve"/>
			<point x="313" y="710" type="line"/>
			<point x="312" y="709"/>
			<point x="312" y="707"/>
			<point x="311" y="706" type="curve" smooth="yes"/>
			<point x="310" y="705"/>
			<point x="310" y="703"/>
			<point x="310" y="702" type="curve"/>
			<point x="310" y="698"/>
			<point x="312" y="694"/>
			<point x="316" y="691" type="curve"/>
			<point x="318" y="690"/>
			<point x="321" y="688"/>
			<point x="324" y="688" type="curve" smooth="yes"/>
			<point x="326" y="688"/>
			<point x="329" y="689"/>
			<point x="332" y="690" type="curve"/>
			<point x="334" y="692"/>
			<point x="337" y="694"/>
			<point x="339" y="697" type="curve"/>
			<point x="426" y="776" type="line"/>
			<point x="431" y="780"/>
			<point x="433" y="787"/>
			<point x="433" y="795" type="curve" smooth="yes"/>
			<point x="433" y="806"/>
			<point x="428" y="817"/>
		</contour>
	</outline>
</glyph>
<glyph name="uhungarumlaut" format="2">
	<unicode hex="0171"/>
	<advance width="598"/>
	<outline>
		<contour>
			<point x="510" y="133" type="curve" smooth="yes"/>
			<point x="510" y="306" type="line" smooth="yes"/>
			<point x="510" y="317"/>
			<point x="510" y="326"/>
			<point x="510" y="333" type="curve" smooth="yes"/>
			<point x="510" y="388"/>
			<point x="512" y="381"/>
			<point x="512" y="402" type="curve" smooth="yes"/>
			<point x="512" y="413"/>
			<point x="510" y="422"/>
			<point x="507" y="428" type="curve"/>
			<point x="506" y="431"/>
			<point x="504" y="434"/>
			<point x="502" y="436" type="curve"/>
			<point x="498" y="436"/>
			<point x="495" y="436"/>
			<point x="491" y="435" type="curve"/>
			<point x="476" y="435"/>
			<point x="460" y="434"/>
			<point x="445" y="434" type="curve" smooth="yes"/>
			<point x="417" y="434"/>
			<point x="352" y="435"/>
			<point x="313" y="436" type="curve"/>
			<point x="307" y="430"/>
			<point x="307" y="408"/>
			<point x="313" y="402" type="curve"/>
			<point x="364" y="397"/>
			<point x="380" y="390"/>
			<point x="380" y="306" type="curve" smooth="yes"/>
			<point x="380" y="121" type="line" smooth="yes"/>
			<point x="380" y="111"/>
			<point x="380" y="101"/>
			<point x="381" y="91" type="curve"/>
			<point x="340" y="66"/>
			<point x="307" y="64"/>
			<point x="289" y="64" type="curve"/>
			<point x="289" y="64"/>
			<point x="289" y="64"/>
			<point x="289" y="64" type="curve"/>
			<point x="249" y="64"/>
			<point x="219" y="69"/>
			<point x="219" y="139" type="curve" smooth="yes"/>
			<point x="219" y="306" type="line" smooth="yes"/>
			<point x="219" y="317"/>
			<point x="219" y="326"/>
			<point x="219" y="333" type="curve" smooth="yes"/>
			<point x="219" y="388"/>
			<point x="221" y="381"/>
			<point x="221" y="402" type="curve" smooth="yes"/>
			<point x="221" y="413"/>
			<point x="219" y="422"/>
			<point x="216" y="428" type="curve"/>
			<point x="215" y="431"/>
			<point x="213" y="434"/>
			<point x="211" y="436" type="curve"/>
			<point x="207" y="436"/>
			<point x="204" y="436"/>
			<point x="200" y="435" type="curve"/>
			<point x="185" y="435"/>
			<point x="168" y="434"/>
			<point x="154" y="434" type="curve" smooth="yes"/>
			<point x="149" y="434"/>
			<point x="145" y="434"/>
			<point x="140" y="434" type="curve" smooth="yes"/>
			<point x="96" y="434"/>
			<point x="61" y="435"/>
			<point x="22" y="436" type="curve"/>
			<point x="16" y="430"/>
			<point x="16" y="408"/>
			<point x="22" y="402" type="curve"/>
			<point x="64" y="400"/>
			<point x="85" y="392"/>
			<point x="88" y="327" type="curve"/>
			<point x="89" y="321"/>
			<point x="89" y="314"/>
			<point x="89" y="306" type="curve" smooth="yes"/>
			<point x="89" y="150" type="line" smooth="yes"/>
			<point x="89" y="144"/>
			<point x="89" y="139"/>
			<point x="89" y="134" type="curve"/>
			<point x="94" y="38"/>
			<point x="136" y="-10"/>
			<point x="217" y="-10" type="curve" smooth="yes"/>
			<point x="222" y="-10"/>
			<point x="228" y="-9"/>
			<point x="235" y="-8" type="curve"/>
			<point x="270" y="-2"/>
			<point x="324" y="19"/>
			<point x="371" y="44" type="curve"/>
			<point x="376" y="46"/>
			<point x="380" y="49"/>
			<point x="384" y="51" type="curve"/>
			<point x="386" y="26"/>
			<point x="388" y="7"/>
			<point x="388" y="7" type="curve"/>
			<point x="389" y="-5"/>
			<point x="397" y="-10"/>
			<point x="411" y="-10" type="curve"/>
			<point x="448" y="0"/>
			<point x="508" y="14"/>
			<point name=".hr01" x="577" y="23" type="curve"/>
			<point x="579" y="29"/>
			<point x="577" y="49"/>
			<point x="575" y="55" type="curve"/>
			<point x="521" y="60"/>
			<point x="510" y="76"/>
		</contour>
		<contour>
			<point x="307" y="617" type="curve" smooth="yes"/>
			<point x="307" y="636"/>
			<point x="287" y="653"/>
			<point x="265" y="653" type="curve" smooth="yes"/>
			<point x="256" y="653"/>
			<point x="245" y="652"/>
			<point x="239" y="646" type="curve" smooth="yes"/>
			<point x="237" y="644"/>
			<point x="236" y="642"/>
			<point x="235" y="640" type="curve"/>
			<point x="176" y="506" type="line"/>
			<point x="174" y="501"/>
			<point x="173" y="497"/>
			<point x="173" y="493" type="curve" smooth="yes"/>
			<point x="173" y="490"/>
			<point x="174" y="487"/>
			<point x="175" y="484" type="curve"/>
			<point x="177" y="480"/>
			<point x="181" y="477"/>
			<point x="186" y="477" type="curve" smooth="yes"/>
			<point x="190" y="477"/>
			<point x="193" y="478"/>
			<point x="197" y="480" type="curve"/>
			<point x="201" y="483"/>
			<point x="206" y="487"/>
			<point x="210" y="492" type="curve"/>
			<point x="302" y="601" type="line"/>
			<point x="306" y="606"/>
			<point x="307" y="612"/>
		</contour>
		<contour>
			<point x="436" y="605" type="curve" smooth="yes"/>
			<point x="436" y="629"/>
			<point x="420" y="648"/>
			<point x="395" y="648" type="curve" smooth="yes"/>
			<point x="384" y="648"/>
			<point x="377" y="643"/>
			<point x="372" y="638" type="curve"/>
			<point x="369" y="634"/>
			<point x="368" y="631"/>
			<point x="367" y="630" type="curve"/>
			<point x="299" y="509" type="line"/>
			<point x="298" y="507"/>
			<point x="297" y="504"/>
			<point x="296" y="502" type="curve"/>
			<point x="295" y="499"/>
			<point x="295" y="497"/>
			<point x="295" y="495" type="curve" smooth="yes"/>
			<point x="295" y="492"/>
			<point x="296" y="489"/>
			<point x="297" y="487" type="curve"/>
			<point x="300" y="483"/>
			<point x="305" y="480"/>
			<point x="310" y="480" type="curve" smooth="yes"/>
			<point x="312" y="480"/>
			<point x="313" y="480"/>
			<point x="315" y="481" type="curve"/>
			<point x="318" y="482"/>
			<point x="322" y="485"/>
			<point x="325" y="488" type="curve" smooth="yes"/>
			<point x="423" y="581" type="line" smooth="yes"/>
			<point x="425" y="583"/>
			<point x="427" y="584"/>
			<point x="428" y="586" type="curve"/>
			<point x="433" y="591"/>
			<point x="436" y="596"/>
		</contour>
	</outline>
</glyph>
<glyph name="Uogonek" format="2">
	<unicode hex="0172"/>
	<advance width="732"/>
	<outline>
		<contour>
			<point x="573" y="-152" type="curve"/>
			<point x="573" y="-138"/>
			<point x="569" y="-126"/>
			<point x="558" y="-119" type="curve"/>
			<point x="543" y="-134"/>
			<point x="519" y="-137"/>
			<point x="502" y="-137" type="curve"/>
			<point x="502" y="-137"/>
			<point x="502" y="-137"/>
			<point x="502" y="-137" type="curve"/>
			<point x="485" y="-137"/>
			<point x="467" y="-126"/>
			<point x="467" y="-100" type="curve"/>
			<point x="467" y="-100"/>
			<point x="467" y="-100"/>
			<point x="467" y="-100" type="curve"/>
			<point x="467" y="-48"/>
			<point x="490" y="-17"/>
			<point x="526" y="19" type="curve" smooth="yes"/>
			<point x="530" y="23"/>
			<point x="535" y="27"/>
			<point x="540" y="32" type="curve"/>
			<point x="618" y="83"/>
			<point x="646" y="178"/>
			<point x="646" y="295" type="curve" smooth="yes"/>
			<point x="646" y="522" type="line" smooth="yes"/>
			<point x="646" y="605"/>
			<point x="664" y="607"/>
			<point x="723" y="613" type="curve"/>
			<point x="729" y="619"/>
			<point x="729" y="641"/>
			<point x="723" y="647" type="curve"/>
			<point x="684" y="646"/>
			<point x="644" y="645"/>
			<point x="616" y="645" type="curve" smooth="yes"/>
			<point x="587" y="645"/>
			<point x="535" y="646"/>
			<point x="489" y="647" type="curve"/>
			<point x="483" y="641"/>
			<point x="483" y="619"/>
			<point x="489" y="613" type="curve"/>
			<point x="565" y="607"/>
			<point x="581" y="605"/>
			<point x="581" y="522" type="curve" smooth="yes"/>
			<point x="581" y="277" type="line" smooth="yes"/>
			<point x="581" y="165"/>
			<point x="566" y="32"/>
			<point x="397" y="32" type="curve" smooth="yes"/>
			<point x="391" y="32"/>
			<point x="385" y="32"/>
			<point x="379" y="33" type="curve"/>
			<point x="339" y="37"/>
			<point x="304" y="57"/>
			<point x="278" y="82" type="curve"/>
			<point x="278" y="82"/>
			<point x="278" y="82"/>
			<point x="278" y="82" type="curve"/>
			<point x="229" y="129"/>
			<point x="227" y="204"/>
			<point x="227" y="269" type="curve" smooth="yes"/>
			<point x="227" y="522" type="line" smooth="yes"/>
			<point x="227" y="605"/>
			<point x="242" y="610"/>
			<point x="319" y="613" type="curve"/>
			<point x="325" y="619"/>
			<point x="325" y="641"/>
			<point x="319" y="647" type="curve"/>
			<point x="270" y="646"/>
			<point x="204" y="645"/>
			<point x="156" y="645" type="curve" smooth="yes"/>
			<point x="141" y="645" type="line" smooth="yes"/>
			<point x="100" y="645"/>
			<point x="54" y="646"/>
			<point x="10" y="647" type="curve"/>
			<point x="4" y="641"/>
			<point x="4" y="619"/>
			<point x="10" y="613" type="curve"/>
			<point x="70" y="610"/>
			<point x="87" y="605"/>
			<point x="87" y="522" type="curve" smooth="yes"/>
			<point x="87" y="236" type="line" smooth="yes"/>
			<point x="87" y="229"/>
			<point x="87" y="221"/>
			<point x="88" y="214" type="curve"/>
			<point x="92" y="128"/>
			<point x="122" y="66"/>
			<point x="174" y="32" type="curve" smooth="yes"/>
			<point x="232" y="-6"/>
			<point x="314" y="-10"/>
			<point x="363" y="-10" type="curve" smooth="yes"/>
			<point x="368" y="-10"/>
			<point x="372" y="-10"/>
			<point x="376" y="-10" type="curve" smooth="yes"/>
			<point x="399" y="-10"/>
			<point x="420" y="-8"/>
			<point x="439" y="-5" type="curve"/>
			<point x="399" y="-40"/>
			<point x="365" y="-80"/>
			<point x="365" y="-121" type="curve" smooth="yes"/>
			<point x="365" y="-169"/>
			<point x="397" y="-199"/>
			<point x="439" y="-206" type="curve" smooth="yes"/>
			<point x="445" y="-207"/>
			<point x="451" y="-207"/>
			<point x="457" y="-207" type="curve" smooth="yes"/>
			<point x="496" y="-207"/>
			<point x="547" y="-188"/>
		</contour>
	</outline>
	<anchor name="m.uni0302" x="346" y="850"/>
	<anchor name="m.uni0316_2" x="188" y="-110"/>
</glyph>
<glyph name="uni0182" format="2">
	<unicode hex="0182"/>
	<advance width="649"/>
	<outline>
		<contour>
			<point x="446" y="359" type="curve" smooth="yes"/>
			<point x="394" y="373"/>
			<point x="359" y="376"/>
			<point x="288" y="376" type="curve" smooth="yes"/>
			<point x="279.216" y="376"/>
			<point x="249.429" y="376"/>
			<point x="242" y="376" type="curve"/>
			<point x="242" y="402.993"/>
			<point x="242" y="527.241"/>
			<point x="242" y="562" type="curve" smooth="yes"/>
			<point x="242" y="591"/>
			<point x="256" y="603"/>
			<point x="278" y="603" type="curve" smooth="yes"/>
			<point x="378" y="603" type="line" smooth="yes"/>
			<point x="453" y="603"/>
			<point x="474" y="550"/>
			<point x="496" y="481" type="curve"/>
			<point x="508" y="479"/>
			<point x="529" y="481"/>
			<point x="539" y="486" type="curve"/>
			<point x="534" y="527"/>
			<point x="529" y="638"/>
			<point x="527" y="646" type="curve"/>
			<point x="527" y="648"/>
			<point x="526" y="649"/>
			<point x="523" y="649" type="curve"/>
			<point x="506" y="646"/>
			<point x="498" y="645"/>
			<point x="474" y="645" type="curve" smooth="yes"/>
			<point x="424.475" y="645"/>
			<point x="219.061" y="645"/>
			<point x="164" y="645" type="curve" smooth="yes"/>
			<point x="124" y="645"/>
			<point x="19" y="647"/>
			<point x="19" y="647" type="curve"/>
			<point x="9" y="641"/>
			<point x="9" y="619"/>
			<point x="19" y="613" type="curve"/>
			<point x="74" y="610"/>
			<point x="102" y="606"/>
			<point x="102" y="523" type="curve" smooth="yes"/>
			<point x="102" y="445.3"/>
			<point x="102" y="199.716"/>
			<point x="102" y="122" type="curve" smooth="yes"/>
			<point x="102" y="39"/>
			<point x="74" y="35"/>
			<point x="19" y="32" type="curve"/>
			<point x="9" y="26"/>
			<point x="9" y="4"/>
			<point x="19" y="-2" type="curve"/>
			<point x="19" y="-2"/>
			<point x="133" y="0"/>
			<point x="173" y="0" type="curve" smooth="yes"/>
			<point x="213" y="0"/>
			<point x="267" y="-2"/>
			<point x="327" y="-2" type="curve" smooth="yes"/>
			<point x="532" y="-2"/>
			<point x="596" y="84"/>
			<point x="596" y="186" type="curve" smooth="yes"/>
			<point x="596" y="274"/>
			<point x="552" y="331"/>
		</contour>
		<contour>
			<point x="242" y="334" type="line"/>
			<point x="303" y="334" type="line" smooth="yes"/>
			<point x="406" y="334"/>
			<point x="449" y="273"/>
			<point name=".hr01" x="449" y="187" type="curve" smooth="yes"/>
			<point x="449" y="127"/>
			<point x="430" y="40"/>
			<point x="298" y="40" type="curve" smooth="yes"/>
			<point x="248" y="40"/>
			<point x="242" y="55"/>
			<point x="242" y="84" type="curve" smooth="yes"/>
		</contour>
	</outline>
</glyph>
<glyph name="uni0184" format="2">
	<unicode hex="0184"/>
	<advance width="654"/>
	<outline>
		<contour>
			<point x="229" y="658" type="curve" smooth="yes"/>
			<point x="189" y="658"/>
			<point x="19" y="607"/>
			<point x="19" y="607" type="curve"/>
			<point x="9" y="601"/>
			<point x="9" y="579"/>
			<point x="19" y="573" type="curve"/>
			<point x="67" y="570"/>
			<point x="95" y="544"/>
			<point x="101" y="482" type="curve" smooth="yes"/>
			<point x="102" y="473"/>
			<point x="102" y="463"/>
			<point x="102" y="453" type="curve" smooth="yes"/>
			<point x="102" y="122" type="line" smooth="yes"/>
			<point x="102" y="110"/>
			<point x="101" y="100"/>
			<point x="100" y="91" type="curve" smooth="yes"/>
			<point x="96" y="56"/>
			<point x="82" y="42"/>
			<point x="60" y="37" type="curve"/>
			<point x="54" y="35"/>
			<point x="48" y="34"/>
			<point x="41" y="34" type="curve"/>
			<point x="41" y="34"/>
			<point x="41" y="34"/>
			<point x="41" y="34" type="curve"/>
			<point x="34" y="33"/>
			<point x="27" y="32"/>
			<point x="19" y="32" type="curve"/>
			<point x="9" y="26"/>
			<point x="9" y="4"/>
			<point x="19" y="-2" type="curve"/>
			<point x="19" y="-2"/>
			<point x="106" y="0"/>
			<point x="155" y="0" type="curve" smooth="yes"/>
			<point x="162" y="0"/>
			<point x="168" y="0"/>
			<point x="173" y="0" type="curve" smooth="yes"/>
			<point x="203" y="0"/>
			<point x="247" y="-1"/>
			<point x="292" y="-2" type="curve"/>
			<point x="307" y="-2"/>
			<point x="322" y="-2"/>
			<point x="337" y="-2" type="curve" smooth="yes"/>
			<point x="417" y="-2"/>
			<point x="475" y="13"/>
			<point x="517" y="36" type="curve" smooth="yes"/>
			<point x="577" y="70"/>
			<point x="603" y="123"/>
			<point x="607" y="179" type="curve"/>
			<point x="608" y="185"/>
			<point x="608" y="190"/>
			<point x="608" y="196" type="curve" smooth="yes"/>
			<point x="608" y="322"/>
			<point x="497" y="390"/>
			<point x="328" y="390" type="curve" smooth="yes"/>
			<point x="242" y="390" type="line"/>
			<point x="242" y="543" type="line" smooth="yes"/>
			<point x="242" y="608"/>
			<point x="245" y="645"/>
			<point x="245" y="645" type="curve"/>
			<point x="245" y="654"/>
			<point x="238" y="658"/>
		</contour>
		<contour>
			<point x="242" y="344" type="line"/>
			<point x="313" y="344" type="line" smooth="yes"/>
			<point x="324" y="344"/>
			<point x="335" y="343"/>
			<point x="345" y="342" type="curve"/>
			<point x="425" y="330"/>
			<point x="461" y="273"/>
			<point x="461" y="197" type="curve"/>
			<point x="461" y="197"/>
			<point x="461" y="197"/>
			<point x="461" y="197" type="curve"/>
			<point x="461" y="137"/>
			<point x="440" y="40"/>
			<point x="308" y="40" type="curve" smooth="yes"/>
			<point x="248" y="40"/>
			<point x="242" y="55"/>
			<point x="242" y="84" type="curve" smooth="yes"/>
		</contour>
	</outline>
	<anchor name="m.uni0302" x="337" y="735"/>
	<anchor name="m.uni0316_2" x="268" y="-108"/>
</glyph>
